<ttFont>
<head>
    <!-- Most of this table will be recalculated by the compiler -->
    <tableVersion value="1.0"/>
    <fontRevision value="1.00002"/>
    <checkSumAdjustment value="0x272afa26"/>
    <magicNumber value="0x5f0f3cf5"/>
    <flags value="00000000 00011111"/>
    <unitsPerEm value="2048"/>
    <created value="Thu Jan  1 00:00:00 1970"/>
    <modified value="Sun Sep 24 04:21:38 2017"/>
    <xMin value="-178"/>
    <yMin value="-513"/>
    <xMax value="1179"/>
    <yMax value="2021"/>
    <macStyle value="00000000 00000000"/>
    <lowestRecPPEM value="8"/>
    <fontDirectionHint value="2"/>
    <indexToLocFormat value="0"/>
    <glyphDataFormat value="0"/>
  </head>
    <TTGlyph name=".notdef" xMin="15" yMin="-275" xMax="1009" yMax="1477">
      <contour>
        <pt x="15" y="-275" on="1"/>
        <pt x="15" y="1477" on="1"/>
        <pt x="1009" y="1477" on="1"/>
        <pt x="1009" y="-275" on="1"/>
      </contour>
      <contour>
        <pt x="127" y="-164" on="1"/>
        <pt x="897" y="-164" on="1"/>
        <pt x="897" y="1365" on="1"/>
        <pt x="127" y="1365" on="1"/>
      </contour>
    </TTGlyph>
    <TTGlyph name="A" xMin="-11" yMin="32" xMax="961" yMax="1409">
      <contour>
        <pt x="314" y="554" on="1"/>
        <pt x="345" y="555" on="0"/>
        <pt x="441" y="559" on="0"/>
        <pt x="454" y="559" on="1"/>
        <pt x="477" y="559" on="0"/>
        <pt x="550" y="555" on="1"/>
        <pt x="587" y="554" on="0"/>
        <pt x="606" y="554" on="1"/>
        <pt x="578" y="666" on="0"/>
        <pt x="534" y="895" on="0"/>
        <pt x="517" y="1010" on="1"/>
        <pt x="487" y="1010" on="1"/>
        <pt x="428" y="876" on="0"/>
        <pt x="340" y="643" on="0"/>
      </contour>
      <contour>
        <pt x="275" y="456" on="1"/>
        <pt x="227" y="337" on="0"/>
        <pt x="149" y="53" on="0"/>
        <pt x="119" y="49" on="1"/>
        <pt x="13" y="39" on="1"/>
        <pt x="7" y="39" on="1"/>
        <pt x="-1" y="39" on="0"/>
        <pt x="-9" y="44" on="0"/>
        <pt x="-10" y="49" on="1"/>
        <pt x="-10" y="89" on="0"/>
        <pt x="94" y="360" on="1"/>
        <pt x="115" y="412" on="1"/>
        <pt x="45" y="442" on="1"/>
        <pt x="51" y="489" on="0"/>
        <pt x="84" y="529" on="0"/>
        <pt x="159" y="554" on="1"/>
        <pt x="226" y="721" on="0"/>
        <pt x="382" y="1083" on="0"/>
        <pt x="471" y="1279" on="1"/>
        <pt x="458" y="1370" on="1"/>
        <pt x="643" y="1408" on="1"/>
        <pt x="640" y="1376" on="0"/>
        <pt x="639" y="1344" on="0"/>
        <pt x="639" y="1328" on="1"/>
        <pt x="639" y="1230" on="0"/>
        <pt x="682" y="950" on="0"/>
        <pt x="728" y="749" on="1"/>
        <pt x="785" y="496" on="0"/>
        <pt x="893" y="192" on="0"/>
        <pt x="960" y="81" on="1"/>
        <pt x="880" y="47" on="1"/>
        <pt x="863" y="40" on="0"/>
        <pt x="836" y="33" on="0"/>
        <pt x="825" y="33" on="1"/>
        <pt x="793" y="33" on="0"/>
        <pt x="715" y="206" on="0"/>
        <pt x="639" y="456" on="1"/>
        <pt x="604" y="455" on="0"/>
        <pt x="529" y="454" on="0"/>
        <pt x="452" y="454" on="1"/>
        <pt x="399" y="454" on="0"/>
        <pt x="319" y="455" on="0"/>
      </contour>
    </TTGlyph>
    <TTGlyph name="AE" xMin="-63" yMin="13" xMax="987" yMax="1387">
      <contour>
        <pt x="275" y="591" on="1"/>
        <pt x="445" y="600" on="1"/>
        <pt x="453" y="637" on="0"/>
        <pt x="468" y="726" on="1"/>
        <pt x="521" y="1031" on="0"/>
        <pt x="560" y="1243" on="1"/>
        <pt x="528" y="1239" on="1"/>
        <pt x="456" y="1065" on="0"/>
        <pt x="327" y="739" on="0"/>
      </contour>
      <contour>
        <pt x="443" y="1314" on="1"/>
        <pt x="433" y="1364" on="1"/>
        <pt x="593" y="1364" on="0"/>
        <pt x="948" y="1384" on="1"/>
        <pt x="987" y="1386" on="1"/>
        <pt x="969" y="1278" on="1"/>
        <pt x="894" y="1268" on="0"/>
        <pt x="759" y="1257" on="0"/>
        <pt x="696" y="1254" on="1"/>
        <pt x="679" y="1163" on="0"/>
        <pt x="644" y="949" on="0"/>
        <pt x="627" y="826" on="1"/>
        <pt x="707" y="826" on="0"/>
        <pt x="870" y="829" on="0"/>
        <pt x="953" y="832" on="1"/>
        <pt x="929" y="727" on="1"/>
        <pt x="871" y="724" on="0"/>
        <pt x="737" y="718" on="0"/>
        <pt x="603" y="709" on="1"/>
        <pt x="570" y="500" on="0"/>
        <pt x="548" y="319" on="0"/>
        <pt x="548" y="273" on="1"/>
        <pt x="548" y="213" on="0"/>
        <pt x="620" y="152" on="0"/>
        <pt x="692" y="152" on="1"/>
        <pt x="747" y="152" on="0"/>
        <pt x="888" y="166" on="0"/>
        <pt x="973" y="179" on="1"/>
        <pt x="963" y="76" on="1"/>
        <pt x="850" y="45" on="0"/>
        <pt x="675" y="14" on="0"/>
        <pt x="609" y="14" on="1"/>
        <pt x="497" y="14" on="0"/>
        <pt x="391" y="119" on="0"/>
        <pt x="391" y="230" on="1"/>
        <pt x="391" y="270" on="0"/>
        <pt x="407" y="403" on="0"/>
        <pt x="425" y="509" on="1"/>
        <pt x="241" y="497" on="1"/>
        <pt x="186" y="368" on="0"/>
        <pt x="98" y="54" on="0"/>
        <pt x="66" y="50" on="1"/>
        <pt x="-40" y="40" on="1"/>
        <pt x="-46" y="40" on="1"/>
        <pt x="-53" y="40" on="0"/>
        <pt x="-62" y="45" on="0"/>
        <pt x="-63" y="50" on="1"/>
        <pt x="-63" y="89" on="0"/>
        <pt x="37" y="350" on="1"/>
        <pt x="62" y="417" on="0"/>
        <pt x="77" y="455" on="1"/>
        <pt x="8" y="487" on="1"/>
        <pt x="16" y="564" on="0"/>
        <pt x="127" y="597" on="1"/>
        <pt x="130" y="598" on="1"/>
        <pt x="201" y="776" on="0"/>
        <pt x="356" y="1131" on="0"/>
      </contour>
    </TTGlyph>
    <TTGlyph name="Aacute" xMin="-11" yMin="32" xMax="963" yMax="1903">
      <component glyphName="A" x="0" y="0" flags="0x1004"/>
      <component glyphName="acute" x="32" y="467" flags="0x1004"/>
    </TTGlyph>
    <TTGlyph name="Acircumflex" xMin="-11" yMin="32" xMax="961" yMax="1879">
      <component glyphName="A" x="0" y="0" flags="0x1004"/>
      <component glyphName="circumflex" x="32" y="467" flags="0x1004"/>
    </TTGlyph>
    <TTGlyph name="Adieresis" xMin="-11" yMin="32" xMax="982" yMax="1843">
      <component glyphName="A" x="0" y="0" flags="0x1004"/>
      <component glyphName="dieresis" x="32" y="467" flags="0x1004"/>
    </TTGlyph>
    <TTGlyph name="Agrave" xMin="-11" yMin="32" xMax="961" yMax="1903">
      <component glyphName="A" x="0" y="0" flags="0x1004"/>
      <component glyphName="grave" x="32" y="467" flags="0x1004"/>
    </TTGlyph>
    <TTGlyph name="Aring" xMin="-11" yMin="22" xMax="961" yMax="2021">
      <contour>
        <pt x="424" y="1760" on="1"/>
        <pt x="424" y="1701" on="0"/>
        <pt x="505" y="1620" on="0"/>
        <pt x="564" y="1620" on="1"/>
        <pt x="622" y="1620" on="0"/>
        <pt x="702" y="1702" on="0"/>
        <pt x="702" y="1760" on="1"/>
        <pt x="702" y="1818" on="0"/>
        <pt x="621" y="1900" on="0"/>
        <pt x="564" y="1900" on="1"/>
        <pt x="505" y="1900" on="0"/>
        <pt x="424" y="1819" on="0"/>
      </contour>
      <contour>
        <pt x="301" y="1760" on="1"/>
        <pt x="301" y="1870" on="0"/>
        <pt x="452" y="2021" on="0"/>
        <pt x="562" y="2021" on="1"/>
        <pt x="673" y="2021" on="0"/>
        <pt x="825" y="1870" on="0"/>
        <pt x="825" y="1760" on="1"/>
        <pt x="825" y="1650" on="0"/>
        <pt x="672" y="1497" on="0"/>
        <pt x="562" y="1497" on="1"/>
        <pt x="453" y="1497" on="0"/>
        <pt x="301" y="1650" on="0"/>
      </contour>
      <contour>
        <pt x="275" y="446" on="1"/>
        <pt x="227" y="327" on="0"/>
        <pt x="149" y="43" on="0"/>
        <pt x="119" y="39" on="1"/>
        <pt x="13" y="28" on="1"/>
        <pt x="7" y="28" on="1"/>
        <pt x="-1" y="28" on="0"/>
        <pt x="-9" y="34" on="0"/>
        <pt x="-10" y="39" on="1"/>
        <pt x="-10" y="78" on="0"/>
        <pt x="94" y="349" on="1"/>
        <pt x="115" y="401" on="1"/>
        <pt x="45" y="431" on="1"/>
        <pt x="51" y="479" on="0"/>
        <pt x="84" y="518" on="0"/>
        <pt x="159" y="544" on="1"/>
        <pt x="226" y="710" on="0"/>
        <pt x="382" y="1073" on="0"/>
        <pt x="471" y="1268" on="1"/>
        <pt x="458" y="1359" on="1"/>
        <pt x="643" y="1398" on="1"/>
        <pt x="640" y="1366" on="0"/>
        <pt x="639" y="1334" on="0"/>
        <pt x="639" y="1317" on="1"/>
        <pt x="639" y="1220" on="0"/>
        <pt x="682" y="939" on="0"/>
        <pt x="728" y="738" on="1"/>
        <pt x="785" y="486" on="0"/>
        <pt x="893" y="182" on="0"/>
        <pt x="960" y="71" on="1"/>
        <pt x="880" y="37" on="1"/>
        <pt x="863" y="29" on="0"/>
        <pt x="836" y="22" on="0"/>
        <pt x="825" y="22" on="1"/>
        <pt x="793" y="22" on="0"/>
        <pt x="715" y="195" on="0"/>
        <pt x="639" y="446" on="1"/>
        <pt x="604" y="444" on="0"/>
        <pt x="529" y="443" on="0"/>
        <pt x="452" y="443" on="1"/>
        <pt x="399" y="443" on="0"/>
        <pt x="319" y="444" on="0"/>
      </contour>
      <contour>
        <pt x="314" y="544" on="1"/>
        <pt x="345" y="545" on="0"/>
        <pt x="441" y="548" on="0"/>
        <pt x="454" y="548" on="1"/>
        <pt x="477" y="548" on="0"/>
        <pt x="550" y="545" on="1"/>
        <pt x="587" y="544" on="0"/>
        <pt x="606" y="544" on="1"/>
        <pt x="578" y="656" on="0"/>
        <pt x="534" y="884" on="0"/>
        <pt x="517" y="999" on="1"/>
        <pt x="487" y="999" on="1"/>
        <pt x="428" y="866" on="0"/>
        <pt x="340" y="633" on="0"/>
      </contour>
    </TTGlyph>
    <TTGlyph name="Atilde" xMin="-11" yMin="32" xMax="967" yMax="1834">
      <component glyphName="A" x="0" y="0" flags="0x1004"/>
      <component glyphName="tilde" x="32" y="467" flags="0x1004"/>
    </TTGlyph>
    <TTGlyph name="B" xMin="63" yMin="3" xMax="914" yMax="1417">
      <contour>
        <pt x="313" y="808" on="1"/>
        <pt x="526" y="863" on="0"/>
        <pt x="754" y="1033" on="0"/>
        <pt x="754" y="1135" on="1"/>
        <pt x="754" y="1217" on="0"/>
        <pt x="654" y="1301" on="0"/>
        <pt x="555" y="1301" on="1"/>
        <pt x="525" y="1301" on="0"/>
        <pt x="455" y="1289" on="0"/>
        <pt x="416" y="1277" on="1"/>
        <pt x="376" y="1124" on="0"/>
        <pt x="328" y="901" on="0"/>
      </contour>
      <contour>
        <pt x="80" y="1188" on="1"/>
        <pt x="80" y="1285" on="1"/>
        <pt x="278" y="1361" on="0"/>
        <pt x="518" y="1417" on="0"/>
        <pt x="620" y="1417" on="1"/>
        <pt x="760" y="1417" on="0"/>
        <pt x="911" y="1296" on="0"/>
        <pt x="911" y="1186" on="1"/>
        <pt x="911" y="1081" on="0"/>
        <pt x="756" y="896" on="0"/>
        <pt x="589" y="804" on="1"/>
        <pt x="750" y="764" on="0"/>
        <pt x="913" y="575" on="0"/>
        <pt x="913" y="432" on="1"/>
        <pt x="913" y="243" on="0"/>
        <pt x="667" y="3" on="0"/>
        <pt x="468" y="3" on="1"/>
        <pt x="375" y="3" on="0"/>
        <pt x="266" y="85" on="0"/>
        <pt x="266" y="154" on="1"/>
        <pt x="266" y="199" on="0"/>
        <pt x="311" y="260" on="0"/>
        <pt x="341" y="260" on="1"/>
        <pt x="354" y="260" on="0"/>
        <pt x="469" y="120" on="0"/>
        <pt x="561" y="120" on="1"/>
        <pt x="661" y="120" on="0"/>
        <pt x="767" y="260" on="0"/>
        <pt x="767" y="391" on="1"/>
        <pt x="767" y="534" on="0"/>
        <pt x="574" y="694" on="0"/>
        <pt x="400" y="694" on="1"/>
        <pt x="390" y="694" on="0"/>
        <pt x="315" y="691" on="0"/>
        <pt x="292" y="690" on="1"/>
        <pt x="260" y="519" on="0"/>
        <pt x="245" y="125" on="0"/>
        <pt x="193" y="102" on="1"/>
        <pt x="100" y="67" on="1"/>
        <pt x="98" y="66" on="0"/>
        <pt x="93" y="65" on="0"/>
        <pt x="88" y="65" on="1"/>
        <pt x="77" y="65" on="0"/>
        <pt x="64" y="88" on="0"/>
        <pt x="64" y="110" on="1"/>
        <pt x="64" y="236" on="0"/>
        <pt x="163" y="877" on="0"/>
        <pt x="248" y="1237" on="1"/>
        <pt x="203" y="1229" on="0"/>
        <pt x="121" y="1204" on="0"/>
      </contour>
    </TTGlyph>
    <TTGlyph name="C" xMin="63" yMin="-1" xMax="922" yMax="1391">
      <contour>
        <pt x="830" y="865" on="1"/>
        <pt x="727" y="890" on="1"/>
        <pt x="747" y="951" on="0"/>
        <pt x="774" y="1086" on="0"/>
        <pt x="780" y="1161" on="1"/>
        <pt x="705" y="1209" on="0"/>
        <pt x="599" y="1250" on="0"/>
        <pt x="551" y="1250" on="1"/>
        <pt x="425" y="1250" on="0"/>
        <pt x="235" y="886" on="0"/>
        <pt x="235" y="633" on="1"/>
        <pt x="235" y="386" on="0"/>
        <pt x="407" y="110" on="0"/>
        <pt x="561" y="110" on="1"/>
        <pt x="623" y="110" on="0"/>
        <pt x="730" y="180" on="0"/>
        <pt x="820" y="290" on="1"/>
        <pt x="875" y="242" on="1"/>
        <pt x="788" y="112" on="0"/>
        <pt x="609" y="-1" on="0"/>
        <pt x="494" y="-1" on="1"/>
        <pt x="290" y="-1" on="0"/>
        <pt x="63" y="311" on="0"/>
        <pt x="63" y="594" on="1"/>
        <pt x="63" y="768" on="0"/>
        <pt x="164" y="1075" on="0"/>
        <pt x="258" y="1189" on="1"/>
        <pt x="337" y="1284" on="0"/>
        <pt x="529" y="1391" on="0"/>
        <pt x="622" y="1391" on="1"/>
        <pt x="681" y="1391" on="0"/>
        <pt x="800" y="1356" on="0"/>
        <pt x="860" y="1322" on="1"/>
        <pt x="897" y="1303" on="0"/>
        <pt x="922" y="1269" on="0"/>
        <pt x="922" y="1237" on="1"/>
        <pt x="922" y="1164" on="0"/>
        <pt x="874" y="964" on="0"/>
      </contour>
    </TTGlyph>
    <TTGlyph name="Cacute" xMin="63" yMin="-1" xMax="963" yMax="1903">
      <component glyphName="C" x="0" y="0" flags="0x1004"/>
      <component glyphName="acute" x="32" y="467" flags="0x1004"/>
    </TTGlyph>
    <TTGlyph name="Ccaron" xMin="63" yMin="-1" xMax="948" yMax="1883">
      <component glyphName="C" x="0" y="0" flags="0x1004"/>
      <component glyphName="caron" x="32" y="467" flags="0x1004"/>
    </TTGlyph>
    <TTGlyph name="Ccedilla" xMin="63" yMin="-411" xMax="922" yMax="1391">
      <component glyphName="C" x="0" y="0" flags="0x1004"/>
      <component glyphName="cedilla" x="79" y="0" flags="0x1004"/>
    </TTGlyph>
    <TTGlyph name="D" xMin="-18" yMin="-22" xMax="993" yMax="1428">
      <contour>
        <pt x="15" y="1019" on="1"/>
        <pt x="-2" y="1019" on="0"/>
        <pt x="-17" y="1037" on="0"/>
        <pt x="-17" y="1057" on="1"/>
        <pt x="-17" y="1144" on="0"/>
        <pt x="176" y="1262" on="1"/>
        <pt x="178" y="1263" on="1"/>
        <pt x="315" y="1346" on="0"/>
        <pt x="563" y="1427" on="0"/>
        <pt x="674" y="1427" on="1"/>
        <pt x="825" y="1427" on="0"/>
        <pt x="992" y="1208" on="0"/>
        <pt x="992" y="1008" on="1"/>
        <pt x="992" y="791" on="0"/>
        <pt x="790" y="350" on="0"/>
        <pt x="614" y="188" on="1"/>
        <pt x="514" y="95" on="0"/>
        <pt x="302" y="-21" on="0"/>
        <pt x="244" y="-21" on="1"/>
        <pt x="193" y="-21" on="0"/>
        <pt x="106" y="79" on="0"/>
        <pt x="106" y="139" on="1"/>
        <pt x="106" y="190" on="0"/>
        <pt x="133" y="413" on="0"/>
        <pt x="159" y="569" on="1"/>
        <pt x="187" y="738" on="0"/>
        <pt x="239" y="1017" on="0"/>
        <pt x="244" y="1038" on="1"/>
        <pt x="259" y="1100" on="0"/>
        <pt x="332" y="1168" on="0"/>
        <pt x="381" y="1168" on="1"/>
        <pt x="402" y="1168" on="0"/>
        <pt x="422" y="1145" on="0"/>
        <pt x="422" y="1121" on="1"/>
        <pt x="422" y="1093" on="0"/>
        <pt x="385" y="915" on="1"/>
        <pt x="360" y="796" on="0"/>
        <pt x="345" y="723" on="1"/>
        <pt x="307" y="527" on="0"/>
        <pt x="264" y="262" on="0"/>
        <pt x="264" y="218" on="1"/>
        <pt x="264" y="179" on="0"/>
        <pt x="288" y="145" on="0"/>
        <pt x="313" y="145" on="1"/>
        <pt x="364" y="145" on="0"/>
        <pt x="527" y="256" on="0"/>
        <pt x="600" y="343" on="1"/>
        <pt x="704" y="466" on="0"/>
        <pt x="822" y="800" on="0"/>
        <pt x="822" y="970" on="1"/>
        <pt x="822" y="1126" on="0"/>
        <pt x="713" y="1284" on="0"/>
        <pt x="604" y="1284" on="1"/>
        <pt x="537" y="1284" on="0"/>
        <pt x="351" y="1224" on="0"/>
        <pt x="256" y="1170" on="1"/>
        <pt x="190" y="1131" on="0"/>
        <pt x="32" y="1019" on="0"/>
      </contour>
    </TTGlyph>
    <TTGlyph name="Delta" xMin="62" yMin="80" xMax="962" yMax="1429">
      <contour>
        <pt x="451" y="1010" on="1"/>
        <pt x="241" y="208" on="1"/>
        <pt x="774" y="208" on="1"/>
        <pt x="558" y="1015" on="1"/>
        <pt x="541" y="1079" on="0"/>
        <pt x="516" y="1208" on="0"/>
        <pt x="506" y="1275" on="1"/>
        <pt x="493" y="1200" on="0"/>
        <pt x="464" y="1065" on="0"/>
      </contour>
      <contour>
        <pt x="961" y="81" on="1"/>
        <pt x="63" y="81" on="1"/>
        <pt x="427" y="1428" on="1"/>
        <pt x="595" y="1428" on="1"/>
      </contour>
    </TTGlyph>
    <TTGlyph name="E" xMin="98" yMin="13" xMax="949" yMax="1409">
      <contour>
        <pt x="132" y="1233" on="1"/>
        <pt x="165" y="1364" on="1"/>
        <pt x="439" y="1371" on="0"/>
        <pt x="816" y="1393" on="0"/>
        <pt x="948" y="1409" on="1"/>
        <pt x="908" y="1285" on="1"/>
        <pt x="783" y="1279" on="0"/>
        <pt x="540" y="1263" on="0"/>
        <pt x="426" y="1254" on="1"/>
        <pt x="408" y="1162" on="0"/>
        <pt x="373" y="949" on="0"/>
        <pt x="355" y="826" on="1"/>
        <pt x="481" y="829" on="0"/>
        <pt x="717" y="838" on="0"/>
        <pt x="829" y="845" on="1"/>
        <pt x="803" y="737" on="1"/>
        <pt x="759" y="734" on="1"/>
        <pt x="470" y="715" on="0"/>
        <pt x="332" y="709" on="1"/>
        <pt x="299" y="505" on="0"/>
        <pt x="277" y="319" on="0"/>
        <pt x="277" y="272" on="1"/>
        <pt x="277" y="212" on="0"/>
        <pt x="349" y="152" on="0"/>
        <pt x="421" y="152" on="1"/>
        <pt x="500" y="152" on="0"/>
        <pt x="719" y="179" on="0"/>
        <pt x="845" y="205" on="1"/>
        <pt x="827" y="90" on="1"/>
        <pt x="652" y="52" on="0"/>
        <pt x="408" y="13" on="0"/>
        <pt x="338" y="13" on="1"/>
        <pt x="227" y="13" on="0"/>
        <pt x="121" y="119" on="0"/>
        <pt x="121" y="230" on="1"/>
        <pt x="121" y="277" on="0"/>
        <pt x="150" y="490" on="0"/>
        <pt x="186" y="701" on="1"/>
        <pt x="99" y="705" on="1"/>
        <pt x="109" y="779" on="1"/>
        <pt x="202" y="828" on="1"/>
        <pt x="220" y="928" on="0"/>
        <pt x="260" y="1138" on="0"/>
        <pt x="283" y="1249" on="1"/>
      </contour>
    </TTGlyph>
    <TTGlyph name="Eacute" xMin="98" yMin="13" xMax="963" yMax="1903">
      <component glyphName="E" x="0" y="0" flags="0x1004"/>
      <component glyphName="acute" x="32" y="467" flags="0x1004"/>
    </TTGlyph>
    <TTGlyph name="Ecircumflex" xMin="98" yMin="13" xMax="949" yMax="1879">
      <component glyphName="E" x="0" y="0" flags="0x1004"/>
      <component glyphName="circumflex" x="32" y="467" flags="0x1004"/>
    </TTGlyph>
    <TTGlyph name="Edieresis" xMin="98" yMin="13" xMax="982" yMax="1843">
      <component glyphName="E" x="0" y="0" flags="0x1004"/>
      <component glyphName="dieresis" x="32" y="467" flags="0x1004"/>
    </TTGlyph>
    <TTGlyph name="Egrave" xMin="98" yMin="13" xMax="949" yMax="1903">
      <component glyphName="E" x="0" y="0" flags="0x1004"/>
      <component glyphName="grave" x="32" y="467" flags="0x1004"/>
    </TTGlyph>
    <TTGlyph name="Eth" xMin="-18" yMin="-22" xMax="993" yMax="1428">
      <contour>
        <pt x="173" y="663" on="1"/>
        <pt x="91" y="661" on="1"/>
        <pt x="67" y="661" on="0"/>
        <pt x="51" y="677" on="0"/>
        <pt x="51" y="699" on="1"/>
        <pt x="51" y="723" on="0"/>
        <pt x="78" y="753" on="0"/>
        <pt x="119" y="767" on="1"/>
        <pt x="199" y="792" on="1"/>
        <pt x="237" y="1041" on="0"/>
        <pt x="310" y="1168" on="0"/>
        <pt x="381" y="1168" on="1"/>
        <pt x="402" y="1168" on="0"/>
        <pt x="422" y="1145" on="0"/>
        <pt x="422" y="1121" on="1"/>
        <pt x="422" y="1095" on="0"/>
        <pt x="395" y="971" on="1"/>
        <pt x="373" y="869" on="0"/>
        <pt x="361" y="802" on="1"/>
        <pt x="487" y="814" on="1"/>
        <pt x="492" y="814" on="0"/>
        <pt x="505" y="816" on="0"/>
        <pt x="507" y="816" on="1"/>
        <pt x="524" y="816" on="0"/>
        <pt x="537" y="797" on="0"/>
        <pt x="537" y="767" on="1"/>
        <pt x="537" y="738" on="0"/>
        <pt x="510" y="710" on="0"/>
        <pt x="475" y="703" on="1"/>
        <pt x="337" y="675" on="1"/>
        <pt x="304" y="516" on="0"/>
        <pt x="264" y="264" on="0"/>
        <pt x="264" y="218" on="1"/>
        <pt x="264" y="179" on="0"/>
        <pt x="288" y="145" on="0"/>
        <pt x="313" y="145" on="1"/>
        <pt x="364" y="145" on="0"/>
        <pt x="527" y="256" on="0"/>
        <pt x="600" y="343" on="1"/>
        <pt x="704" y="466" on="0"/>
        <pt x="822" y="800" on="0"/>
        <pt x="822" y="970" on="1"/>
        <pt x="822" y="1126" on="0"/>
        <pt x="713" y="1284" on="0"/>
        <pt x="604" y="1284" on="1"/>
        <pt x="536" y="1284" on="0"/>
        <pt x="349" y="1224" on="0"/>
        <pt x="254" y="1170" on="1"/>
        <pt x="187" y="1131" on="0"/>
        <pt x="32" y="1019" on="0"/>
        <pt x="15" y="1019" on="1"/>
        <pt x="-2" y="1019" on="0"/>
        <pt x="-17" y="1037" on="0"/>
        <pt x="-17" y="1057" on="1"/>
        <pt x="-17" y="1142" on="0"/>
        <pt x="168" y="1257" on="1"/>
        <pt x="179" y="1263" on="1"/>
        <pt x="315" y="1346" on="0"/>
        <pt x="563" y="1427" on="0"/>
        <pt x="674" y="1427" on="1"/>
        <pt x="825" y="1427" on="0"/>
        <pt x="992" y="1208" on="0"/>
        <pt x="992" y="1008" on="1"/>
        <pt x="992" y="791" on="0"/>
        <pt x="790" y="350" on="0"/>
        <pt x="614" y="188" on="1"/>
        <pt x="514" y="95" on="0"/>
        <pt x="302" y="-21" on="0"/>
        <pt x="244" y="-21" on="1"/>
        <pt x="193" y="-21" on="0"/>
        <pt x="106" y="79" on="0"/>
        <pt x="106" y="139" on="1"/>
        <pt x="106" y="195" on="0"/>
        <pt x="135" y="424" on="0"/>
      </contour>
    </TTGlyph>
    <TTGlyph name="F" xMin="143" yMin="31" xMax="992" yMax="1459">
      <contour>
        <pt x="175" y="1231" on="1"/>
        <pt x="207" y="1361" on="1"/>
        <pt x="336" y="1369" on="1"/>
        <pt x="349" y="1454" on="1"/>
        <pt x="486" y="1458" on="1"/>
        <pt x="478" y="1373" on="1"/>
        <pt x="496" y="1374" on="0"/>
        <pt x="533" y="1376" on="1"/>
        <pt x="847" y="1390" on="0"/>
        <pt x="991" y="1407" on="1"/>
        <pt x="951" y="1284" on="1"/>
        <pt x="826" y="1278" on="0"/>
        <pt x="583" y="1261" on="0"/>
        <pt x="468" y="1252" on="1"/>
        <pt x="445" y="1138" on="0"/>
        <pt x="411" y="912" on="0"/>
        <pt x="398" y="797" on="1"/>
        <pt x="498" y="799" on="0"/>
        <pt x="720" y="807" on="0"/>
        <pt x="856" y="813" on="1"/>
        <pt x="828" y="706" on="1"/>
        <pt x="742" y="699" on="0"/>
        <pt x="533" y="686" on="0"/>
        <pt x="377" y="679" on="1"/>
        <pt x="374" y="659" on="0"/>
        <pt x="370" y="619" on="1"/>
        <pt x="339" y="333" on="0"/>
        <pt x="334" y="151" on="1"/>
        <pt x="332" y="118" on="0"/>
        <pt x="308" y="82" on="0"/>
        <pt x="283" y="72" on="1"/>
        <pt x="190" y="34" on="1"/>
        <pt x="188" y="33" on="0"/>
        <pt x="184" y="32" on="0"/>
        <pt x="180" y="32" on="1"/>
        <pt x="167" y="32" on="0"/>
        <pt x="154" y="56" on="0"/>
        <pt x="154" y="76" on="1"/>
        <pt x="154" y="124" on="0"/>
        <pt x="192" y="465" on="0"/>
        <pt x="224" y="669" on="1"/>
        <pt x="144" y="674" on="1"/>
        <pt x="152" y="748" on="1"/>
        <pt x="247" y="797" on="1"/>
        <pt x="274" y="977" on="0"/>
        <pt x="307" y="1170" on="0"/>
        <pt x="322" y="1246" on="1"/>
      </contour>
    </TTGlyph>
    <TTGlyph name="G" xMin="6" yMin="7" xMax="967" yMax="1399">
      <contour>
        <pt x="946" y="998" on="1"/>
        <pt x="812" y="979" on="1"/>
        <pt x="816" y="1027" on="0"/>
        <pt x="831" y="1163" on="0"/>
        <pt x="831" y="1172" on="1"/>
        <pt x="831" y="1216" on="0"/>
        <pt x="690" y="1292" on="0"/>
        <pt x="602" y="1292" on="1"/>
        <pt x="418" y="1292" on="0"/>
        <pt x="180" y="930" on="0"/>
        <pt x="180" y="648" on="1"/>
        <pt x="180" y="416" on="0"/>
        <pt x="339" y="135" on="0"/>
        <pt x="468" y="135" on="1"/>
        <pt x="589" y="135" on="0"/>
        <pt x="753" y="362" on="0"/>
        <pt x="804" y="602" on="1"/>
        <pt x="731" y="592" on="0"/>
        <pt x="584" y="559" on="0"/>
        <pt x="507" y="533" on="1"/>
        <pt x="523" y="665" on="1"/>
        <pt x="646" y="700" on="0"/>
        <pt x="841" y="735" on="0"/>
        <pt x="916" y="735" on="1"/>
        <pt x="936" y="735" on="0"/>
        <pt x="948" y="702" on="0"/>
        <pt x="948" y="640" on="1"/>
        <pt x="948" y="565" on="0"/>
        <pt x="869" y="323" on="0"/>
        <pt x="814" y="237" on="1"/>
        <pt x="743" y="124" on="0"/>
        <pt x="554" y="7" on="0"/>
        <pt x="445" y="7" on="1"/>
        <pt x="245" y="7" on="0"/>
        <pt x="7" y="343" on="0"/>
        <pt x="7" y="624" on="1"/>
        <pt x="7" y="959" on="0"/>
        <pt x="354" y="1399" on="0"/>
        <pt x="612" y="1399" on="1"/>
        <pt x="700" y="1399" on="0"/>
        <pt x="869" y="1344" on="0"/>
        <pt x="924" y="1299" on="1"/>
        <pt x="951" y="1276" on="0"/>
        <pt x="966" y="1243" on="0"/>
        <pt x="966" y="1207" on="1"/>
        <pt x="966" y="1163" on="0"/>
        <pt x="956" y="1056" on="0"/>
      </contour>
    </TTGlyph>
    <TTGlyph name="Gbreve" xMin="6" yMin="7" xMax="988" yMax="1886">
      <component glyphName="G" x="0" y="0" flags="0x1004"/>
      <component glyphName="breve" x="32" y="467" flags="0x1004"/>
    </TTGlyph>
    <TTGlyph name="H" xMin="38" yMin="-5" xMax="1002" yMax="1411">
      <contour>
        <pt x="692" y="695" on="1"/>
        <pt x="277" y="673" on="1"/>
        <pt x="258" y="470" on="0"/>
        <pt x="234" y="142" on="0"/>
        <pt x="234" y="106" on="1"/>
        <pt x="234" y="51" on="0"/>
        <pt x="184" y="-5" on="0"/>
        <pt x="134" y="-5" on="1"/>
        <pt x="101" y="-5" on="0"/>
        <pt x="69" y="34" on="0"/>
        <pt x="69" y="76" on="1"/>
        <pt x="69" y="121" on="0"/>
        <pt x="99" y="457" on="0"/>
        <pt x="124" y="663" on="1"/>
        <pt x="39" y="669" on="1"/>
        <pt x="47" y="743" on="1"/>
        <pt x="139" y="792" on="1"/>
        <pt x="158" y="934" on="0"/>
        <pt x="210" y="1215" on="0"/>
        <pt x="243" y="1358" on="1"/>
        <pt x="402" y="1379" on="1"/>
        <pt x="367" y="1238" on="0"/>
        <pt x="311" y="949" on="0"/>
        <pt x="289" y="798" on="1"/>
        <pt x="718" y="824" on="1"/>
        <pt x="746" y="1000" on="0"/>
        <pt x="799" y="1266" on="0"/>
        <pt x="829" y="1383" on="1"/>
        <pt x="1001" y="1411" on="1"/>
        <pt x="912" y="1104" on="0"/>
        <pt x="825" y="603" on="0"/>
        <pt x="825" y="400" on="1"/>
        <pt x="825" y="287" on="0"/>
        <pt x="840" y="167" on="1"/>
        <pt x="842" y="141" on="0"/>
        <pt x="842" y="135" on="1"/>
        <pt x="842" y="101" on="0"/>
        <pt x="767" y="29" on="0"/>
        <pt x="724" y="29" on="1"/>
        <pt x="688" y="29" on="0"/>
        <pt x="658" y="91" on="0"/>
        <pt x="658" y="167" on="1"/>
        <pt x="658" y="311" on="0"/>
        <pt x="674" y="567" on="0"/>
      </contour>
    </TTGlyph>
    <TTGlyph name="I" xMin="168" yMin="-18" xMax="831" yMax="1406">
      <contour>
        <pt x="324" y="127" on="1"/>
        <pt x="506" y="1233" on="1"/>
        <pt x="224" y="1191" on="1"/>
        <pt x="224" y="1191" on="0"/>
        <pt x="222" y="1191" on="1"/>
        <pt x="214" y="1189" on="0"/>
        <pt x="207" y="1189" on="1"/>
        <pt x="192" y="1189" on="0"/>
        <pt x="171" y="1207" on="0"/>
        <pt x="171" y="1221" on="1"/>
        <pt x="171" y="1225" on="0"/>
        <pt x="177" y="1237" on="0"/>
        <pt x="182" y="1245" on="1"/>
        <pt x="227" y="1302" on="1"/>
        <pt x="230" y="1307" on="0"/>
        <pt x="266" y="1325" on="0"/>
        <pt x="276" y="1326" on="1"/>
        <pt x="796" y="1405" on="1"/>
        <pt x="803" y="1405" on="1"/>
        <pt x="816" y="1405" on="0"/>
        <pt x="830" y="1386" on="0"/>
        <pt x="830" y="1369" on="1"/>
        <pt x="830" y="1359" on="0"/>
        <pt x="826" y="1343" on="0"/>
        <pt x="822" y="1339" on="1"/>
        <pt x="782" y="1294" on="1"/>
        <pt x="777" y="1291" on="0"/>
        <pt x="744" y="1274" on="0"/>
        <pt x="735" y="1272" on="1"/>
        <pt x="676" y="1263" on="1"/>
        <pt x="613" y="1046" on="0"/>
        <pt x="535" y="489" on="0"/>
        <pt x="521" y="157" on="1"/>
        <pt x="686" y="184" on="1"/>
        <pt x="695" y="184" on="1"/>
        <pt x="707" y="184" on="0"/>
        <pt x="720" y="167" on="0"/>
        <pt x="720" y="153" on="1"/>
        <pt x="720" y="144" on="0"/>
        <pt x="716" y="131" on="0"/>
        <pt x="714" y="128" on="1"/>
        <pt x="663" y="69" on="1"/>
        <pt x="660" y="66" on="0"/>
        <pt x="621" y="46" on="0"/>
        <pt x="612" y="44" on="1"/>
        <pt x="215" y="-17" on="1"/>
        <pt x="207" y="-17" on="1"/>
        <pt x="190" y="-17" on="0"/>
        <pt x="169" y="1" on="0"/>
        <pt x="169" y="14" on="1"/>
        <pt x="169" y="21" on="0"/>
        <pt x="173" y="32" on="0"/>
        <pt x="177" y="36" on="1"/>
        <pt x="221" y="85" on="1"/>
        <pt x="232" y="98" on="0"/>
        <pt x="256" y="114" on="0"/>
        <pt x="266" y="116" on="1"/>
      </contour>
    </TTGlyph>
    <TTGlyph name="Iacute" xMin="168" yMin="-18" xMax="963" yMax="1903">
      <component glyphName="I" x="0" y="0" flags="0x1004"/>
      <component glyphName="acute" x="32" y="467" flags="0x1004"/>
    </TTGlyph>
    <TTGlyph name="Icircumflex" xMin="168" yMin="-18" xMax="948" yMax="1879">
      <component glyphName="I" x="0" y="0" flags="0x1004"/>
      <component glyphName="circumflex" x="32" y="467" flags="0x1004"/>
    </TTGlyph>
    <TTGlyph name="Idieresis" xMin="168" yMin="-18" xMax="982" yMax="1843">
      <component glyphName="I" x="0" y="0" flags="0x1004"/>
      <component glyphName="dieresis" x="32" y="467" flags="0x1004"/>
    </TTGlyph>
    <TTGlyph name="Idotaccent" xMin="168" yMin="-18" xMax="831" yMax="1865">
      <component glyphName="I" x="0" y="0" flags="0x1004"/>
      <component glyphName="dotaccent" x="32" y="467" flags="0x1004"/>
    </TTGlyph>
    <TTGlyph name="Igrave" xMin="168" yMin="-18" xMax="831" yMax="1903">
      <component glyphName="I" x="0" y="0" flags="0x1004"/>
      <component glyphName="grave" x="32" y="467" flags="0x1004"/>
    </TTGlyph>
    <TTGlyph name="J" xMin="-109" yMin="-18" xMax="857" yMax="1428">
      <contour>
        <pt x="280" y="1229" on="1"/>
        <pt x="305" y="1350" on="1"/>
        <pt x="400" y="1376" on="0"/>
        <pt x="769" y="1407" on="0"/>
        <pt x="856" y="1427" on="1"/>
        <pt x="854" y="1336" on="1"/>
        <pt x="737" y="1288" on="1"/>
        <pt x="686" y="1044" on="0"/>
        <pt x="624" y="336" on="0"/>
        <pt x="582" y="243" on="1"/>
        <pt x="529" y="123" on="0"/>
        <pt x="256" y="-17" on="0"/>
        <pt x="76" y="-17" on="1"/>
        <pt x="29" y="-17" on="0"/>
        <pt x="-63" y="-5" on="0"/>
        <pt x="-108" y="7" on="1"/>
        <pt x="-23" y="161" on="1"/>
        <pt x="48" y="152" on="0"/>
        <pt x="177" y="143" on="0"/>
        <pt x="237" y="143" on="1"/>
        <pt x="357" y="143" on="0"/>
        <pt x="452" y="219" on="0"/>
        <pt x="472" y="345" on="1"/>
        <pt x="479" y="384" on="0"/>
        <pt x="530" y="1003" on="0"/>
        <pt x="570" y="1275" on="1"/>
        <pt x="493" y="1273" on="0"/>
        <pt x="350" y="1250" on="0"/>
      </contour>
    </TTGlyph>
    <TTGlyph name="K" xMin="53" yMin="3" xMax="1047" yMax="1389">
      <contour>
        <pt x="246" y="1360" on="1"/>
        <pt x="403" y="1388" on="1"/>
        <pt x="362" y="1202" on="0"/>
        <pt x="310" y="936" on="0"/>
        <pt x="294" y="831" on="1"/>
        <pt x="314" y="831" on="1"/>
        <pt x="501" y="982" on="0"/>
        <pt x="771" y="1249" on="1"/>
        <pt x="848" y="1324" on="0"/>
        <pt x="883" y="1358" on="1"/>
        <pt x="1047" y="1369" on="1"/>
        <pt x="832" y="1139" on="0"/>
        <pt x="421" y="780" on="1"/>
        <pt x="396" y="758" on="1"/>
        <pt x="508" y="579" on="0"/>
        <pt x="712" y="303" on="0"/>
        <pt x="808" y="205" on="1"/>
        <pt x="840" y="171" on="0"/>
        <pt x="891" y="127" on="1"/>
        <pt x="950" y="76" on="0"/>
        <pt x="950" y="52" on="1"/>
        <pt x="950" y="39" on="0"/>
        <pt x="932" y="22" on="0"/>
        <pt x="916" y="19" on="1"/>
        <pt x="826" y="4" on="1"/>
        <pt x="818" y="4" on="1"/>
        <pt x="762" y="4" on="0"/>
        <pt x="543" y="278" on="0"/>
        <pt x="298" y="661" on="1"/>
        <pt x="278" y="661" on="1"/>
        <pt x="252" y="491" on="0"/>
        <pt x="244" y="274" on="1"/>
        <pt x="236" y="85" on="0"/>
        <pt x="183" y="64" on="1"/>
        <pt x="92" y="25" on="1"/>
        <pt x="89" y="24" on="0"/>
        <pt x="84" y="23" on="0"/>
        <pt x="80" y="23" on="1"/>
        <pt x="69" y="23" on="0"/>
        <pt x="53" y="49" on="0"/>
        <pt x="53" y="70" on="1"/>
        <pt x="53" y="195" on="0"/>
        <pt x="159" y="942" on="0"/>
      </contour>
    </TTGlyph>
    <TTGlyph name="L" xMin="136" yMin="23" xMax="938" yMax="1401">
      <contour>
        <pt x="136" y="24" on="1"/>
        <pt x="153" y="96" on="1"/>
        <pt x="228" y="145" on="1"/>
        <pt x="285" y="573" on="0"/>
        <pt x="355" y="1127" on="0"/>
        <pt x="378" y="1352" on="1"/>
        <pt x="528" y="1400" on="1"/>
        <pt x="564" y="1374" on="1"/>
        <pt x="500" y="1074" on="0"/>
        <pt x="422" y="469" on="0"/>
        <pt x="410" y="167" on="1"/>
        <pt x="444" y="163" on="0"/>
        <pt x="502" y="160" on="0"/>
        <pt x="526" y="160" on="1"/>
        <pt x="616" y="160" on="0"/>
        <pt x="810" y="175" on="0"/>
        <pt x="914" y="189" on="1"/>
        <pt x="938" y="145" on="1"/>
        <pt x="889" y="54" on="1"/>
        <pt x="888" y="53" on="0"/>
        <pt x="887" y="51" on="1"/>
        <pt x="876" y="29" on="0"/>
        <pt x="835" y="29" on="1"/>
        <pt x="819" y="29" on="0"/>
        <pt x="646" y="33" on="0"/>
        <pt x="574" y="33" on="1"/>
        <pt x="490" y="33" on="0"/>
        <pt x="279" y="28" on="0"/>
      </contour>
    </TTGlyph>
    <TTGlyph name="Lslash" xMin="39" yMin="23" xMax="940" yMax="1401">
      <contour>
        <pt x="307" y="747" on="1"/>
        <pt x="328" y="895" on="0"/>
        <pt x="363" y="1195" on="0"/>
        <pt x="379" y="1352" on="1"/>
        <pt x="529" y="1400" on="1"/>
        <pt x="566" y="1374" on="1"/>
        <pt x="539" y="1250" on="0"/>
        <pt x="494" y="990" on="0"/>
        <pt x="477" y="856" on="1"/>
        <pt x="537" y="892" on="0"/>
        <pt x="619" y="947" on="1"/>
        <pt x="702" y="1002" on="0"/>
        <pt x="713" y="1002" on="1"/>
        <pt x="732" y="1002" on="0"/>
        <pt x="757" y="974" on="0"/>
        <pt x="757" y="951" on="1"/>
        <pt x="757" y="903" on="0"/>
        <pt x="544" y="765" on="1"/>
        <pt x="487" y="729" on="0"/>
        <pt x="456" y="707" on="1"/>
        <pt x="443" y="632" on="0"/>
        <pt x="425" y="415" on="0"/>
        <pt x="411" y="167" on="1"/>
        <pt x="446" y="163" on="0"/>
        <pt x="503" y="160" on="0"/>
        <pt x="527" y="160" on="1"/>
        <pt x="617" y="160" on="0"/>
        <pt x="812" y="175" on="0"/>
        <pt x="915" y="189" on="1"/>
        <pt x="939" y="145" on="1"/>
        <pt x="891" y="54" on="1"/>
        <pt x="890" y="53" on="0"/>
        <pt x="888" y="51" on="1"/>
        <pt x="878" y="29" on="0"/>
        <pt x="837" y="29" on="1"/>
        <pt x="820" y="29" on="0"/>
        <pt x="647" y="33" on="0"/>
        <pt x="576" y="33" on="1"/>
        <pt x="492" y="33" on="0"/>
        <pt x="281" y="28" on="0"/>
        <pt x="138" y="24" on="1"/>
        <pt x="155" y="96" on="1"/>
        <pt x="229" y="145" on="1"/>
        <pt x="243" y="245" on="1"/>
        <pt x="278" y="499" on="0"/>
        <pt x="290" y="595" on="1"/>
        <pt x="245" y="566" on="0"/>
        <pt x="115" y="468" on="0"/>
        <pt x="96" y="468" on="1"/>
        <pt x="76" y="468" on="0"/>
        <pt x="40" y="515" on="0"/>
        <pt x="40" y="539" on="1"/>
        <pt x="40" y="570" on="0"/>
        <pt x="152" y="641" on="1"/>
        <pt x="247" y="702" on="0"/>
      </contour>
    </TTGlyph>
    <TTGlyph name="M" xMin="-38" yMin="-8" xMax="989" yMax="1428">
      <contour>
        <pt x="218" y="1105" on="1"/>
        <pt x="147" y="546" on="1"/>
        <pt x="138" y="481" on="0"/>
        <pt x="127" y="263" on="0"/>
        <pt x="127" y="128" on="1"/>
        <pt x="127" y="110" on="1"/>
        <pt x="127" y="84" on="0"/>
        <pt x="118" y="63" on="0"/>
        <pt x="103" y="54" on="1"/>
        <pt x="-2" y="-3" on="1"/>
        <pt x="-2" y="-3" on="0"/>
        <pt x="-11" y="-7" on="0"/>
        <pt x="-17" y="-7" on="1"/>
        <pt x="-31" y="-7" on="0"/>
        <pt x="-37" y="2" on="0"/>
        <pt x="-37" y="17" on="1"/>
        <pt x="-37" y="33" on="0"/>
        <pt x="-25" y="129" on="0"/>
        <pt x="-15" y="193" on="1"/>
        <pt x="166" y="1286" on="1"/>
        <pt x="164" y="1296" on="0"/>
        <pt x="161" y="1313" on="1"/>
        <pt x="157" y="1340" on="0"/>
        <pt x="157" y="1348" on="1"/>
        <pt x="157" y="1354" on="0"/>
        <pt x="169" y="1367" on="0"/>
        <pt x="176" y="1370" on="1"/>
        <pt x="289" y="1411" on="1"/>
        <pt x="293" y="1413" on="0"/>
        <pt x="303" y="1415" on="0"/>
        <pt x="311" y="1415" on="1"/>
        <pt x="322" y="1415" on="0"/>
        <pt x="332" y="1403" on="0"/>
        <pt x="333" y="1392" on="1"/>
        <pt x="333" y="1390" on="0"/>
        <pt x="332" y="1384" on="1"/>
        <pt x="325" y="1345" on="0"/>
        <pt x="325" y="1297" on="1"/>
        <pt x="325" y="1156" on="0"/>
        <pt x="400" y="633" on="0"/>
        <pt x="467" y="355" on="1"/>
        <pt x="595" y="687" on="0"/>
        <pt x="743" y="1110" on="0"/>
        <pt x="791" y="1277" on="1"/>
        <pt x="795" y="1355" on="0"/>
        <pt x="833" y="1371" on="1"/>
        <pt x="838" y="1373" on="0"/>
        <pt x="841" y="1374" on="1"/>
        <pt x="967" y="1427" on="1"/>
        <pt x="975" y="1427" on="1"/>
        <pt x="981" y="1427" on="0"/>
        <pt x="988" y="1420" on="0"/>
        <pt x="988" y="1413" on="1"/>
        <pt x="986" y="1392" on="1"/>
        <pt x="984" y="1379" on="0"/>
        <pt x="962" y="1352" on="0"/>
        <pt x="944" y="1338" on="1"/>
        <pt x="924" y="1130" on="0"/>
        <pt x="906" y="708" on="0"/>
        <pt x="906" y="493" on="1"/>
        <pt x="906" y="256" on="0"/>
        <pt x="932" y="92" on="1"/>
        <pt x="936" y="76" on="0"/>
        <pt x="936" y="73" on="1"/>
        <pt x="936" y="55" on="0"/>
        <pt x="915" y="37" on="0"/>
        <pt x="888" y="31" on="1"/>
        <pt x="825" y="19" on="1"/>
        <pt x="804" y="19" on="1"/>
        <pt x="774" y="19" on="0"/>
        <pt x="754" y="120" on="0"/>
        <pt x="754" y="286" on="1"/>
        <pt x="754" y="410" on="0"/>
        <pt x="773" y="762" on="0"/>
        <pt x="791" y="998" on="1"/>
        <pt x="716" y="768" on="0"/>
        <pt x="570" y="373" on="0"/>
        <pt x="519" y="258" on="1"/>
        <pt x="495" y="205" on="1"/>
        <pt x="484" y="183" on="0"/>
        <pt x="443" y="158" on="0"/>
        <pt x="420" y="158" on="1"/>
        <pt x="376" y="158" on="0"/>
        <pt x="265" y="672" on="0"/>
      </contour>
    </TTGlyph>
    <TTGlyph name="N" xMin="1" yMin="28" xMax="1004" yMax="1415">
      <contour>
        <pt x="130" y="1334" on="1"/>
        <pt x="313" y="1414" on="1"/>
        <pt x="344" y="1135" on="0"/>
        <pt x="541" y="573" on="0"/>
        <pt x="716" y="270" on="1"/>
        <pt x="729" y="279" on="1"/>
        <pt x="730" y="458" on="0"/>
        <pt x="793" y="975" on="0"/>
        <pt x="860" y="1347" on="1"/>
        <pt x="1004" y="1392" on="1"/>
        <pt x="926" y="1028" on="0"/>
        <pt x="848" y="409" on="0"/>
        <pt x="848" y="170" on="1"/>
        <pt x="848" y="116" on="1"/>
        <pt x="816" y="87" on="0"/>
        <pt x="739" y="49" on="0"/>
        <pt x="690" y="39" on="1"/>
        <pt x="532" y="281" on="0"/>
        <pt x="322" y="719" on="0"/>
        <pt x="264" y="929" on="1"/>
        <pt x="249" y="931" on="1"/>
        <pt x="246" y="910" on="1"/>
        <pt x="182" y="484" on="0"/>
        <pt x="148" y="136" on="1"/>
        <pt x="141" y="72" on="0"/>
        <pt x="135" y="62" on="0"/>
        <pt x="107" y="53" on="1"/>
        <pt x="31" y="33" on="1"/>
        <pt x="10" y="29" on="1"/>
        <pt x="5" y="29" on="0"/>
        <pt x="1" y="42" on="0"/>
        <pt x="1" y="58" on="1"/>
        <pt x="1" y="74" on="0"/>
        <pt x="20" y="184" on="1"/>
        <pt x="104" y="692" on="0"/>
        <pt x="146" y="1198" on="1"/>
        <pt x="137" y="1226" on="0"/>
        <pt x="128" y="1277" on="0"/>
        <pt x="128" y="1301" on="1"/>
        <pt x="128" y="1314" on="0"/>
        <pt x="129" y="1329" on="0"/>
      </contour>
    </TTGlyph>
    <TTGlyph name="Ntilde" xMin="1" yMin="28" xMax="1004" yMax="1834">
      <component glyphName="N" x="0" y="0" flags="0x1004"/>
      <component glyphName="tilde" x="32" y="467" flags="0x1004"/>
    </TTGlyph>
    <TTGlyph name="O" xMin="40" yMin="-36" xMax="920" yMax="1475">
      <contour>
        <pt x="606" y="1475" on="1"/>
        <pt x="748" y="1475" on="0"/>
        <pt x="920" y="1212" on="0"/>
        <pt x="920" y="989" on="1"/>
        <pt x="920" y="792" on="0"/>
        <pt x="807" y="375" on="0"/>
        <pt x="715" y="225" on="1"/>
        <pt x="638" y="102" on="0"/>
        <pt x="455" y="-36" on="0"/>
        <pt x="367" y="-36" on="1"/>
        <pt x="219" y="-36" on="0"/>
        <pt x="40" y="272" on="0"/>
        <pt x="40" y="531" on="1"/>
        <pt x="40" y="695" on="0"/>
        <pt x="130" y="1006" on="0"/>
        <pt x="214" y="1131" on="1"/>
        <pt x="252" y="1189" on="0"/>
        <pt x="308" y="1234" on="0"/>
        <pt x="337" y="1234" on="1"/>
        <pt x="367" y="1234" on="0"/>
        <pt x="441" y="1185" on="0"/>
        <pt x="441" y="1165" on="1"/>
        <pt x="441" y="1138" on="0"/>
        <pt x="409" y="1110" on="1"/>
        <pt x="395" y="1098" on="0"/>
        <pt x="388" y="1091" on="1"/>
        <pt x="314" y="1011" on="0"/>
        <pt x="220" y="730" on="0"/>
        <pt x="220" y="577" on="1"/>
        <pt x="220" y="349" on="0"/>
        <pt x="323" y="114" on="0"/>
        <pt x="420" y="114" on="1"/>
        <pt x="472" y="114" on="0"/>
        <pt x="571" y="194" on="0"/>
        <pt x="621" y="276" on="1"/>
        <pt x="695" y="399" on="0"/>
        <pt x="774" y="716" on="0"/>
        <pt x="774" y="889" on="1"/>
        <pt x="774" y="1076" on="0"/>
        <pt x="696" y="1289" on="0"/>
        <pt x="630" y="1289" on="1"/>
        <pt x="611" y="1289" on="0"/>
        <pt x="543" y="1254" on="0"/>
        <pt x="517" y="1254" on="1"/>
        <pt x="470" y="1254" on="0"/>
        <pt x="414" y="1294" on="0"/>
        <pt x="414" y="1328" on="1"/>
        <pt x="414" y="1380" on="0"/>
        <pt x="529" y="1475" on="0"/>
      </contour>
    </TTGlyph>
    <TTGlyph name="OE" xMin="-69" yMin="-10" xMax="987" yMax="1414">
      <contour>
        <pt x="446" y="65" on="1"/>
        <pt x="401" y="28" on="0"/>
        <pt x="305" y="-9" on="0"/>
        <pt x="253" y="-9" on="1"/>
        <pt x="103" y="-9" on="0"/>
        <pt x="-69" y="270" on="0"/>
        <pt x="-69" y="517" on="1"/>
        <pt x="-69" y="669" on="0"/>
        <pt x="-8" y="939" on="0"/>
        <pt x="54" y="1057" on="1"/>
        <pt x="110" y="1162" on="0"/>
        <pt x="184" y="1245" on="0"/>
        <pt x="219" y="1245" on="1"/>
        <pt x="243" y="1245" on="0"/>
        <pt x="317" y="1195" on="0"/>
        <pt x="317" y="1178" on="1"/>
        <pt x="317" y="1168" on="0"/>
        <pt x="247" y="1076" on="0"/>
        <pt x="221" y="1036" on="1"/>
        <pt x="156" y="931" on="0"/>
        <pt x="92" y="695" on="0"/>
        <pt x="92" y="555" on="1"/>
        <pt x="92" y="349" on="0"/>
        <pt x="196" y="120" on="0"/>
        <pt x="289" y="120" on="1"/>
        <pt x="338" y="120" on="0"/>
        <pt x="381" y="186" on="0"/>
        <pt x="399" y="321" on="1"/>
        <pt x="431" y="554" on="0"/>
        <pt x="529" y="1167" on="0"/>
        <pt x="535" y="1238" on="1"/>
        <pt x="520" y="1261" on="1"/>
        <pt x="495" y="1257" on="0"/>
        <pt x="419" y="1201" on="0"/>
        <pt x="393" y="1201" on="1"/>
        <pt x="359" y="1201" on="0"/>
        <pt x="314" y="1238" on="0"/>
        <pt x="314" y="1267" on="1"/>
        <pt x="314" y="1325" on="0"/>
        <pt x="414" y="1413" on="0"/>
        <pt x="484" y="1413" on="1"/>
        <pt x="528" y="1413" on="0"/>
        <pt x="628" y="1381" on="1"/>
        <pt x="648" y="1375" on="0"/>
        <pt x="661" y="1371" on="1"/>
        <pt x="689" y="1372" on="0"/>
        <pt x="743" y="1375" on="1"/>
        <pt x="933" y="1382" on="0"/>
        <pt x="987" y="1385" on="1"/>
        <pt x="969" y="1277" on="1"/>
        <pt x="894" y="1268" on="0"/>
        <pt x="759" y="1257" on="0"/>
        <pt x="696" y="1254" on="1"/>
        <pt x="679" y="1163" on="0"/>
        <pt x="644" y="949" on="0"/>
        <pt x="627" y="826" on="1"/>
        <pt x="707" y="826" on="0"/>
        <pt x="870" y="829" on="0"/>
        <pt x="953" y="832" on="1"/>
        <pt x="929" y="727" on="1"/>
        <pt x="871" y="724" on="0"/>
        <pt x="737" y="718" on="0"/>
        <pt x="603" y="709" on="1"/>
        <pt x="570" y="500" on="0"/>
        <pt x="548" y="319" on="0"/>
        <pt x="548" y="272" on="1"/>
        <pt x="548" y="212" on="0"/>
        <pt x="620" y="152" on="0"/>
        <pt x="692" y="152" on="1"/>
        <pt x="747" y="152" on="0"/>
        <pt x="889" y="166" on="0"/>
        <pt x="973" y="179" on="1"/>
        <pt x="963" y="76" on="1"/>
        <pt x="850" y="45" on="0"/>
        <pt x="675" y="14" on="0"/>
        <pt x="609" y="14" on="1"/>
        <pt x="552" y="14" on="0"/>
        <pt x="478" y="38" on="0"/>
      </contour>
    </TTGlyph>
    <TTGlyph name="Oacute" xMin="40" yMin="-36" xMax="963" yMax="1903">
      <component glyphName="O" x="0" y="0" flags="0x1004"/>
      <component glyphName="acute" x="32" y="467" flags="0x1004"/>
    </TTGlyph>
    <TTGlyph name="Ocircumflex" xMin="40" yMin="-36" xMax="948" yMax="1879">
      <component glyphName="O" x="0" y="0" flags="0x1004"/>
      <component glyphName="circumflex" x="32" y="467" flags="0x1004"/>
    </TTGlyph>
    <TTGlyph name="Odieresis" xMin="40" yMin="-36" xMax="982" yMax="1843">
      <component glyphName="O" x="0" y="0" flags="0x1004"/>
      <component glyphName="dieresis" x="32" y="467" flags="0x1004"/>
    </TTGlyph>
    <TTGlyph name="Ograve" xMin="40" yMin="-36" xMax="920" yMax="1903">
      <component glyphName="O" x="0" y="0" flags="0x1004"/>
      <component glyphName="grave" x="32" y="467" flags="0x1004"/>
    </TTGlyph>
    <TTGlyph name="Omega" xMin="66" yMin="35" xMax="958" yMax="1492">
      <contour>
        <pt x="67" y="35" on="1"/>
        <pt x="67" y="171" on="1"/>
        <pt x="287" y="171" on="1"/>
        <pt x="176" y="258" on="0"/>
        <pt x="67" y="554" on="0"/>
        <pt x="67" y="773" on="1"/>
        <pt x="67" y="1114" on="0"/>
        <pt x="301" y="1492" on="0"/>
        <pt x="512" y="1492" on="1"/>
        <pt x="723" y="1492" on="0"/>
        <pt x="957" y="1114" on="0"/>
        <pt x="957" y="773" on="1"/>
        <pt x="957" y="554" on="0"/>
        <pt x="848" y="258" on="0"/>
        <pt x="737" y="171" on="1"/>
        <pt x="957" y="171" on="1"/>
        <pt x="957" y="35" on="1"/>
        <pt x="591" y="35" on="1"/>
        <pt x="591" y="171" on="1"/>
        <pt x="695" y="232" on="0"/>
        <pt x="789" y="500" on="0"/>
        <pt x="789" y="745" on="1"/>
        <pt x="789" y="1048" on="0"/>
        <pt x="651" y="1352" on="0"/>
        <pt x="512" y="1352" on="1"/>
        <pt x="370" y="1352" on="0"/>
        <pt x="235" y="1042" on="0"/>
        <pt x="235" y="717" on="1"/>
        <pt x="235" y="494" on="0"/>
        <pt x="331" y="228" on="0"/>
        <pt x="433" y="171" on="1"/>
        <pt x="433" y="35" on="1"/>
      </contour>
    </TTGlyph>
    <TTGlyph name="Oslash" xMin="40" yMin="-228" xMax="920" yMax="1634">
      <contour>
        <pt x="736" y="1190" on="1"/>
        <pt x="343" y="137" on="1"/>
        <pt x="369" y="124" on="0"/>
        <pt x="404" y="114" on="0"/>
        <pt x="420" y="114" on="1"/>
        <pt x="471" y="114" on="0"/>
        <pt x="572" y="196" on="0"/>
        <pt x="621" y="277" on="1"/>
        <pt x="695" y="401" on="0"/>
        <pt x="776" y="722" on="0"/>
        <pt x="776" y="893" on="1"/>
        <pt x="776" y="961" on="0"/>
        <pt x="756" y="1107" on="0"/>
      </contour>
      <contour>
        <pt x="659" y="1282" on="1"/>
        <pt x="657" y="1283" on="0"/>
        <pt x="655" y="1284" on="1"/>
        <pt x="639" y="1290" on="0"/>
        <pt x="630" y="1290" on="1"/>
        <pt x="611" y="1290" on="0"/>
        <pt x="543" y="1255" on="0"/>
        <pt x="517" y="1255" on="1"/>
        <pt x="470" y="1255" on="0"/>
        <pt x="414" y="1295" on="0"/>
        <pt x="414" y="1328" on="1"/>
        <pt x="414" y="1381" on="0"/>
        <pt x="529" y="1475" on="0"/>
        <pt x="606" y="1475" on="1"/>
        <pt x="635" y="1475" on="0"/>
        <pt x="692" y="1462" on="0"/>
        <pt x="723" y="1449" on="1"/>
        <pt x="762" y="1562" on="1"/>
        <pt x="774" y="1599" on="0"/>
        <pt x="798" y="1633" on="0"/>
        <pt x="810" y="1633" on="1"/>
        <pt x="814" y="1633" on="1"/>
        <pt x="859" y="1623" on="1"/>
        <pt x="867" y="1621" on="0"/>
        <pt x="877" y="1600" on="0"/>
        <pt x="877" y="1585" on="1"/>
        <pt x="877" y="1580" on="0"/>
        <pt x="871" y="1558" on="0"/>
        <pt x="865" y="1538" on="1"/>
        <pt x="806" y="1381" on="1"/>
        <pt x="864" y="1314" on="0"/>
        <pt x="920" y="1122" on="0"/>
        <pt x="920" y="992" on="1"/>
        <pt x="920" y="794" on="0"/>
        <pt x="807" y="376" on="0"/>
        <pt x="715" y="226" on="1"/>
        <pt x="638" y="102" on="0"/>
        <pt x="458" y="-33" on="0"/>
        <pt x="371" y="-33" on="1"/>
        <pt x="351" y="-33" on="0"/>
        <pt x="306" y="-26" on="0"/>
        <pt x="284" y="-19" on="1"/>
        <pt x="238" y="-155" on="1"/>
        <pt x="224" y="-193" on="0"/>
        <pt x="202" y="-227" on="0"/>
        <pt x="189" y="-227" on="1"/>
        <pt x="185" y="-227" on="1"/>
        <pt x="141" y="-217" on="1"/>
        <pt x="132" y="-213" on="0"/>
        <pt x="122" y="-196" on="0"/>
        <pt x="121" y="-183" on="1"/>
        <pt x="121" y="-174" on="0"/>
        <pt x="127" y="-151" on="0"/>
        <pt x="133" y="-134" on="1"/>
        <pt x="200" y="31" on="1"/>
        <pt x="120" y="101" on="0"/>
        <pt x="40" y="344" on="0"/>
        <pt x="40" y="517" on="1"/>
        <pt x="40" y="693" on="0"/>
        <pt x="129" y="1006" on="0"/>
        <pt x="214" y="1131" on="1"/>
        <pt x="252" y="1189" on="0"/>
        <pt x="308" y="1235" on="0"/>
        <pt x="337" y="1235" on="1"/>
        <pt x="367" y="1235" on="0"/>
        <pt x="441" y="1185" on="0"/>
        <pt x="441" y="1166" on="1"/>
        <pt x="441" y="1139" on="0"/>
        <pt x="409" y="1111" on="1"/>
        <pt x="395" y="1098" on="0"/>
        <pt x="388" y="1091" on="1"/>
        <pt x="314" y="1011" on="0"/>
        <pt x="216" y="716" on="0"/>
        <pt x="216" y="561" on="1"/>
        <pt x="216" y="464" on="0"/>
        <pt x="244" y="298" on="0"/>
        <pt x="272" y="228" on="1"/>
      </contour>
    </TTGlyph>
    <TTGlyph name="Otilde" xMin="40" yMin="-36" xMax="967" yMax="1834">
      <component glyphName="O" x="0" y="0" flags="0x1004"/>
      <component glyphName="tilde" x="32" y="467" flags="0x1004"/>
    </TTGlyph>
    <TTGlyph name="P" xMin="126" yMin="32" xMax="1000" yMax="1407">
      <contour>
        <pt x="126" y="1175" on="1"/>
        <pt x="126" y="1266" on="1"/>
        <pt x="265" y="1335" on="0"/>
        <pt x="547" y="1406" on="0"/>
        <pt x="678" y="1406" on="1"/>
        <pt x="841" y="1406" on="0"/>
        <pt x="1000" y="1271" on="0"/>
        <pt x="1000" y="1131" on="1"/>
        <pt x="1000" y="935" on="0"/>
        <pt x="647" y="618" on="0"/>
        <pt x="353" y="554" on="1"/>
        <pt x="333" y="422" on="0"/>
        <pt x="329" y="252" on="1"/>
        <pt x="325" y="92" on="0"/>
        <pt x="273" y="71" on="1"/>
        <pt x="184" y="35" on="1"/>
        <pt x="182" y="34" on="0"/>
        <pt x="178" y="33" on="0"/>
        <pt x="173" y="33" on="1"/>
        <pt x="163" y="33" on="0"/>
        <pt x="152" y="50" on="0"/>
        <pt x="152" y="67" on="1"/>
        <pt x="152" y="228" on="0"/>
        <pt x="230" y="859" on="0"/>
        <pt x="298" y="1223" on="1"/>
        <pt x="259" y="1217" on="0"/>
        <pt x="173" y="1192" on="0"/>
      </contour>
      <contour>
        <pt x="364" y="662" on="1"/>
        <pt x="588" y="713" on="0"/>
        <pt x="850" y="951" on="0"/>
        <pt x="850" y="1099" on="1"/>
        <pt x="850" y="1189" on="0"/>
        <pt x="744" y="1291" on="0"/>
        <pt x="652" y="1291" on="1"/>
        <pt x="618" y="1291" on="0"/>
        <pt x="518" y="1278" on="0"/>
        <pt x="445" y="1262" on="1"/>
        <pt x="421" y="1141" on="0"/>
        <pt x="381" y="838" on="0"/>
      </contour>
    </TTGlyph>
    <TTGlyph name="Q" xMin="18" yMin="-365" xMax="1094" yMax="1397">
      <contour>
        <pt x="106" y="-134" on="1"/>
        <pt x="100" y="-66" on="1"/>
        <pt x="394" y="-20" on="0"/>
        <pt x="773" y="535" on="0"/>
        <pt x="773" y="918" on="1"/>
        <pt x="773" y="1086" on="0"/>
        <pt x="652" y="1272" on="0"/>
        <pt x="543" y="1272" on="1"/>
        <pt x="464" y="1272" on="0"/>
        <pt x="343" y="1171" on="0"/>
        <pt x="290" y="1061" on="1"/>
        <pt x="242" y="964" on="0"/>
        <pt x="189" y="730" on="0"/>
        <pt x="189" y="618" on="1"/>
        <pt x="189" y="507" on="0"/>
        <pt x="249" y="370" on="0"/>
        <pt x="320" y="315" on="1"/>
        <pt x="318" y="285" on="1"/>
        <pt x="227" y="239" on="1"/>
        <pt x="208" y="229" on="0"/>
        <pt x="191" y="222" on="0"/>
        <pt x="184" y="222" on="1"/>
        <pt x="129" y="222" on="0"/>
        <pt x="19" y="461" on="0"/>
        <pt x="19" y="616" on="1"/>
        <pt x="19" y="750" on="0"/>
        <pt x="93" y="1016" on="0"/>
        <pt x="161" y="1123" on="1"/>
        <pt x="241" y="1251" on="0"/>
        <pt x="467" y="1397" on="0"/>
        <pt x="583" y="1397" on="1"/>
        <pt x="755" y="1397" on="0"/>
        <pt x="945" y="1137" on="0"/>
        <pt x="945" y="902" on="1"/>
        <pt x="945" y="621" on="0"/>
        <pt x="658" y="108" on="0"/>
        <pt x="415" y="-45" on="1"/>
        <pt x="641" y="-100" on="0"/>
        <pt x="960" y="-207" on="0"/>
        <pt x="1093" y="-274" on="1"/>
        <pt x="999" y="-345" on="1"/>
        <pt x="987" y="-354" on="0"/>
        <pt x="957" y="-365" on="0"/>
        <pt x="943" y="-365" on="1"/>
        <pt x="927" y="-365" on="0"/>
        <pt x="845" y="-333" on="1"/>
        <pt x="490" y="-190" on="0"/>
      </contour>
    </TTGlyph>
    <TTGlyph name="R" xMin="64" yMin="20" xMax="962" yMax="1407">
      <contour>
        <pt x="65" y="1176" on="1"/>
        <pt x="65" y="1267" on="1"/>
        <pt x="203" y="1335" on="0"/>
        <pt x="485" y="1406" on="0"/>
        <pt x="615" y="1406" on="1"/>
        <pt x="780" y="1406" on="0"/>
        <pt x="938" y="1271" on="0"/>
        <pt x="938" y="1131" on="1"/>
        <pt x="938" y="979" on="0"/>
        <pt x="721" y="720" on="0"/>
        <pt x="516" y="628" on="1"/>
        <pt x="619" y="442" on="0"/>
        <pt x="844" y="172" on="0"/>
        <pt x="961" y="96" on="1"/>
        <pt x="953" y="59" on="0"/>
        <pt x="890" y="21" on="0"/>
        <pt x="836" y="21" on="1"/>
        <pt x="758" y="21" on="0"/>
        <pt x="541" y="279" on="0"/>
        <pt x="374" y="573" on="1"/>
        <pt x="292" y="555" on="1"/>
        <pt x="272" y="423" on="0"/>
        <pt x="267" y="251" on="1"/>
        <pt x="263" y="92" on="0"/>
        <pt x="211" y="71" on="1"/>
        <pt x="122" y="35" on="1"/>
        <pt x="120" y="34" on="0"/>
        <pt x="116" y="33" on="0"/>
        <pt x="111" y="33" on="1"/>
        <pt x="101" y="33" on="0"/>
        <pt x="88" y="52" on="0"/>
        <pt x="88" y="67" on="1"/>
        <pt x="88" y="229" on="0"/>
        <pt x="165" y="859" on="0"/>
        <pt x="234" y="1224" on="1"/>
        <pt x="195" y="1217" on="0"/>
        <pt x="113" y="1193" on="0"/>
      </contour>
      <contour>
        <pt x="300" y="662" on="1"/>
        <pt x="524" y="714" on="0"/>
        <pt x="787" y="952" on="0"/>
        <pt x="787" y="1099" on="1"/>
        <pt x="787" y="1189" on="0"/>
        <pt x="682" y="1292" on="0"/>
        <pt x="591" y="1292" on="1"/>
        <pt x="555" y="1292" on="0"/>
        <pt x="453" y="1277" on="0"/>
        <pt x="381" y="1263" on="1"/>
        <pt x="358" y="1141" on="0"/>
        <pt x="317" y="838" on="0"/>
      </contour>
    </TTGlyph>
    <TTGlyph name="S" xMin="-89" yMin="-5" xMax="900" yMax="1387">
      <contour>
        <pt x="836" y="928" on="1"/>
        <pt x="734" y="954" on="1"/>
        <pt x="751" y="1003" on="0"/>
        <pt x="768" y="1092" on="0"/>
        <pt x="768" y="1130" on="1"/>
        <pt x="768" y="1171" on="0"/>
        <pt x="600" y="1278" on="0"/>
        <pt x="516" y="1278" on="1"/>
        <pt x="418" y="1278" on="0"/>
        <pt x="289" y="1143" on="0"/>
        <pt x="289" y="1043" on="1"/>
        <pt x="289" y="885" on="0"/>
        <pt x="533" y="750" on="1"/>
        <pt x="587" y="720" on="0"/>
        <pt x="615" y="703" on="1"/>
        <pt x="748" y="626" on="0"/>
        <pt x="870" y="453" on="0"/>
        <pt x="870" y="345" on="1"/>
        <pt x="870" y="179" on="0"/>
        <pt x="628" y="-5" on="0"/>
        <pt x="406" y="-5" on="1"/>
        <pt x="258" y="-5" on="0"/>
        <pt x="9" y="77" on="0"/>
        <pt x="-89" y="157" on="1"/>
        <pt x="-25" y="265" on="1"/>
        <pt x="-18" y="275" on="0"/>
        <pt x="9" y="290" on="0"/>
        <pt x="22" y="290" on="1"/>
        <pt x="47" y="290" on="0"/>
        <pt x="378" y="106" on="0"/>
        <pt x="503" y="106" on="1"/>
        <pt x="603" y="106" on="0"/>
        <pt x="722" y="216" on="0"/>
        <pt x="722" y="307" on="1"/>
        <pt x="722" y="441" on="0"/>
        <pt x="480" y="571" on="1"/>
        <pt x="416" y="605" on="0"/>
        <pt x="382" y="625" on="1"/>
        <pt x="261" y="695" on="0"/>
        <pt x="145" y="868" on="0"/>
        <pt x="145" y="979" on="1"/>
        <pt x="145" y="1154" on="0"/>
        <pt x="377" y="1387" on="0"/>
        <pt x="552" y="1387" on="1"/>
        <pt x="678" y="1387" on="0"/>
        <pt x="900" y="1248" on="0"/>
        <pt x="900" y="1191" on="1"/>
        <pt x="900" y="1151" on="0"/>
        <pt x="865" y="1003" on="0"/>
      </contour>
    </TTGlyph>
    <TTGlyph name="Scaron" xMin="-89" yMin="-5" xMax="948" yMax="1883">
      <component glyphName="S" x="0" y="0" flags="0x1004"/>
      <component glyphName="caron" x="32" y="467" flags="0x1004"/>
    </TTGlyph>
    <TTGlyph name="Scedilla" xMin="-89" yMin="-411" xMax="900" yMax="1387">
      <component glyphName="S" x="0" y="0" flags="0x1004"/>
      <component glyphName="cedilla" x="79" y="0" flags="0x1004"/>
    </TTGlyph>
    <TTGlyph name="T" xMin="107" yMin="22" xMax="1050" yMax="1411">
      <contour>
        <pt x="107" y="1186" on="1"/>
        <pt x="119" y="1324" on="1"/>
        <pt x="227" y="1356" on="0"/>
        <pt x="695" y="1399" on="0"/>
        <pt x="1050" y="1410" on="1"/>
        <pt x="1025" y="1275" on="1"/>
        <pt x="933" y="1265" on="0"/>
        <pt x="752" y="1253" on="0"/>
        <pt x="658" y="1251" on="1"/>
        <pt x="612" y="1011" on="0"/>
        <pt x="551" y="490" on="0"/>
        <pt x="538" y="217" on="1"/>
        <pt x="537" y="203" on="0"/>
        <pt x="537" y="176" on="1"/>
        <pt x="535" y="83" on="0"/>
        <pt x="484" y="63" on="1"/>
        <pt x="392" y="25" on="1"/>
        <pt x="390" y="24" on="0"/>
        <pt x="385" y="23" on="0"/>
        <pt x="382" y="23" on="1"/>
        <pt x="371" y="23" on="0"/>
        <pt x="354" y="48" on="0"/>
        <pt x="354" y="69" on="1"/>
        <pt x="354" y="158" on="0"/>
        <pt x="440" y="844" on="0"/>
        <pt x="508" y="1243" on="1"/>
        <pt x="372" y="1230" on="0"/>
        <pt x="181" y="1202" on="0"/>
      </contour>
    </TTGlyph>
    <TTGlyph name="Thorn" xMin="108" yMin="33" xMax="982" yMax="1381">
      <contour>
        <pt x="345" y="446" on="1"/>
        <pt x="570" y="498" on="0"/>
        <pt x="831" y="734" on="0"/>
        <pt x="831" y="881" on="1"/>
        <pt x="831" y="974" on="0"/>
        <pt x="722" y="1076" on="0"/>
        <pt x="621" y="1076" on="1"/>
        <pt x="584" y="1076" on="0"/>
        <pt x="491" y="1061" on="0"/>
        <pt x="424" y="1044" on="1"/>
        <pt x="402" y="932" on="0"/>
        <pt x="364" y="636" on="0"/>
      </contour>
      <contour>
        <pt x="260" y="1004" on="1"/>
        <pt x="230" y="998" on="0"/>
        <pt x="159" y="976" on="0"/>
        <pt x="108" y="957" on="1"/>
        <pt x="108" y="1051" on="1"/>
        <pt x="153" y="1072" on="0"/>
        <pt x="237" y="1103" on="0"/>
        <pt x="278" y="1114" on="1"/>
        <pt x="296" y="1203" on="0"/>
        <pt x="317" y="1311" on="0"/>
        <pt x="327" y="1360" on="1"/>
        <pt x="492" y="1381" on="1"/>
        <pt x="473" y="1314" on="0"/>
        <pt x="446" y="1204" on="0"/>
        <pt x="438" y="1162" on="1"/>
        <pt x="508" y="1178" on="0"/>
        <pt x="618" y="1192" on="0"/>
        <pt x="666" y="1192" on="1"/>
        <pt x="822" y="1192" on="0"/>
        <pt x="982" y="1052" on="0"/>
        <pt x="982" y="913" on="1"/>
        <pt x="982" y="717" on="0"/>
        <pt x="629" y="400" on="0"/>
        <pt x="336" y="336" on="1"/>
        <pt x="332" y="295" on="0"/>
        <pt x="330" y="231" on="1"/>
        <pt x="325" y="92" on="0"/>
        <pt x="274" y="72" on="1"/>
        <pt x="185" y="35" on="1"/>
        <pt x="183" y="34" on="0"/>
        <pt x="179" y="33" on="0"/>
        <pt x="173" y="33" on="1"/>
        <pt x="164" y="33" on="0"/>
        <pt x="153" y="51" on="0"/>
        <pt x="153" y="67" on="1"/>
        <pt x="153" y="202" on="0"/>
        <pt x="210" y="714" on="0"/>
      </contour>
    </TTGlyph>
    <TTGlyph name="U" xMin="33" yMin="27" xMax="942" yMax="1379">
      <contour>
        <pt x="189" y="1358" on="1"/>
        <pt x="353" y="1379" on="1"/>
        <pt x="278" y="1076" on="0"/>
        <pt x="189" y="529" on="0"/>
        <pt x="189" y="406" on="1"/>
        <pt x="189" y="301" on="0"/>
        <pt x="288" y="186" on="0"/>
        <pt x="379" y="186" on="1"/>
        <pt x="460" y="186" on="0"/>
        <pt x="605" y="285" on="0"/>
        <pt x="670" y="385" on="1"/>
        <pt x="670" y="438" on="1"/>
        <pt x="670" y="604" on="0"/>
        <pt x="723" y="1040" on="0"/>
        <pt x="776" y="1303" on="1"/>
        <pt x="941" y="1328" on="1"/>
        <pt x="885" y="1121" on="0"/>
        <pt x="826" y="700" on="0"/>
        <pt x="826" y="515" on="1"/>
        <pt x="826" y="316" on="0"/>
        <pt x="873" y="111" on="1"/>
        <pt x="881" y="71" on="0"/>
        <pt x="881" y="63" on="1"/>
        <pt x="881" y="57" on="0"/>
        <pt x="873" y="50" on="0"/>
        <pt x="854" y="46" on="1"/>
        <pt x="763" y="29" on="1"/>
        <pt x="742" y="27" on="1"/>
        <pt x="722" y="27" on="0"/>
        <pt x="701" y="104" on="0"/>
        <pt x="689" y="264" on="1"/>
        <pt x="592" y="147" on="0"/>
        <pt x="421" y="42" on="0"/>
        <pt x="329" y="42" on="1"/>
        <pt x="185" y="42" on="0"/>
        <pt x="34" y="232" on="0"/>
        <pt x="34" y="412" on="1"/>
        <pt x="34" y="527" on="0"/>
        <pt x="108" y="980" on="0"/>
      </contour>
    </TTGlyph>
    <TTGlyph name="Uacute" xMin="33" yMin="27" xMax="963" yMax="1903">
      <component glyphName="U" x="0" y="0" flags="0x1004"/>
      <component glyphName="acute" x="32" y="467" flags="0x1004"/>
    </TTGlyph>
    <TTGlyph name="Ucircumflex" xMin="33" yMin="27" xMax="948" yMax="1879">
      <component glyphName="U" x="0" y="0" flags="0x1004"/>
      <component glyphName="circumflex" x="32" y="467" flags="0x1004"/>
    </TTGlyph>
    <TTGlyph name="Udieresis" xMin="33" yMin="27" xMax="982" yMax="1843">
      <component glyphName="U" x="0" y="0" flags="0x1004"/>
      <component glyphName="dieresis" x="32" y="467" flags="0x1004"/>
    </TTGlyph>
    <TTGlyph name="Ugrave" xMin="33" yMin="27" xMax="942" yMax="1903">
      <component glyphName="U" x="0" y="0" flags="0x1004"/>
      <component glyphName="grave" x="32" y="467" flags="0x1004"/>
    </TTGlyph>
    <TTGlyph name="V" xMin="166" yMin="36" xMax="985" yMax="1403">
      <contour>
        <pt x="192" y="1319" on="1"/>
        <pt x="387" y="1366" on="1"/>
        <pt x="353" y="1229" on="0"/>
        <pt x="321" y="954" on="0"/>
        <pt x="321" y="806" on="1"/>
        <pt x="321" y="652" on="0"/>
        <pt x="360" y="365" on="0"/>
        <pt x="395" y="249" on="1"/>
        <pt x="562" y="470" on="0"/>
        <pt x="764" y="999" on="0"/>
        <pt x="764" y="1196" on="1"/>
        <pt x="764" y="1206" on="0"/>
        <pt x="762" y="1268" on="0"/>
        <pt x="762" y="1287" on="1"/>
        <pt x="762" y="1336" on="0"/>
        <pt x="800" y="1379" on="0"/>
        <pt x="847" y="1386" on="1"/>
        <pt x="985" y="1402" on="1"/>
        <pt x="941" y="1154" on="0"/>
        <pt x="784" y="692" on="0"/>
        <pt x="671" y="480" on="1"/>
        <pt x="545" y="243" on="0"/>
        <pt x="391" y="37" on="0"/>
        <pt x="340" y="37" on="1"/>
        <pt x="301" y="37" on="0"/>
        <pt x="255" y="80" on="0"/>
        <pt x="239" y="134" on="1"/>
        <pt x="209" y="229" on="0"/>
        <pt x="166" y="607" on="0"/>
        <pt x="166" y="819" on="1"/>
        <pt x="166" y="916" on="0"/>
        <pt x="179" y="1154" on="0"/>
      </contour>
    </TTGlyph>
    <TTGlyph name="W" xMin="14" yMin="8" xMax="986" yMax="1346">
      <contour>
        <pt x="126" y="1304" on="1"/>
        <pt x="326" y="1346" on="1"/>
        <pt x="316" y="1284" on="0"/>
        <pt x="271" y="1180" on="0"/>
        <pt x="235" y="1132" on="1"/>
        <pt x="197" y="1006" on="0"/>
        <pt x="156" y="685" on="0"/>
        <pt x="156" y="513" on="1"/>
        <pt x="156" y="428" on="0"/>
        <pt x="188" y="263" on="0"/>
        <pt x="222" y="180" on="1"/>
        <pt x="295" y="250" on="0"/>
        <pt x="397" y="450" on="0"/>
        <pt x="423" y="579" on="1"/>
        <pt x="420" y="620" on="0"/>
        <pt x="417" y="690" on="0"/>
        <pt x="417" y="720" on="1"/>
        <pt x="417" y="837" on="0"/>
        <pt x="447" y="1016" on="0"/>
        <pt x="478" y="1090" on="1"/>
        <pt x="560" y="1114" on="1"/>
        <pt x="561" y="1114" on="0"/>
        <pt x="566" y="1115" on="0"/>
        <pt x="571" y="1115" on="1"/>
        <pt x="590" y="1115" on="0"/>
        <pt x="614" y="1078" on="0"/>
        <pt x="614" y="1048" on="1"/>
        <pt x="614" y="998" on="0"/>
        <pt x="587" y="817" on="0"/>
        <pt x="553" y="639" on="1"/>
        <pt x="553" y="607" on="1"/>
        <pt x="553" y="506" on="0"/>
        <pt x="607" y="292" on="0"/>
        <pt x="656" y="194" on="1"/>
        <pt x="752" y="382" on="0"/>
        <pt x="854" y="808" on="0"/>
        <pt x="854" y="1011" on="1"/>
        <pt x="854" y="1068" on="0"/>
        <pt x="843" y="1201" on="0"/>
        <pt x="830" y="1280" on="1"/>
        <pt x="978" y="1323" on="1"/>
        <pt x="982" y="1273" on="0"/>
        <pt x="985" y="1188" on="0"/>
        <pt x="985" y="1153" on="1"/>
        <pt x="985" y="967" on="0"/>
        <pt x="901" y="510" on="0"/>
        <pt x="824" y="293" on="1"/>
        <pt x="774" y="148" on="0"/>
        <pt x="696" y="34" on="0"/>
        <pt x="650" y="34" on="1"/>
        <pt x="593" y="34" on="0"/>
        <pt x="506" y="194" on="0"/>
        <pt x="464" y="378" on="1"/>
        <pt x="380" y="198" on="0"/>
        <pt x="235" y="8" on="0"/>
        <pt x="182" y="8" on="1"/>
        <pt x="107" y="8" on="0"/>
        <pt x="15" y="287" on="0"/>
        <pt x="15" y="518" on="1"/>
        <pt x="15" y="716" on="0"/>
        <pt x="70" y="1111" on="0"/>
      </contour>
    </TTGlyph>
    <TTGlyph name="X" xMin="-65" yMin="9" xMax="954" yMax="1393">
      <contour>
        <pt x="834" y="12" on="1"/>
        <pt x="833" y="12" on="0"/>
        <pt x="827" y="10" on="0"/>
        <pt x="822" y="10" on="1"/>
        <pt x="771" y="10" on="0"/>
        <pt x="597" y="258" on="0"/>
        <pt x="432" y="572" on="1"/>
        <pt x="324" y="407" on="0"/>
        <pt x="135" y="170" on="0"/>
        <pt x="41" y="82" on="1"/>
        <pt x="-64" y="141" on="1"/>
        <pt x="51" y="258" on="0"/>
        <pt x="268" y="528" on="0"/>
        <pt x="373" y="684" on="1"/>
        <pt x="288" y="865" on="0"/>
        <pt x="181" y="1157" on="0"/>
        <pt x="154" y="1286" on="1"/>
        <pt x="304" y="1369" on="1"/>
        <pt x="333" y="1227" on="0"/>
        <pt x="419" y="965" on="0"/>
        <pt x="478" y="841" on="1"/>
        <pt x="572" y="975" on="0"/>
        <pt x="745" y="1249" on="0"/>
        <pt x="828" y="1392" on="1"/>
        <pt x="951" y="1371" on="1"/>
        <pt x="869" y="1224" on="0"/>
        <pt x="669" y="904" on="0"/>
        <pt x="538" y="713" on="1"/>
        <pt x="623" y="542" on="0"/>
        <pt x="775" y="286" on="0"/>
        <pt x="842" y="203" on="1"/>
        <pt x="864" y="176" on="0"/>
        <pt x="953" y="94" on="0"/>
        <pt x="953" y="74" on="1"/>
        <pt x="953" y="63" on="0"/>
        <pt x="944" y="52" on="0"/>
        <pt x="929" y="46" on="1"/>
      </contour>
    </TTGlyph>
    <TTGlyph name="Y" xMin="163" yMin="20" xMax="1004" yMax="1387">
      <contour>
        <pt x="164" y="1314" on="1"/>
        <pt x="321" y="1377" on="1"/>
        <pt x="323" y="954" on="0"/>
        <pt x="396" y="610" on="0"/>
        <pt x="484" y="533" on="1"/>
        <pt x="582" y="720" on="0"/>
        <pt x="750" y="1120" on="0"/>
        <pt x="838" y="1386" on="1"/>
        <pt x="1003" y="1386" on="1"/>
        <pt x="848" y="972" on="0"/>
        <pt x="540" y="324" on="0"/>
        <pt x="366" y="37" on="1"/>
        <pt x="263" y="25" on="1"/>
        <pt x="260" y="24" on="0"/>
        <pt x="257" y="24" on="1"/>
        <pt x="239" y="21" on="0"/>
        <pt x="234" y="21" on="1"/>
        <pt x="221" y="21" on="0"/>
        <pt x="204" y="44" on="0"/>
        <pt x="204" y="63" on="1"/>
        <pt x="204" y="86" on="0"/>
        <pt x="359" y="295" on="0"/>
        <pt x="412" y="402" on="1"/>
        <pt x="287" y="491" on="0"/>
        <pt x="173" y="901" on="0"/>
      </contour>
    </TTGlyph>
    <TTGlyph name="Yacute" xMin="163" yMin="20" xMax="1004" yMax="1903">
      <component glyphName="Y" x="0" y="0" flags="0x1004"/>
      <component glyphName="acute" x="32" y="467" flags="0x1004"/>
    </TTGlyph>
    <TTGlyph name="Ydieresis" xMin="163" yMin="20" xMax="1004" yMax="1843">
      <component glyphName="Y" x="0" y="0" flags="0x1004"/>
      <component glyphName="dieresis" x="32" y="467" flags="0x1004"/>
    </TTGlyph>
    <TTGlyph name="Z" xMin="98" yMin="-5" xMax="832" yMax="1376">
      <contour>
        <pt x="99" y="87" on="1"/>
        <pt x="123" y="212" on="1"/>
        <pt x="276" y="411" on="0"/>
        <pt x="517" y="888" on="0"/>
        <pt x="630" y="1221" on="1"/>
        <pt x="596" y="1222" on="0"/>
        <pt x="536" y="1223" on="0"/>
        <pt x="503" y="1223" on="1"/>
        <pt x="427" y="1223" on="0"/>
        <pt x="258" y="1212" on="0"/>
        <pt x="164" y="1200" on="1"/>
        <pt x="192" y="1325" on="1"/>
        <pt x="199" y="1358" on="0"/>
        <pt x="312" y="1375" on="0"/>
        <pt x="571" y="1375" on="1"/>
        <pt x="632" y="1375" on="0"/>
        <pt x="759" y="1370" on="0"/>
        <pt x="831" y="1365" on="1"/>
        <pt x="735" y="1016" on="0"/>
        <pt x="478" y="450" on="0"/>
        <pt x="308" y="210" on="1"/>
        <pt x="387" y="186" on="0"/>
        <pt x="571" y="163" on="0"/>
        <pt x="679" y="163" on="1"/>
        <pt x="703" y="163" on="0"/>
        <pt x="780" y="172" on="0"/>
        <pt x="795" y="172" on="1"/>
        <pt x="812" y="172" on="0"/>
        <pt x="831" y="163" on="0"/>
        <pt x="831" y="157" on="1"/>
        <pt x="831" y="148" on="0"/>
        <pt x="824" y="119" on="0"/>
        <pt x="817" y="103" on="1"/>
        <pt x="787" y="36" on="1"/>
        <pt x="778" y="15" on="0"/>
        <pt x="739" y="-4" on="0"/>
        <pt x="706" y="-4" on="1"/>
        <pt x="586" y="-4" on="0"/>
        <pt x="288" y="40" on="0"/>
      </contour>
    </TTGlyph>
    <TTGlyph name="Zcaron" xMin="98" yMin="-5" xMax="948" yMax="1883">
      <component glyphName="Z" x="0" y="0" flags="0x1004"/>
      <component glyphName="caron" x="32" y="467" flags="0x1004"/>
    </TTGlyph>
    <TTGlyph name="a" xMin="-18" yMin="-24" xMax="1001" yMax="1012">
      <contour>
        <pt x="551" y="282" on="1"/>
        <pt x="463" y="132" on="0"/>
        <pt x="282" y="-18" on="0"/>
        <pt x="191" y="-18" on="1"/>
        <pt x="96" y="-18" on="0"/>
        <pt x="-17" y="137" on="0"/>
        <pt x="-17" y="269" on="1"/>
        <pt x="-17" y="431" on="0"/>
        <pt x="123" y="760" on="0"/>
        <pt x="237" y="872" on="1"/>
        <pt x="297" y="931" on="0"/>
        <pt x="460" y="1005" on="0"/>
        <pt x="521" y="1005" on="1"/>
        <pt x="554" y="1005" on="0"/>
        <pt x="585" y="975" on="0"/>
        <pt x="585" y="943" on="1"/>
        <pt x="585" y="888" on="0"/>
        <pt x="530" y="812" on="0"/>
        <pt x="489" y="812" on="1"/>
        <pt x="465" y="812" on="0"/>
        <pt x="405" y="832" on="0"/>
        <pt x="365" y="854" on="1"/>
        <pt x="251" y="726" on="0"/>
        <pt x="142" y="463" on="0"/>
        <pt x="142" y="322" on="1"/>
        <pt x="142" y="232" on="0"/>
        <pt x="204" y="132" on="0"/>
        <pt x="260" y="132" on="1"/>
        <pt x="320" y="132" on="0"/>
        <pt x="446" y="273" on="0"/>
        <pt x="539" y="444" on="1"/>
        <pt x="545" y="498" on="0"/>
        <pt x="556" y="593" on="1"/>
        <pt x="607" y="1011" on="0"/>
        <pt x="715" y="1011" on="1"/>
        <pt x="770" y="1011" on="0"/>
        <pt x="841" y="970" on="0"/>
        <pt x="841" y="939" on="1"/>
        <pt x="841" y="924" on="0"/>
        <pt x="822" y="863" on="0"/>
        <pt x="804" y="816" on="1"/>
        <pt x="676" y="494" on="1"/>
        <pt x="693" y="232" on="1"/>
        <pt x="697" y="171" on="0"/>
        <pt x="745" y="115" on="0"/>
        <pt x="792" y="115" on="1"/>
        <pt x="821" y="115" on="0"/>
        <pt x="887" y="144" on="0"/>
        <pt x="952" y="189" on="1"/>
        <pt x="1000" y="113" on="1"/>
        <pt x="912" y="39" on="0"/>
        <pt x="789" y="-23" on="0"/>
        <pt x="733" y="-23" on="1"/>
        <pt x="645" y="-23" on="0"/>
        <pt x="551" y="131" on="0"/>
        <pt x="551" y="274" on="1"/>
      </contour>
    </TTGlyph>
    <TTGlyph name="aacute" xMin="-18" yMin="-24" xMax="1001" yMax="1436">
      <component glyphName="a" x="0" y="0" flags="0x1004"/>
      <component glyphName="acute" x="0" y="0" flags="0x1004"/>
    </TTGlyph>
    <TTGlyph name="acircumflex" xMin="-18" yMin="-24" xMax="1001" yMax="1412">
      <component glyphName="a" x="0" y="0" flags="0x1004"/>
      <component glyphName="circumflex" x="0" y="0" flags="0x1004"/>
    </TTGlyph>
    <TTGlyph name="acute" xMin="333" yMin="1088" xMax="931" yMax="1436">
      <contour>
        <pt x="334" y="1143" on="1"/>
        <pt x="828" y="1432" on="1"/>
        <pt x="832" y="1434" on="0"/>
        <pt x="841" y="1436" on="0"/>
        <pt x="845" y="1436" on="1"/>
        <pt x="858" y="1436" on="0"/>
        <pt x="882" y="1419" on="0"/>
        <pt x="892" y="1404" on="1"/>
        <pt x="925" y="1344" on="1"/>
        <pt x="928" y="1339" on="0"/>
        <pt x="930" y="1329" on="0"/>
        <pt x="930" y="1319" on="1"/>
        <pt x="930" y="1307" on="0"/>
        <pt x="915" y="1284" on="0"/>
        <pt x="901" y="1279" on="1"/>
        <pt x="362" y="1088" on="1"/>
      </contour>
    </TTGlyph>
    <TTGlyph name="adieresis" xMin="-18" yMin="-24" xMax="1001" yMax="1376">
      <component glyphName="a" x="0" y="0" flags="0x1004"/>
      <component glyphName="dieresis" x="0" y="0" flags="0x1004"/>
    </TTGlyph>
    <TTGlyph name="ae" xMin="-55" yMin="-57" xMax="976" yMax="1042">
      <contour>
        <pt x="518" y="380" on="1"/>
        <pt x="675" y="476" on="0"/>
        <pt x="827" y="690" on="0"/>
        <pt x="827" y="814" on="1"/>
        <pt x="827" y="877" on="0"/>
        <pt x="785" y="935" on="0"/>
        <pt x="740" y="935" on="1"/>
        <pt x="649" y="935" on="0"/>
        <pt x="516" y="670" on="0"/>
        <pt x="516" y="473" on="1"/>
        <pt x="516" y="439" on="0"/>
        <pt x="517" y="399" on="0"/>
      </contour>
      <contour>
        <pt x="942" y="98" on="1"/>
        <pt x="971" y="2" on="1"/>
        <pt x="910" y="-27" on="0"/>
        <pt x="778" y="-57" on="0"/>
        <pt x="710" y="-57" on="1"/>
        <pt x="595" y="-57" on="0"/>
        <pt x="445" y="54" on="0"/>
        <pt x="412" y="166" on="1"/>
        <pt x="354" y="78" on="0"/>
        <pt x="212" y="-20" on="0"/>
        <pt x="143" y="-20" on="1"/>
        <pt x="51" y="-20" on="0"/>
        <pt x="-54" y="133" on="0"/>
        <pt x="-54" y="265" on="1"/>
        <pt x="-54" y="390" on="0"/>
        <pt x="40" y="677" on="0"/>
        <pt x="117" y="789" on="1"/>
        <pt x="197" y="902" on="0"/>
        <pt x="338" y="1007" on="0"/>
        <pt x="410" y="1007" on="1"/>
        <pt x="448" y="1007" on="0"/>
        <pt x="476" y="978" on="0"/>
        <pt x="476" y="941" on="1"/>
        <pt x="476" y="888" on="0"/>
        <pt x="420" y="812" on="0"/>
        <pt x="378" y="812" on="1"/>
        <pt x="359" y="812" on="0"/>
        <pt x="314" y="828" on="0"/>
        <pt x="283" y="846" on="1"/>
        <pt x="190" y="728" on="0"/>
        <pt x="89" y="452" on="0"/>
        <pt x="89" y="314" on="1"/>
        <pt x="89" y="227" on="0"/>
        <pt x="152" y="132" on="0"/>
        <pt x="206" y="132" on="1"/>
        <pt x="250" y="132" on="0"/>
        <pt x="340" y="206" on="0"/>
        <pt x="382" y="278" on="1"/>
        <pt x="378" y="307" on="0"/>
        <pt x="374" y="372" on="0"/>
        <pt x="374" y="409" on="1"/>
        <pt x="374" y="676" on="0"/>
        <pt x="602" y="1042" on="0"/>
        <pt x="768" y="1042" on="1"/>
        <pt x="865" y="1042" on="0"/>
        <pt x="975" y="924" on="0"/>
        <pt x="975" y="821" on="1"/>
        <pt x="975" y="676" on="0"/>
        <pt x="756" y="400" on="0"/>
        <pt x="542" y="274" on="1"/>
        <pt x="558" y="168" on="0"/>
        <pt x="661" y="57" on="0"/>
        <pt x="740" y="57" on="1"/>
        <pt x="789" y="57" on="0"/>
        <pt x="888" y="78" on="0"/>
      </contour>
    </TTGlyph>
    <TTGlyph name="agrave" xMin="-18" yMin="-24" xMax="1001" yMax="1436">
      <component glyphName="a" x="0" y="0" flags="0x1004"/>
      <component glyphName="grave" x="0" y="0" flags="0x1004"/>
    </TTGlyph>
    <TTGlyph name="ampersand" xMin="54" yMin="5" xMax="854" yMax="1380">
      <contour>
        <pt x="680" y="70" on="1"/>
        <pt x="586" y="70" on="1"/>
        <pt x="567" y="133" on="1"/>
        <pt x="454" y="64" on="0"/>
        <pt x="299" y="6" on="0"/>
        <pt x="230" y="6" on="1"/>
        <pt x="145" y="6" on="0"/>
        <pt x="54" y="106" on="0"/>
        <pt x="54" y="201" on="1"/>
        <pt x="54" y="331" on="0"/>
        <pt x="208" y="575" on="0"/>
        <pt x="355" y="681" on="1"/>
        <pt x="254" y="688" on="0"/>
        <pt x="162" y="761" on="0"/>
        <pt x="162" y="833" on="1"/>
        <pt x="162" y="913" on="0"/>
        <pt x="274" y="1091" on="0"/>
        <pt x="391" y="1197" on="1"/>
        <pt x="490" y="1286" on="0"/>
        <pt x="681" y="1379" on="0"/>
        <pt x="760" y="1379" on="1"/>
        <pt x="806" y="1379" on="0"/>
        <pt x="854" y="1351" on="0"/>
        <pt x="854" y="1322" on="1"/>
        <pt x="854" y="1317" on="0"/>
        <pt x="848" y="1287" on="0"/>
        <pt x="844" y="1271" on="1"/>
        <pt x="809" y="1106" on="1"/>
        <pt x="690" y="1083" on="1"/>
        <pt x="707" y="1179" on="1"/>
        <pt x="708" y="1185" on="0"/>
        <pt x="709" y="1197" on="0"/>
        <pt x="709" y="1211" on="1"/>
        <pt x="709" y="1231" on="0"/>
        <pt x="689" y="1250" on="0"/>
        <pt x="666" y="1250" on="1"/>
        <pt x="621" y="1250" on="0"/>
        <pt x="475" y="1139" on="0"/>
        <pt x="389" y="1039" on="1"/>
        <pt x="343" y="984" on="0"/>
        <pt x="296" y="893" on="0"/>
        <pt x="296" y="859" on="1"/>
        <pt x="296" y="823" on="0"/>
        <pt x="335" y="797" on="0"/>
        <pt x="387" y="797" on="1"/>
        <pt x="475" y="797" on="0"/>
        <pt x="708" y="890" on="0"/>
        <pt x="722" y="890" on="1"/>
        <pt x="731" y="890" on="0"/>
        <pt x="747" y="875" on="0"/>
        <pt x="747" y="867" on="1"/>
        <pt x="751" y="801" on="1"/>
        <pt x="751" y="797" on="1"/>
        <pt x="751" y="768" on="0"/>
        <pt x="672" y="739" on="1"/>
        <pt x="638" y="726" on="0"/>
        <pt x="618" y="718" on="1"/>
        <pt x="432" y="641" on="0"/>
        <pt x="196" y="376" on="0"/>
        <pt x="196" y="256" on="1"/>
        <pt x="196" y="197" on="0"/>
        <pt x="252" y="133" on="0"/>
        <pt x="304" y="133" on="1"/>
        <pt x="344" y="133" on="0"/>
        <pt x="494" y="211" on="0"/>
        <pt x="586" y="279" on="1"/>
        <pt x="611" y="413" on="1"/>
        <pt x="533" y="406" on="1"/>
        <pt x="520" y="406" on="1"/>
        <pt x="490" y="406" on="0"/>
        <pt x="459" y="435" on="0"/>
        <pt x="459" y="464" on="1"/>
        <pt x="459" y="521" on="0"/>
        <pt x="552" y="564" on="0"/>
        <pt x="694" y="564" on="1"/>
        <pt x="755" y="564" on="0"/>
        <pt x="807" y="533" on="0"/>
        <pt x="807" y="497" on="1"/>
        <pt x="807" y="466" on="0"/>
        <pt x="780" y="429" on="0"/>
        <pt x="751" y="422" on="1"/>
        <pt x="745" y="393" on="1"/>
        <pt x="695" y="160" on="0"/>
      </contour>
    </TTGlyph>
    <TTGlyph name="apple" xMin="53" yMin="41" xMax="971" yMax="1129">
      <contour>
        <pt x="528" y="866" on="1"/>
        <pt x="528" y="885" on="1"/>
        <pt x="528" y="972" on="0"/>
        <pt x="650" y="1110" on="0"/>
        <pt x="747" y="1128" on="1"/>
        <pt x="748" y="1120" on="0"/>
        <pt x="749" y="1106" on="0"/>
        <pt x="749" y="1091" on="1"/>
        <pt x="749" y="1002" on="0"/>
        <pt x="612" y="864" on="0"/>
        <pt x="546" y="864" on="1"/>
        <pt x="540" y="864" on="1"/>
        <pt x="536" y="864" on="0"/>
        <pt x="531" y="865" on="0"/>
      </contour>
      <contour>
        <pt x="971" y="330" on="1"/>
        <pt x="897" y="169" on="0"/>
        <pt x="776" y="42" on="0"/>
        <pt x="701" y="42" on="1"/>
        <pt x="667" y="42" on="0"/>
        <pt x="560" y="84" on="0"/>
        <pt x="531" y="84" on="1"/>
        <pt x="504" y="84" on="0"/>
        <pt x="393" y="42" on="0"/>
        <pt x="365" y="42" on="1"/>
        <pt x="322" y="42" on="0"/>
        <pt x="237" y="99" on="0"/>
        <pt x="194" y="157" on="1"/>
        <pt x="128" y="248" on="0"/>
        <pt x="53" y="454" on="0"/>
        <pt x="53" y="546" on="1"/>
        <pt x="53" y="694" on="0"/>
        <pt x="217" y="876" on="0"/>
        <pt x="349" y="876" on="1"/>
        <pt x="394" y="876" on="0"/>
        <pt x="508" y="830" on="0"/>
        <pt x="531" y="830" on="1"/>
        <pt x="555" y="830" on="0"/>
        <pt x="669" y="876" on="0"/>
        <pt x="713" y="876" on="1"/>
        <pt x="787" y="876" on="0"/>
        <pt x="902" y="824" on="0"/>
        <pt x="949" y="769" on="1"/>
        <pt x="882" y="726" on="0"/>
        <pt x="816" y="619" on="0"/>
        <pt x="816" y="553" on="1"/>
        <pt x="816" y="478" on="0"/>
        <pt x="895" y="364" on="0"/>
      </contour>
    </TTGlyph>
    <TTGlyph name="approxequal" xMin="94" yMin="463" xMax="932" yMax="1025">
      <contour>
        <pt x="931" y="883" on="1"/>
        <pt x="859" y="836" on="0"/>
        <pt x="744" y="793" on="0"/>
        <pt x="692" y="793" on="1"/>
        <pt x="633" y="793" on="0"/>
        <pt x="391" y="877" on="0"/>
        <pt x="325" y="877" on="1"/>
        <pt x="275" y="877" on="0"/>
        <pt x="159" y="828" on="0"/>
        <pt x="95" y="780" on="1"/>
        <pt x="95" y="921" on="1"/>
        <pt x="164" y="965" on="0"/>
        <pt x="279" y="1008" on="0"/>
        <pt x="330" y="1008" on="1"/>
        <pt x="396" y="1008" on="0"/>
        <pt x="642" y="924" on="0"/>
        <pt x="696" y="924" on="1"/>
        <pt x="749" y="924" on="0"/>
        <pt x="863" y="973" on="0"/>
        <pt x="931" y="1024" on="1"/>
      </contour>
      <contour>
        <pt x="931" y="567" on="1"/>
        <pt x="859" y="521" on="0"/>
        <pt x="744" y="478" on="0"/>
        <pt x="692" y="478" on="1"/>
        <pt x="633" y="478" on="0"/>
        <pt x="391" y="562" on="0"/>
        <pt x="325" y="562" on="1"/>
        <pt x="275" y="562" on="0"/>
        <pt x="159" y="512" on="0"/>
        <pt x="95" y="464" on="1"/>
        <pt x="95" y="603" on="1"/>
        <pt x="167" y="649" on="0"/>
        <pt x="280" y="693" on="0"/>
        <pt x="330" y="693" on="1"/>
        <pt x="396" y="693" on="0"/>
        <pt x="642" y="609" on="0"/>
        <pt x="696" y="609" on="1"/>
        <pt x="749" y="609" on="0"/>
        <pt x="863" y="658" on="0"/>
        <pt x="931" y="708" on="1"/>
      </contour>
    </TTGlyph>
    <TTGlyph name="aring" xMin="-18" yMin="-34" xMax="1001" yMax="1618">
      <contour>
        <pt x="551" y="271" on="1"/>
        <pt x="463" y="121" on="0"/>
        <pt x="282" y="-29" on="0"/>
        <pt x="191" y="-29" on="1"/>
        <pt x="96" y="-29" on="0"/>
        <pt x="-17" y="127" on="0"/>
        <pt x="-17" y="259" on="1"/>
        <pt x="-17" y="420" on="0"/>
        <pt x="123" y="750" on="0"/>
        <pt x="237" y="861" on="1"/>
        <pt x="297" y="920" on="0"/>
        <pt x="460" y="995" on="0"/>
        <pt x="521" y="995" on="1"/>
        <pt x="554" y="995" on="0"/>
        <pt x="585" y="965" on="0"/>
        <pt x="585" y="933" on="1"/>
        <pt x="585" y="878" on="0"/>
        <pt x="530" y="801" on="0"/>
        <pt x="489" y="801" on="1"/>
        <pt x="465" y="801" on="0"/>
        <pt x="405" y="822" on="0"/>
        <pt x="365" y="844" on="1"/>
        <pt x="251" y="715" on="0"/>
        <pt x="142" y="453" on="0"/>
        <pt x="142" y="312" on="1"/>
        <pt x="142" y="222" on="0"/>
        <pt x="204" y="121" on="0"/>
        <pt x="260" y="121" on="1"/>
        <pt x="320" y="121" on="0"/>
        <pt x="446" y="262" on="0"/>
        <pt x="539" y="434" on="1"/>
        <pt x="545" y="488" on="0"/>
        <pt x="556" y="583" on="1"/>
        <pt x="607" y="1001" on="0"/>
        <pt x="715" y="1001" on="1"/>
        <pt x="770" y="1001" on="0"/>
        <pt x="841" y="960" on="0"/>
        <pt x="841" y="929" on="1"/>
        <pt x="841" y="913" on="0"/>
        <pt x="822" y="853" on="0"/>
        <pt x="804" y="805" on="1"/>
        <pt x="676" y="484" on="1"/>
        <pt x="693" y="222" on="1"/>
        <pt x="697" y="161" on="0"/>
        <pt x="745" y="105" on="0"/>
        <pt x="792" y="105" on="1"/>
        <pt x="821" y="105" on="0"/>
        <pt x="887" y="134" on="0"/>
        <pt x="952" y="178" on="1"/>
        <pt x="1000" y="103" on="1"/>
        <pt x="912" y="28" on="0"/>
        <pt x="789" y="-34" on="0"/>
        <pt x="733" y="-34" on="1"/>
        <pt x="645" y="-34" on="0"/>
        <pt x="551" y="120" on="0"/>
        <pt x="551" y="263" on="1"/>
      </contour>
      <contour>
        <pt x="367" y="1357" on="1"/>
        <pt x="367" y="1467" on="0"/>
        <pt x="519" y="1618" on="0"/>
        <pt x="630" y="1618" on="1"/>
        <pt x="739" y="1618" on="0"/>
        <pt x="890" y="1467" on="0"/>
        <pt x="890" y="1357" on="1"/>
        <pt x="890" y="1247" on="0"/>
        <pt x="737" y="1094" on="0"/>
        <pt x="628" y="1094" on="1"/>
        <pt x="519" y="1094" on="0"/>
        <pt x="367" y="1247" on="0"/>
      </contour>
      <contour>
        <pt x="489" y="1355" on="1"/>
        <pt x="489" y="1296" on="0"/>
        <pt x="571" y="1215" on="0"/>
        <pt x="630" y="1215" on="1"/>
        <pt x="688" y="1215" on="0"/>
        <pt x="769" y="1297" on="0"/>
        <pt x="769" y="1355" on="1"/>
        <pt x="769" y="1412" on="0"/>
        <pt x="687" y="1495" on="0"/>
        <pt x="630" y="1495" on="1"/>
        <pt x="571" y="1495" on="0"/>
        <pt x="489" y="1414" on="0"/>
      </contour>
    </TTGlyph>
    <TTGlyph name="asciicircum" xMin="-29" yMin="842" xMax="1053" yMax="1453">
      <contour>
        <pt x="130" y="843" on="1"/>
        <pt x="-28" y="843" on="1"/>
        <pt x="455" y="1452" on="1"/>
        <pt x="569" y="1452" on="1"/>
        <pt x="1052" y="843" on="1"/>
        <pt x="894" y="843" on="1"/>
        <pt x="512" y="1308" on="1"/>
      </contour>
    </TTGlyph>
    <TTGlyph name="asciitilde" xMin="66" yMin="612" xMax="960" yMax="878">
      <contour>
        <pt x="67" y="613" on="1"/>
        <pt x="67" y="766" on="1"/>
        <pt x="138" y="813" on="0"/>
        <pt x="264" y="861" on="0"/>
        <pt x="317" y="861" on="1"/>
        <pt x="388" y="861" on="0"/>
        <pt x="650" y="772" on="0"/>
        <pt x="709" y="772" on="1"/>
        <pt x="763" y="772" on="0"/>
        <pt x="888" y="825" on="0"/>
        <pt x="959" y="877" on="1"/>
        <pt x="959" y="725" on="1"/>
        <pt x="887" y="677" on="0"/>
        <pt x="761" y="629" on="0"/>
        <pt x="704" y="629" on="1"/>
        <pt x="642" y="629" on="0"/>
        <pt x="383" y="718" on="0"/>
        <pt x="312" y="718" on="1"/>
        <pt x="261" y="718" on="0"/>
        <pt x="136" y="664" on="0"/>
      </contour>
    </TTGlyph>
    <TTGlyph name="asterisk" xMin="221" yMin="820" xMax="907" yMax="1594">
      <contour>
        <pt x="618" y="1050" on="1"/>
        <pt x="610" y="1050" on="0"/>
        <pt x="599" y="941" on="0"/>
        <pt x="591" y="904" on="1"/>
        <pt x="580" y="856" on="0"/>
        <pt x="534" y="821" on="0"/>
        <pt x="470" y="821" on="1"/>
        <pt x="436" y="821" on="0"/>
        <pt x="407" y="842" on="0"/>
        <pt x="407" y="865" on="1"/>
        <pt x="407" y="908" on="0"/>
        <pt x="482" y="1050" on="0"/>
        <pt x="482" y="1056" on="1"/>
        <pt x="482" y="1067" on="0"/>
        <pt x="478" y="1075" on="0"/>
        <pt x="472" y="1076" on="1"/>
        <pt x="459" y="1076" on="0"/>
        <pt x="345" y="980" on="0"/>
        <pt x="294" y="980" on="1"/>
        <pt x="263" y="980" on="0"/>
        <pt x="221" y="1036" on="0"/>
        <pt x="221" y="1076" on="1"/>
        <pt x="221" y="1141" on="0"/>
        <pt x="425" y="1207" on="0"/>
        <pt x="425" y="1213" on="1"/>
        <pt x="425" y="1225" on="0"/>
        <pt x="245" y="1310" on="0"/>
        <pt x="245" y="1368" on="1"/>
        <pt x="245" y="1419" on="0"/>
        <pt x="300" y="1493" on="0"/>
        <pt x="343" y="1493" on="1"/>
        <pt x="381" y="1493" on="0"/>
        <pt x="493" y="1361" on="0"/>
        <pt x="508" y="1361" on="1"/>
        <pt x="529" y="1361" on="0"/>
        <pt x="535" y="1444" on="1"/>
        <pt x="538" y="1477" on="0"/>
        <pt x="540" y="1495" on="1"/>
        <pt x="546" y="1545" on="0"/>
        <pt x="589" y="1593" on="0"/>
        <pt x="629" y="1593" on="1"/>
        <pt x="679" y="1593" on="0"/>
        <pt x="726" y="1560" on="0"/>
        <pt x="726" y="1525" on="1"/>
        <pt x="726" y="1477" on="0"/>
        <pt x="652" y="1351" on="0"/>
        <pt x="652" y="1341" on="1"/>
        <pt x="653" y="1335" on="0"/>
        <pt x="657" y="1332" on="0"/>
        <pt x="662" y="1332" on="1"/>
        <pt x="667" y="1332" on="0"/>
        <pt x="782" y="1385" on="0"/>
        <pt x="830" y="1385" on="1"/>
        <pt x="865" y="1385" on="0"/>
        <pt x="907" y="1336" on="0"/>
        <pt x="907" y="1294" on="1"/>
        <pt x="907" y="1236" on="0"/>
        <pt x="833" y="1189" on="0"/>
        <pt x="735" y="1189" on="1"/>
        <pt x="702" y="1189" on="0"/>
        <pt x="680" y="1181" on="0"/>
        <pt x="680" y="1171" on="1"/>
        <pt x="680" y="1160" on="0"/>
        <pt x="852" y="1049" on="0"/>
        <pt x="852" y="984" on="1"/>
        <pt x="852" y="943" on="0"/>
        <pt x="802" y="885" on="0"/>
        <pt x="769" y="885" on="1"/>
        <pt x="724" y="885" on="0"/>
        <pt x="627" y="1050" on="0"/>
      </contour>
    </TTGlyph>
    <TTGlyph name="at" xMin="51" yMin="-27" xMax="889" yMax="1360">
      <contour>
        <pt x="859" y="419" on="1"/>
        <pt x="765" y="394" on="0"/>
        <pt x="617" y="369" on="0"/>
        <pt x="558" y="369" on="1"/>
        <pt x="439" y="369" on="0"/>
        <pt x="305" y="475" on="0"/>
        <pt x="305" y="567" on="1"/>
        <pt x="305" y="670" on="0"/>
        <pt x="468" y="785" on="0"/>
        <pt x="615" y="785" on="1"/>
        <pt x="653" y="785" on="0"/>
        <pt x="733" y="780" on="0"/>
        <pt x="780" y="775" on="1"/>
        <pt x="784" y="795" on="0"/>
        <pt x="787" y="824" on="0"/>
        <pt x="787" y="834" on="1"/>
        <pt x="787" y="886" on="0"/>
        <pt x="727" y="933" on="0"/>
        <pt x="657" y="933" on="1"/>
        <pt x="619" y="933" on="0"/>
        <pt x="540" y="914" on="0"/>
        <pt x="497" y="895" on="1"/>
        <pt x="473" y="975" on="1"/>
        <pt x="520" y="997" on="0"/>
        <pt x="617" y="1018" on="0"/>
        <pt x="669" y="1018" on="1"/>
        <pt x="700" y="1018" on="0"/>
        <pt x="758" y="1008" on="0"/>
        <pt x="785" y="997" on="1"/>
        <pt x="785" y="1003" on="0"/>
        <pt x="787" y="1026" on="0"/>
        <pt x="787" y="1030" on="1"/>
        <pt x="787" y="1139" on="0"/>
        <pt x="665" y="1264" on="0"/>
        <pt x="558" y="1264" on="1"/>
        <pt x="368" y="1264" on="0"/>
        <pt x="149" y="854" on="0"/>
        <pt x="149" y="496" on="1"/>
        <pt x="149" y="324" on="0"/>
        <pt x="325" y="85" on="0"/>
        <pt x="450" y="85" on="1"/>
        <pt x="512" y="85" on="0"/>
        <pt x="637" y="148" on="0"/>
        <pt x="708" y="217" on="1"/>
        <pt x="770" y="144" on="1"/>
        <pt x="694" y="62" on="0"/>
        <pt x="519" y="-26" on="0"/>
        <pt x="433" y="-26" on="1"/>
        <pt x="250" y="-26" on="0"/>
        <pt x="52" y="255" on="0"/>
        <pt x="52" y="516" on="1"/>
        <pt x="52" y="900" on="0"/>
        <pt x="330" y="1359" on="0"/>
        <pt x="564" y="1359" on="1"/>
        <pt x="725" y="1359" on="0"/>
        <pt x="888" y="1150" on="0"/>
        <pt x="888" y="943" on="1"/>
        <pt x="888" y="867" on="0"/>
        <pt x="874" y="596" on="0"/>
      </contour>
      <contour>
        <pt x="778" y="686" on="1"/>
        <pt x="724" y="692" on="0"/>
        <pt x="644" y="698" on="0"/>
        <pt x="621" y="698" on="1"/>
        <pt x="512" y="698" on="0"/>
        <pt x="399" y="635" on="0"/>
        <pt x="399" y="575" on="1"/>
        <pt x="399" y="519" on="0"/>
        <pt x="491" y="459" on="0"/>
        <pt x="577" y="459" on="1"/>
        <pt x="617" y="459" on="0"/>
        <pt x="712" y="473" on="0"/>
        <pt x="764" y="488" on="1"/>
      </contour>
    </TTGlyph>
    <TTGlyph name="atilde" xMin="-18" yMin="-24" xMax="1001" yMax="1367">
      <component glyphName="a" x="0" y="0" flags="0x1004"/>
      <component glyphName="tilde" x="0" y="0" flags="0x1004"/>
    </TTGlyph>
    <TTGlyph name="b" xMin="74" yMin="-5" xMax="874" yMax="1513">
      <contour>
        <pt x="267" y="818" on="1"/>
        <pt x="332" y="885" on="0"/>
        <pt x="491" y="958" on="0"/>
        <pt x="574" y="958" on="1"/>
        <pt x="715" y="958" on="0"/>
        <pt x="874" y="755" on="0"/>
        <pt x="874" y="572" on="1"/>
        <pt x="874" y="332" on="0"/>
        <pt x="622" y="-5" on="0"/>
        <pt x="441" y="-5" on="1"/>
        <pt x="357" y="-5" on="0"/>
        <pt x="240" y="69" on="0"/>
        <pt x="240" y="119" on="1"/>
        <pt x="240" y="169" on="0"/>
        <pt x="297" y="246" on="0"/>
        <pt x="333" y="246" on="1"/>
        <pt x="363" y="246" on="0"/>
        <pt x="380" y="212" on="1"/>
        <pt x="384" y="203" on="0"/>
        <pt x="386" y="199" on="1"/>
        <pt x="388" y="195" on="0"/>
        <pt x="393" y="186" on="1"/>
        <pt x="437" y="108" on="0"/>
        <pt x="495" y="108" on="1"/>
        <pt x="594" y="108" on="0"/>
        <pt x="715" y="327" on="0"/>
        <pt x="715" y="511" on="1"/>
        <pt x="715" y="679" on="0"/>
        <pt x="610" y="845" on="0"/>
        <pt x="503" y="845" on="1"/>
        <pt x="380" y="845" on="0"/>
        <pt x="236" y="636" on="0"/>
        <pt x="220" y="432" on="1"/>
        <pt x="215" y="357" on="0"/>
        <pt x="212" y="235" on="1"/>
        <pt x="207" y="47" on="0"/>
        <pt x="164" y="44" on="1"/>
        <pt x="119" y="42" on="1"/>
        <pt x="117" y="42" on="1"/>
        <pt x="97" y="42" on="0"/>
        <pt x="74" y="109" on="0"/>
        <pt x="74" y="167" on="1"/>
        <pt x="74" y="393" on="0"/>
        <pt x="139" y="943" on="0"/>
        <pt x="194" y="1176" on="1"/>
        <pt x="198" y="1196" on="0"/>
        <pt x="206" y="1232" on="1"/>
        <pt x="272" y="1513" on="0"/>
        <pt x="325" y="1513" on="1"/>
        <pt x="328" y="1513" on="0"/>
        <pt x="338" y="1511" on="0"/>
        <pt x="344" y="1509" on="1"/>
        <pt x="433" y="1480" on="1"/>
        <pt x="449" y="1472" on="0"/>
        <pt x="471" y="1444" on="0"/>
        <pt x="471" y="1431" on="1"/>
        <pt x="471" y="1406" on="0"/>
        <pt x="296" y="1009" on="0"/>
      </contour>
    </TTGlyph>
    <TTGlyph name="backslash" xMin="223" yMin="-213" xMax="794" yMax="1482">
      <contour>
        <pt x="682" y="-138" on="1"/>
        <pt x="233" y="1390" on="1"/>
        <pt x="228" y="1410" on="0"/>
        <pt x="223" y="1430" on="0"/>
        <pt x="223" y="1437" on="1"/>
        <pt x="223" y="1451" on="0"/>
        <pt x="239" y="1474" on="0"/>
        <pt x="245" y="1474" on="1"/>
        <pt x="290" y="1482" on="1"/>
        <pt x="294" y="1482" on="1"/>
        <pt x="313" y="1482" on="0"/>
        <pt x="332" y="1420" on="1"/>
        <pt x="335" y="1411" on="0"/>
        <pt x="336" y="1407" on="1"/>
        <pt x="785" y="-124" on="1"/>
        <pt x="790" y="-135" on="0"/>
        <pt x="794" y="-160" on="0"/>
        <pt x="794" y="-170" on="1"/>
        <pt x="794" y="-184" on="0"/>
        <pt x="781" y="-204" on="0"/>
        <pt x="773" y="-206" on="1"/>
        <pt x="728" y="-213" on="1"/>
        <pt x="724" y="-213" on="1"/>
        <pt x="714" y="-213" on="0"/>
        <pt x="696" y="-183" on="0"/>
      </contour>
    </TTGlyph>
    <TTGlyph name="bar" xMin="425" yMin="-513" xMax="599" yMax="1712">
      <contour>
        <pt x="599" y="-459" on="1"/>
        <pt x="598" y="-481" on="0"/>
        <pt x="547" y="-513" on="0"/>
        <pt x="512" y="-513" on="1"/>
        <pt x="477" y="-513" on="0"/>
        <pt x="426" y="-481" on="0"/>
        <pt x="425" y="-459" on="1"/>
        <pt x="425" y="1661" on="1"/>
        <pt x="427" y="1682" on="0"/>
        <pt x="477" y="1712" on="0"/>
        <pt x="512" y="1712" on="1"/>
        <pt x="547" y="1712" on="0"/>
        <pt x="597" y="1682" on="0"/>
        <pt x="599" y="1661" on="1"/>
      </contour>
    </TTGlyph>
    <TTGlyph name="braceleft" xMin="199" yMin="-242" xMax="772" yMax="1391">
      <contour>
        <pt x="587" y="-134" on="1"/>
        <pt x="689" y="-134" on="1"/>
        <pt x="715" y="-134" on="0"/>
        <pt x="729" y="-157" on="0"/>
        <pt x="729" y="-185" on="1"/>
        <pt x="729" y="-226" on="0"/>
        <pt x="687" y="-242" on="0"/>
        <pt x="562" y="-242" on="1"/>
        <pt x="431" y="-242" on="0"/>
        <pt x="375" y="-213" on="0"/>
        <pt x="375" y="-146" on="1"/>
        <pt x="375" y="-30" on="0"/>
        <pt x="398" y="337" on="0"/>
        <pt x="398" y="404" on="1"/>
        <pt x="398" y="460" on="0"/>
        <pt x="374" y="497" on="0"/>
        <pt x="333" y="497" on="1"/>
        <pt x="282" y="497" on="1"/>
        <pt x="228" y="497" on="0"/>
        <pt x="199" y="521" on="0"/>
        <pt x="199" y="555" on="1"/>
        <pt x="199" y="596" on="0"/>
        <pt x="226" y="631" on="0"/>
        <pt x="256" y="631" on="1"/>
        <pt x="273" y="631" on="0"/>
        <pt x="328" y="625" on="0"/>
        <pt x="339" y="625" on="1"/>
        <pt x="380" y="625" on="0"/>
        <pt x="414" y="671" on="0"/>
        <pt x="414" y="738" on="1"/>
        <pt x="414" y="809" on="1"/>
        <pt x="414" y="1123" on="1"/>
        <pt x="414" y="1246" on="0"/>
        <pt x="419" y="1352" on="0"/>
        <pt x="424" y="1361" on="1"/>
        <pt x="434" y="1377" on="0"/>
        <pt x="495" y="1391" on="0"/>
        <pt x="602" y="1391" on="1"/>
        <pt x="634" y="1391" on="1"/>
        <pt x="733" y="1391" on="0"/>
        <pt x="772" y="1374" on="0"/>
        <pt x="772" y="1335" on="1"/>
        <pt x="772" y="1306" on="0"/>
        <pt x="756" y="1282" on="0"/>
        <pt x="731" y="1282" on="1"/>
        <pt x="630" y="1282" on="1"/>
        <pt x="603" y="1282" on="0"/>
        <pt x="575" y="1273" on="0"/>
        <pt x="568" y="1261" on="1"/>
        <pt x="563" y="1251" on="0"/>
        <pt x="551" y="1016" on="1"/>
        <pt x="544" y="854" on="0"/>
        <pt x="539" y="748" on="1"/>
        <pt x="538" y="739" on="0"/>
        <pt x="537" y="723" on="1"/>
        <pt x="531" y="574" on="0"/>
        <pt x="448" y="574" on="1"/>
        <pt x="440" y="574" on="1"/>
        <pt x="440" y="548" on="1"/>
        <pt x="452" y="548" on="1"/>
        <pt x="501" y="548" on="0"/>
        <pt x="529" y="508" on="0"/>
        <pt x="529" y="430" on="1"/>
        <pt x="529" y="404" on="0"/>
        <pt x="525" y="199" on="0"/>
        <pt x="525" y="123" on="1"/>
        <pt x="525" y="42" on="0"/>
        <pt x="524" y="-44" on="1"/>
        <pt x="523" y="-66" on="0"/>
        <pt x="523" y="-71" on="1"/>
        <pt x="523" y="-107" on="0"/>
        <pt x="550" y="-134" on="0"/>
      </contour>
    </TTGlyph>
    <TTGlyph name="braceright" xMin="197" yMin="-242" xMax="770" yMax="1391">
      <contour>
        <pt x="379" y="1282" on="1"/>
        <pt x="278" y="1282" on="1"/>
        <pt x="253" y="1282" on="0"/>
        <pt x="238" y="1306" on="0"/>
        <pt x="238" y="1335" on="1"/>
        <pt x="238" y="1374" on="0"/>
        <pt x="276" y="1391" on="0"/>
        <pt x="375" y="1391" on="1"/>
        <pt x="407" y="1391" on="1"/>
        <pt x="543" y="1391" on="0"/>
        <pt x="594" y="1361" on="0"/>
        <pt x="594" y="1296" on="1"/>
        <pt x="594" y="1180" on="0"/>
        <pt x="568" y="809" on="0"/>
        <pt x="568" y="744" on="1"/>
        <pt x="568" y="689" on="0"/>
        <pt x="594" y="651" on="0"/>
        <pt x="636" y="651" on="1"/>
        <pt x="687" y="651" on="1"/>
        <pt x="741" y="651" on="0"/>
        <pt x="770" y="627" on="0"/>
        <pt x="770" y="593" on="1"/>
        <pt x="770" y="553" on="0"/>
        <pt x="744" y="519" on="0"/>
        <pt x="713" y="519" on="1"/>
        <pt x="700" y="519" on="0"/>
        <pt x="644" y="523" on="0"/>
        <pt x="630" y="523" on="1"/>
        <pt x="589" y="523" on="0"/>
        <pt x="553" y="477" on="0"/>
        <pt x="553" y="424" on="1"/>
        <pt x="553" y="421" on="0"/>
        <pt x="553" y="411" on="1"/>
        <pt x="555" y="374" on="0"/>
        <pt x="555" y="341" on="1"/>
        <pt x="555" y="28" on="1"/>
        <pt x="555" y="-95" on="0"/>
        <pt x="550" y="-200" on="0"/>
        <pt x="544" y="-212" on="1"/>
        <pt x="534" y="-228" on="0"/>
        <pt x="464" y="-242" on="0"/>
        <pt x="365" y="-242" on="1"/>
        <pt x="240" y="-242" on="0"/>
        <pt x="197" y="-226" on="0"/>
        <pt x="197" y="-185" on="1"/>
        <pt x="197" y="-157" on="0"/>
        <pt x="212" y="-134" on="0"/>
        <pt x="238" y="-134" on="1"/>
        <pt x="339" y="-134" on="1"/>
        <pt x="365" y="-134" on="0"/>
        <pt x="394" y="-124" on="0"/>
        <pt x="400" y="-113" on="1"/>
        <pt x="407" y="-101" on="0"/>
        <pt x="415" y="84" on="1"/>
        <pt x="422" y="271" on="0"/>
        <pt x="428" y="400" on="1"/>
        <pt x="429" y="410" on="0"/>
        <pt x="430" y="427" on="1"/>
        <pt x="438" y="574" on="0"/>
        <pt x="521" y="574" on="1"/>
        <pt x="527" y="574" on="1"/>
        <pt x="527" y="600" on="1"/>
        <pt x="511" y="600" on="1"/>
        <pt x="466" y="600" on="0"/>
        <pt x="438" y="640" on="0"/>
        <pt x="438" y="720" on="1"/>
        <pt x="438" y="751" on="0"/>
        <pt x="441" y="928" on="0"/>
        <pt x="441" y="985" on="1"/>
        <pt x="441" y="1066" on="1"/>
        <pt x="441" y="1099" on="0"/>
        <pt x="443" y="1189" on="0"/>
        <pt x="443" y="1201" on="1"/>
        <pt x="443" y="1251" on="0"/>
        <pt x="417" y="1282" on="0"/>
      </contour>
    </TTGlyph>
    <TTGlyph name="bracketleft" xMin="329" yMin="-242" xMax="726" yMax="1391">
      <contour>
        <pt x="544" y="-134" on="1"/>
        <pt x="645" y="-134" on="1"/>
        <pt x="671" y="-134" on="0"/>
        <pt x="685" y="-157" on="0"/>
        <pt x="685" y="-185" on="1"/>
        <pt x="685" y="-225" on="0"/>
        <pt x="643" y="-242" on="0"/>
        <pt x="516" y="-242" on="1"/>
        <pt x="382" y="-242" on="0"/>
        <pt x="329" y="-213" on="0"/>
        <pt x="329" y="-142" on="1"/>
        <pt x="329" y="-82" on="0"/>
        <pt x="372" y="679" on="0"/>
        <pt x="372" y="996" on="1"/>
        <pt x="372" y="1032" on="0"/>
        <pt x="370" y="1163" on="0"/>
        <pt x="370" y="1191" on="1"/>
        <pt x="370" y="1280" on="1"/>
        <pt x="370" y="1356" on="0"/>
        <pt x="420" y="1391" on="0"/>
        <pt x="558" y="1391" on="1"/>
        <pt x="590" y="1391" on="1"/>
        <pt x="687" y="1391" on="0"/>
        <pt x="726" y="1374" on="0"/>
        <pt x="726" y="1335" on="1"/>
        <pt x="726" y="1306" on="0"/>
        <pt x="710" y="1282" on="0"/>
        <pt x="685" y="1282" on="1"/>
        <pt x="584" y="1282" on="1"/>
        <pt x="519" y="1282" on="0"/>
        <pt x="517" y="1211" on="1"/>
        <pt x="517" y="1192" on="0"/>
        <pt x="516" y="1180" on="1"/>
        <pt x="498" y="890" on="0"/>
        <pt x="479" y="313" on="0"/>
        <pt x="479" y="44" on="1"/>
        <pt x="479" y="18" on="0"/>
        <pt x="484" y="-64" on="0"/>
        <pt x="484" y="-79" on="1"/>
        <pt x="484" y="-113" on="0"/>
        <pt x="509" y="-134" on="0"/>
      </contour>
    </TTGlyph>
    <TTGlyph name="bracketright" xMin="220" yMin="-242" xMax="617" yMax="1391">
      <contour>
        <pt x="402" y="1282" on="1"/>
        <pt x="301" y="1282" on="1"/>
        <pt x="276" y="1282" on="0"/>
        <pt x="261" y="1306" on="0"/>
        <pt x="261" y="1335" on="1"/>
        <pt x="261" y="1374" on="0"/>
        <pt x="300" y="1391" on="0"/>
        <pt x="398" y="1391" on="1"/>
        <pt x="430" y="1391" on="1"/>
        <pt x="564" y="1391" on="0"/>
        <pt x="617" y="1361" on="0"/>
        <pt x="617" y="1292" on="1"/>
        <pt x="617" y="1212" on="0"/>
        <pt x="574" y="489" on="0"/>
        <pt x="574" y="214" on="1"/>
        <pt x="574" y="158" on="0"/>
        <pt x="576" y="44" on="0"/>
        <pt x="576" y="44" on="1"/>
        <pt x="576" y="-43" on="1"/>
        <pt x="576" y="-132" on="1"/>
        <pt x="576" y="-208" on="0"/>
        <pt x="527" y="-242" on="0"/>
        <pt x="388" y="-242" on="1"/>
        <pt x="263" y="-242" on="0"/>
        <pt x="220" y="-226" on="0"/>
        <pt x="220" y="-185" on="1"/>
        <pt x="220" y="-157" on="0"/>
        <pt x="235" y="-134" on="0"/>
        <pt x="261" y="-134" on="1"/>
        <pt x="363" y="-134" on="1"/>
        <pt x="427" y="-134" on="0"/>
        <pt x="429" y="-60" on="1"/>
        <pt x="430" y="-40" on="0"/>
        <pt x="430" y="-30" on="1"/>
        <pt x="448" y="248" on="0"/>
        <pt x="467" y="821" on="0"/>
        <pt x="467" y="1104" on="1"/>
        <pt x="467" y="1136" on="0"/>
        <pt x="462" y="1215" on="0"/>
        <pt x="462" y="1221" on="1"/>
        <pt x="462" y="1263" on="0"/>
        <pt x="437" y="1282" on="0"/>
      </contour>
    </TTGlyph>
    <TTGlyph name="breve" xMin="162" yMin="1138" xMax="956" yMax="1419">
      <contour>
        <pt x="559" y="1138" on="1"/>
        <pt x="389" y="1138" on="0"/>
        <pt x="163" y="1282" on="0"/>
        <pt x="163" y="1376" on="1"/>
        <pt x="163" y="1398" on="0"/>
        <pt x="177" y="1419" on="0"/>
        <pt x="193" y="1419" on="1"/>
        <pt x="223" y="1419" on="0"/>
        <pt x="283" y="1338" on="0"/>
        <pt x="302" y="1324" on="1"/>
        <pt x="342" y="1297" on="0"/>
        <pt x="471" y="1270" on="0"/>
        <pt x="559" y="1270" on="1"/>
        <pt x="650" y="1270" on="0"/>
        <pt x="779" y="1296" on="0"/>
        <pt x="816" y="1321" on="1"/>
        <pt x="836" y="1335" on="0"/>
        <pt x="896" y="1419" on="0"/>
        <pt x="925" y="1419" on="1"/>
        <pt x="941" y="1419" on="0"/>
        <pt x="955" y="1398" on="0"/>
        <pt x="955" y="1376" on="1"/>
        <pt x="955" y="1282" on="0"/>
        <pt x="729" y="1138" on="0"/>
      </contour>
    </TTGlyph>
    <TTGlyph name="brokenbar" xMin="448" yMin="-324" xMax="574" yMax="1524">
      <contour>
        <pt x="449" y="739" on="1"/>
        <pt x="449" y="1523" on="1"/>
        <pt x="573" y="1523" on="1"/>
        <pt x="573" y="739" on="1"/>
      </contour>
      <contour>
        <pt x="449" y="-323" on="1"/>
        <pt x="449" y="463" on="1"/>
        <pt x="573" y="463" on="1"/>
        <pt x="573" y="-323" on="1"/>
      </contour>
    </TTGlyph>
    <TTGlyph name="bullet" xMin="356" yMin="588" xMax="668" yMax="902">
      <contour>
        <pt x="357" y="744" on="1"/>
        <pt x="357" y="809" on="0"/>
        <pt x="448" y="901" on="0"/>
        <pt x="512" y="901" on="1"/>
        <pt x="576" y="901" on="0"/>
        <pt x="667" y="808" on="0"/>
        <pt x="667" y="744" on="1"/>
        <pt x="667" y="680" on="0"/>
        <pt x="576" y="589" on="0"/>
        <pt x="512" y="589" on="1"/>
        <pt x="447" y="589" on="0"/>
        <pt x="357" y="679" on="0"/>
      </contour>
    </TTGlyph>
    <TTGlyph name="c" xMin="11" yMin="-40" xMax="931" yMax="1006">
      <contour>
        <pt x="649" y="470" on="1"/>
        <pt x="579" y="476" on="1"/>
        <pt x="588" y="542" on="0"/>
        <pt x="596" y="641" on="0"/>
        <pt x="596" y="681" on="1"/>
        <pt x="596" y="785" on="0"/>
        <pt x="528" y="878" on="0"/>
        <pt x="454" y="878" on="1"/>
        <pt x="352" y="878" on="0"/>
        <pt x="178" y="598" on="0"/>
        <pt x="178" y="427" on="1"/>
        <pt x="178" y="250" on="0"/>
        <pt x="345" y="90" on="0"/>
        <pt x="526" y="90" on="1"/>
        <pt x="622" y="90" on="0"/>
        <pt x="800" y="129" on="0"/>
        <pt x="893" y="170" on="1"/>
        <pt x="931" y="77" on="1"/>
        <pt x="822" y="18" on="0"/>
        <pt x="591" y="-40" on="0"/>
        <pt x="463" y="-40" on="1"/>
        <pt x="240" y="-40" on="0"/>
        <pt x="11" y="159" on="0"/>
        <pt x="11" y="353" on="1"/>
        <pt x="11" y="482" on="0"/>
        <pt x="109" y="747" on="0"/>
        <pt x="192" y="842" on="1"/>
        <pt x="265" y="928" on="0"/>
        <pt x="426" y="1006" on="0"/>
        <pt x="528" y="1006" on="1"/>
        <pt x="649" y="1006" on="0"/>
        <pt x="748" y="950" on="0"/>
        <pt x="748" y="861" on="1"/>
        <pt x="748" y="781" on="0"/>
        <pt x="701" y="591" on="0"/>
      </contour>
    </TTGlyph>
    <TTGlyph name="cacute" xMin="11" yMin="-40" xMax="931" yMax="1436">
      <component glyphName="c" x="0" y="0" flags="0x1004"/>
      <component glyphName="acute" x="0" y="0" flags="0x1004"/>
    </TTGlyph>
    <TTGlyph name="caron" xMin="202" yMin="1101" xMax="916" yMax="1416">
      <contour>
        <pt x="559" y="1250" on="1"/>
        <pt x="857" y="1408" on="1"/>
        <pt x="862" y="1411" on="0"/>
        <pt x="873" y="1415" on="0"/>
        <pt x="877" y="1415" on="1"/>
        <pt x="893" y="1415" on="0"/>
        <pt x="915" y="1391" on="0"/>
        <pt x="915" y="1375" on="1"/>
        <pt x="915" y="1367" on="0"/>
        <pt x="909" y="1354" on="0"/>
        <pt x="903" y="1349" on="1"/>
        <pt x="616" y="1122" on="1"/>
        <pt x="602" y="1112" on="0"/>
        <pt x="573" y="1102" on="0"/>
        <pt x="559" y="1102" on="1"/>
        <pt x="542" y="1102" on="0"/>
        <pt x="514" y="1112" on="0"/>
        <pt x="502" y="1122" on="1"/>
        <pt x="215" y="1349" on="1"/>
        <pt x="209" y="1354" on="0"/>
        <pt x="203" y="1367" on="0"/>
        <pt x="203" y="1375" on="1"/>
        <pt x="203" y="1390" on="0"/>
        <pt x="226" y="1413" on="0"/>
        <pt x="241" y="1413" on="1"/>
        <pt x="250" y="1412" on="0"/>
        <pt x="258" y="1410" on="0"/>
        <pt x="261" y="1408" on="1"/>
      </contour>
    </TTGlyph>
    <TTGlyph name="ccaron" xMin="11" yMin="-40" xMax="931" yMax="1416">
      <component glyphName="c" x="0" y="0" flags="0x1004"/>
      <component glyphName="caron" x="0" y="0" flags="0x1004"/>
    </TTGlyph>
    <TTGlyph name="ccedilla" xMin="11" yMin="-411" xMax="931" yMax="1006">
      <component glyphName="c" x="0" y="0" flags="0x1004"/>
      <component glyphName="cedilla" x="0" y="0" flags="0x1004"/>
    </TTGlyph>
    <TTGlyph name="cedilla" xMin="106" yMin="-411" xMax="605" yMax="29">
      <contour>
        <pt x="403" y="28" on="1"/>
        <pt x="382" y="-73" on="1"/>
        <pt x="387" y="-73" on="0"/>
        <pt x="411" y="-71" on="0"/>
        <pt x="416" y="-71" on="1"/>
        <pt x="504" y="-71" on="0"/>
        <pt x="604" y="-159" on="0"/>
        <pt x="604" y="-237" on="1"/>
        <pt x="604" y="-318" on="0"/>
        <pt x="487" y="-410" on="0"/>
        <pt x="382" y="-410" on="1"/>
        <pt x="285" y="-410" on="0"/>
        <pt x="107" y="-344" on="0"/>
        <pt x="107" y="-304" on="1"/>
        <pt x="107" y="-288" on="0"/>
        <pt x="132" y="-267" on="0"/>
        <pt x="153" y="-267" on="1"/>
        <pt x="166" y="-267" on="0"/>
        <pt x="305" y="-317" on="0"/>
        <pt x="358" y="-317" on="1"/>
        <pt x="405" y="-317" on="0"/>
        <pt x="452" y="-274" on="0"/>
        <pt x="452" y="-232" on="1"/>
        <pt x="452" y="-195" on="0"/>
        <pt x="401" y="-156" on="0"/>
        <pt x="350" y="-156" on="1"/>
        <pt x="340" y="-156" on="0"/>
        <pt x="314" y="-159" on="0"/>
        <pt x="295" y="-162" on="1"/>
        <pt x="335" y="28" on="1"/>
      </contour>
    </TTGlyph>
    <TTGlyph name="cent" xMin="150" yMin="-158" xMax="848" yMax="1474">
      <contour>
        <pt x="369" y="-158" on="1"/>
        <pt x="380" y="8" on="0"/>
        <pt x="404" y="265" on="0"/>
        <pt x="417" y="379" on="1"/>
        <pt x="284" y="410" on="0"/>
        <pt x="150" y="543" on="0"/>
        <pt x="150" y="646" on="1"/>
        <pt x="150" y="773" on="0"/>
        <pt x="363" y="1030" on="0"/>
        <pt x="512" y="1069" on="1"/>
        <pt x="523" y="1144" on="0"/>
        <pt x="551" y="1309" on="0"/>
        <pt x="576" y="1445" on="1"/>
        <pt x="693" y="1474" on="1"/>
        <pt x="672" y="1358" on="0"/>
        <pt x="643" y="1162" on="0"/>
        <pt x="636" y="1082" on="1"/>
        <pt x="739" y="1078" on="0"/>
        <pt x="848" y="1025" on="0"/>
        <pt x="848" y="978" on="1"/>
        <pt x="848" y="935" on="0"/>
        <pt x="785" y="860" on="0"/>
        <pt x="743" y="860" on="1"/>
        <pt x="718" y="860" on="0"/>
        <pt x="614" y="947" on="0"/>
        <pt x="559" y="947" on="1"/>
        <pt x="459" y="947" on="0"/>
        <pt x="311" y="790" on="0"/>
        <pt x="311" y="675" on="1"/>
        <pt x="311" y="580" on="0"/>
        <pt x="422" y="480" on="0"/>
        <pt x="527" y="480" on="1"/>
        <pt x="649" y="480" on="0"/>
        <pt x="753" y="563" on="1"/>
        <pt x="771" y="577" on="0"/>
        <pt x="775" y="577" on="1"/>
        <pt x="790" y="577" on="0"/>
        <pt x="809" y="552" on="0"/>
        <pt x="809" y="533" on="1"/>
        <pt x="809" y="487" on="0"/>
        <pt x="656" y="404" on="0"/>
        <pt x="533" y="387" on="1"/>
        <pt x="521" y="278" on="0"/>
        <pt x="498" y="45" on="0"/>
        <pt x="485" y="-111" on="1"/>
      </contour>
    </TTGlyph>
    <TTGlyph name="circumflex" xMin="202" yMin="1096" xMax="916" yMax="1412">
      <contour>
        <pt x="559" y="1262" on="1"/>
        <pt x="263" y="1104" on="1"/>
        <pt x="260" y="1102" on="0"/>
        <pt x="252" y="1100" on="0"/>
        <pt x="243" y="1099" on="1"/>
        <pt x="227" y="1099" on="0"/>
        <pt x="203" y="1120" on="0"/>
        <pt x="203" y="1137" on="1"/>
        <pt x="203" y="1146" on="0"/>
        <pt x="210" y="1161" on="0"/>
        <pt x="215" y="1165" on="1"/>
        <pt x="502" y="1390" on="1"/>
        <pt x="516" y="1400" on="0"/>
        <pt x="545" y="1411" on="0"/>
        <pt x="559" y="1411" on="1"/>
        <pt x="573" y="1410" on="0"/>
        <pt x="602" y="1400" on="0"/>
        <pt x="616" y="1390" on="1"/>
        <pt x="903" y="1165" on="1"/>
        <pt x="909" y="1160" on="0"/>
        <pt x="915" y="1146" on="0"/>
        <pt x="915" y="1137" on="1"/>
        <pt x="915" y="1120" on="0"/>
        <pt x="893" y="1097" on="0"/>
        <pt x="877" y="1097" on="1"/>
        <pt x="873" y="1097" on="0"/>
        <pt x="862" y="1101" on="0"/>
        <pt x="857" y="1104" on="1"/>
      </contour>
    </TTGlyph>
    <TTGlyph name="colon" xMin="263" yMin="108" xMax="671" yMax="995">
      <contour>
        <pt x="493" y="636" on="1"/>
        <pt x="483" y="636" on="0"/>
        <pt x="447" y="660" on="0"/>
        <pt x="416" y="688" on="1"/>
        <pt x="372" y="725" on="0"/>
        <pt x="314" y="798" on="0"/>
        <pt x="314" y="814" on="1"/>
        <pt x="314" y="823" on="0"/>
        <pt x="338" y="860" on="0"/>
        <pt x="361" y="886" on="1"/>
        <pt x="404" y="935" on="0"/>
        <pt x="478" y="995" on="0"/>
        <pt x="495" y="995" on="1"/>
        <pt x="506" y="995" on="0"/>
        <pt x="560" y="955" on="0"/>
        <pt x="596" y="918" on="1"/>
        <pt x="632" y="882" on="0"/>
        <pt x="671" y="826" on="0"/>
        <pt x="671" y="814" on="1"/>
        <pt x="671" y="801" on="0"/>
        <pt x="629" y="747" on="0"/>
        <pt x="594" y="712" on="1"/>
        <pt x="556" y="674" on="0"/>
        <pt x="505" y="636" on="0"/>
      </contour>
      <contour>
        <pt x="441" y="108" on="1"/>
        <pt x="431" y="108" on="0"/>
        <pt x="397" y="132" on="0"/>
        <pt x="366" y="160" on="1"/>
        <pt x="321" y="197" on="0"/>
        <pt x="263" y="270" on="0"/>
        <pt x="263" y="287" on="1"/>
        <pt x="263" y="296" on="0"/>
        <pt x="285" y="329" on="0"/>
        <pt x="310" y="358" on="1"/>
        <pt x="353" y="407" on="0"/>
        <pt x="428" y="467" on="0"/>
        <pt x="443" y="467" on="1"/>
        <pt x="455" y="467" on="0"/>
        <pt x="506" y="428" on="0"/>
        <pt x="544" y="391" on="1"/>
        <pt x="581" y="353" on="0"/>
        <pt x="621" y="298" on="0"/>
        <pt x="621" y="287" on="1"/>
        <pt x="621" y="274" on="0"/>
        <pt x="579" y="217" on="0"/>
        <pt x="544" y="183" on="1"/>
        <pt x="507" y="146" on="0"/>
        <pt x="455" y="108" on="0"/>
      </contour>
    </TTGlyph>
    <TTGlyph name="comma" xMin="150" yMin="-324" xMax="600" yMax="300">
      <contour>
        <pt x="351" y="-22" on="1"/>
        <pt x="296" y="35" on="0"/>
        <pt x="241" y="105" on="0"/>
        <pt x="241" y="119" on="1"/>
        <pt x="241" y="130" on="0"/>
        <pt x="262" y="163" on="0"/>
        <pt x="288" y="192" on="1"/>
        <pt x="330" y="240" on="0"/>
        <pt x="406" y="300" on="0"/>
        <pt x="422" y="300" on="1"/>
        <pt x="434" y="300" on="0"/>
        <pt x="488" y="259" on="0"/>
        <pt x="527" y="220" on="1"/>
        <pt x="562" y="185" on="0"/>
        <pt x="600" y="131" on="0"/>
        <pt x="600" y="115" on="1"/>
        <pt x="600" y="57" on="0"/>
        <pt x="386" y="-203" on="0"/>
        <pt x="224" y="-324" on="1"/>
        <pt x="150" y="-255" on="1"/>
        <pt x="232" y="-180" on="0"/>
        <pt x="332" y="-65" on="0"/>
      </contour>
    </TTGlyph>
    <TTGlyph name="copyright" xMin="-12" yMin="220" xMax="1036" yMax="1268">
      <contour>
        <pt x="512" y="1193" on="1"/>
        <pt x="326" y="1193" on="0"/>
        <pt x="65" y="930" on="0"/>
        <pt x="65" y="744" on="1"/>
        <pt x="65" y="558" on="0"/>
        <pt x="326" y="297" on="0"/>
        <pt x="512" y="297" on="1"/>
        <pt x="698" y="297" on="0"/>
        <pt x="959" y="558" on="0"/>
        <pt x="959" y="744" on="1"/>
        <pt x="959" y="930" on="0"/>
        <pt x="697" y="1193" on="0"/>
      </contour>
      <contour>
        <pt x="-12" y="744" on="1"/>
        <pt x="-12" y="847" on="0"/>
        <pt x="67" y="1037" on="0"/>
        <pt x="141" y="1112" on="1"/>
        <pt x="216" y="1187" on="0"/>
        <pt x="410" y="1268" on="0"/>
        <pt x="514" y="1268" on="1"/>
        <pt x="617" y="1268" on="0"/>
        <pt x="810" y="1188" on="0"/>
        <pt x="883" y="1115" on="1"/>
        <pt x="955" y="1043" on="0"/>
        <pt x="1036" y="846" on="0"/>
        <pt x="1036" y="744" on="1"/>
        <pt x="1036" y="527" on="0"/>
        <pt x="730" y="220" on="0"/>
        <pt x="512" y="220" on="1"/>
        <pt x="406" y="220" on="0"/>
        <pt x="215" y="299" on="0"/>
        <pt x="141" y="373" on="1"/>
        <pt x="67" y="446" on="0"/>
        <pt x="-12" y="636" on="0"/>
      </contour>
      <contour>
        <pt x="620" y="572" on="1"/>
        <pt x="720" y="547" on="1"/>
        <pt x="700" y="457" on="0"/>
        <pt x="599" y="364" on="0"/>
        <pt x="520" y="364" on="1"/>
        <pt x="403" y="364" on="0"/>
        <pt x="281" y="560" on="0"/>
        <pt x="281" y="746" on="1"/>
        <pt x="281" y="929" on="0"/>
        <pt x="400" y="1126" on="0"/>
        <pt x="512" y="1126" on="1"/>
        <pt x="602" y="1126" on="0"/>
        <pt x="710" y="1018" on="0"/>
        <pt x="718" y="920" on="1"/>
        <pt x="607" y="912" on="1"/>
        <pt x="597" y="972" on="0"/>
        <pt x="552" y="1023" on="0"/>
        <pt x="512" y="1023" on="1"/>
        <pt x="455" y="1023" on="0"/>
        <pt x="397" y="885" on="0"/>
        <pt x="397" y="746" on="1"/>
        <pt x="397" y="601" on="0"/>
        <pt x="457" y="469" on="0"/>
        <pt x="522" y="469" on="1"/>
        <pt x="561" y="469" on="0"/>
        <pt x="603" y="513" on="0"/>
      </contour>
    </TTGlyph>
    <TTGlyph name="currency" xMin="0" yMin="429" xMax="1034" yMax="1460">
      <contour>
        <pt x="221" y="945" on="1"/>
        <pt x="221" y="822" on="0"/>
        <pt x="395" y="648" on="0"/>
        <pt x="518" y="648" on="1"/>
        <pt x="641" y="648" on="0"/>
        <pt x="817" y="823" on="0"/>
        <pt x="817" y="945" on="1"/>
        <pt x="817" y="1069" on="0"/>
        <pt x="642" y="1244" on="0"/>
        <pt x="518" y="1244" on="1"/>
        <pt x="395" y="1244" on="0"/>
        <pt x="221" y="1068" on="0"/>
      </contour>
      <contour>
        <pt x="273" y="627" on="1"/>
        <pt x="75" y="430" on="1"/>
        <pt x="1" y="504" on="1"/>
        <pt x="198" y="699" on="1"/>
        <pt x="157" y="755" on="0"/>
        <pt x="115" y="878" on="0"/>
        <pt x="115" y="945" on="1"/>
        <pt x="115" y="1011" on="0"/>
        <pt x="157" y="1132" on="0"/>
        <pt x="198" y="1188" on="1"/>
        <pt x="1" y="1386" on="1"/>
        <pt x="75" y="1459" on="1"/>
        <pt x="273" y="1263" on="1"/>
        <pt x="326" y="1305" on="0"/>
        <pt x="449" y="1348" on="0"/>
        <pt x="518" y="1348" on="1"/>
        <pt x="586" y="1348" on="0"/>
        <pt x="708" y="1305" on="0"/>
        <pt x="764" y="1263" on="1"/>
        <pt x="959" y="1459" on="1"/>
        <pt x="1033" y="1386" on="1"/>
        <pt x="836" y="1188" on="1"/>
        <pt x="877" y="1132" on="0"/>
        <pt x="919" y="1011" on="0"/>
        <pt x="919" y="945" on="1"/>
        <pt x="919" y="878" on="0"/>
        <pt x="877" y="755" on="0"/>
        <pt x="836" y="699" on="1"/>
        <pt x="1033" y="504" on="1"/>
        <pt x="959" y="430" on="1"/>
        <pt x="764" y="627" on="1"/>
        <pt x="708" y="584" on="0"/>
        <pt x="586" y="542" on="0"/>
        <pt x="518" y="542" on="1"/>
        <pt x="448" y="542" on="0"/>
        <pt x="327" y="584" on="0"/>
      </contour>
    </TTGlyph>
    <TTGlyph name="d" xMin="8" yMin="-33" xMax="1004" yMax="1514">
      <contour>
        <pt x="644" y="770" on="1"/>
        <pt x="562" y="797" on="0"/>
        <pt x="433" y="825" on="0"/>
        <pt x="383" y="825" on="1"/>
        <pt x="336" y="825" on="0"/>
        <pt x="276" y="788" on="0"/>
        <pt x="251" y="742" on="1"/>
        <pt x="215" y="676" on="0"/>
        <pt x="167" y="478" on="0"/>
        <pt x="167" y="392" on="1"/>
        <pt x="167" y="266" on="0"/>
        <pt x="254" y="117" on="0"/>
        <pt x="328" y="117" on="1"/>
        <pt x="436" y="117" on="0"/>
        <pt x="608" y="470" on="0"/>
      </contour>
      <contour>
        <pt x="595" y="202" on="1"/>
        <pt x="516" y="81" on="0"/>
        <pt x="367" y="-32" on="0"/>
        <pt x="286" y="-32" on="1"/>
        <pt x="161" y="-32" on="0"/>
        <pt x="8" y="178" on="0"/>
        <pt x="8" y="350" on="1"/>
        <pt x="8" y="465" on="0"/>
        <pt x="74" y="702" on="0"/>
        <pt x="132" y="795" on="1"/>
        <pt x="184" y="879" on="0"/>
        <pt x="351" y="958" on="0"/>
        <pt x="474" y="958" on="1"/>
        <pt x="522" y="958" on="0"/>
        <pt x="622" y="943" on="0"/>
        <pt x="678" y="926" on="1"/>
        <pt x="690" y="986" on="0"/>
        <pt x="711" y="1091" on="1"/>
        <pt x="797" y="1513" on="0"/>
        <pt x="860" y="1513" on="1"/>
        <pt x="862" y="1513" on="0"/>
        <pt x="868" y="1512" on="0"/>
        <pt x="878" y="1509" on="1"/>
        <pt x="966" y="1480" on="1"/>
        <pt x="982" y="1473" on="0"/>
        <pt x="1004" y="1444" on="0"/>
        <pt x="1004" y="1429" on="1"/>
        <pt x="1004" y="1405" on="0"/>
        <pt x="901" y="1150" on="0"/>
        <pt x="866" y="1041" on="1"/>
        <pt x="813" y="877" on="0"/>
        <pt x="753" y="486" on="0"/>
        <pt x="753" y="307" on="1"/>
        <pt x="753" y="206" on="0"/>
        <pt x="768" y="129" on="0"/>
        <pt x="785" y="129" on="1"/>
        <pt x="812" y="129" on="0"/>
        <pt x="909" y="181" on="1"/>
        <pt x="933" y="195" on="0"/>
        <pt x="946" y="201" on="1"/>
        <pt x="991" y="111" on="1"/>
        <pt x="899" y="52" on="0"/>
        <pt x="727" y="-21" on="0"/>
        <pt x="690" y="-21" on="1"/>
        <pt x="647" y="-21" on="0"/>
        <pt x="605" y="68" on="0"/>
      </contour>
    </TTGlyph>
    <TTGlyph name="dagger" xMin="145" yMin="65" xMax="934" yMax="1346">
      <contour>
        <pt x="646" y="1345" on="1"/>
        <pt x="633" y="1269" on="0"/>
        <pt x="605" y="1076" on="0"/>
        <pt x="604" y="1069" on="1"/>
        <pt x="696" y="1077" on="0"/>
        <pt x="859" y="1085" on="0"/>
        <pt x="934" y="1086" on="1"/>
        <pt x="914" y="961" on="1"/>
        <pt x="855" y="953" on="0"/>
        <pt x="635" y="939" on="0"/>
        <pt x="587" y="933" on="1"/>
        <pt x="562" y="716" on="0"/>
        <pt x="534" y="334" on="0"/>
        <pt x="530" y="191" on="1"/>
        <pt x="530" y="158" on="0"/>
        <pt x="508" y="119" on="0"/>
        <pt x="483" y="107" on="1"/>
        <pt x="401" y="68" on="1"/>
        <pt x="400" y="67" on="0"/>
        <pt x="397" y="66" on="0"/>
        <pt x="394" y="66" on="1"/>
        <pt x="382" y="66" on="0"/>
        <pt x="367" y="91" on="0"/>
        <pt x="367" y="113" on="1"/>
        <pt x="367" y="148" on="0"/>
        <pt x="405" y="517" on="0"/>
        <pt x="449" y="921" on="1"/>
        <pt x="371" y="917" on="0"/>
        <pt x="219" y="895" on="0"/>
        <pt x="145" y="878" on="1"/>
        <pt x="157" y="1005" on="1"/>
        <pt x="233" y="1026" on="0"/>
        <pt x="389" y="1052" on="0"/>
        <pt x="467" y="1057" on="1"/>
        <pt x="472" y="1106" on="0"/>
        <pt x="492" y="1236" on="0"/>
        <pt x="511" y="1335" on="1"/>
      </contour>
    </TTGlyph>
    <TTGlyph name="daggerdbl" xMin="114" yMin="65" xMax="934" yMax="1346">
      <contour>
        <pt x="645" y="1345" on="1"/>
        <pt x="633" y="1269" on="0"/>
        <pt x="605" y="1076" on="0"/>
        <pt x="604" y="1069" on="1"/>
        <pt x="696" y="1077" on="0"/>
        <pt x="859" y="1085" on="0"/>
        <pt x="933" y="1086" on="1"/>
        <pt x="914" y="961" on="1"/>
        <pt x="855" y="953" on="0"/>
        <pt x="635" y="939" on="0"/>
        <pt x="586" y="933" on="1"/>
        <pt x="579" y="876" on="0"/>
        <pt x="567" y="735" on="0"/>
        <pt x="560" y="638" on="1"/>
        <pt x="658" y="648" on="0"/>
        <pt x="827" y="658" on="0"/>
        <pt x="903" y="659" on="1"/>
        <pt x="882" y="532" on="1"/>
        <pt x="816" y="525" on="0"/>
        <pt x="580" y="507" on="0"/>
        <pt x="548" y="504" on="1"/>
        <pt x="539" y="414" on="0"/>
        <pt x="536" y="285" on="1"/>
        <pt x="533" y="132" on="0"/>
        <pt x="482" y="107" on="1"/>
        <pt x="401" y="68" on="1"/>
        <pt x="400" y="67" on="0"/>
        <pt x="397" y="66" on="0"/>
        <pt x="393" y="66" on="1"/>
        <pt x="381" y="66" on="0"/>
        <pt x="367" y="91" on="0"/>
        <pt x="367" y="113" on="1"/>
        <pt x="367" y="138" on="0"/>
        <pt x="386" y="348" on="0"/>
        <pt x="401" y="493" on="1"/>
        <pt x="314" y="486" on="0"/>
        <pt x="176" y="464" on="0"/>
        <pt x="115" y="449" on="1"/>
        <pt x="125" y="576" on="1"/>
        <pt x="194" y="596" on="0"/>
        <pt x="340" y="621" on="0"/>
        <pt x="416" y="625" on="1"/>
        <pt x="425" y="693" on="0"/>
        <pt x="441" y="836" on="0"/>
        <pt x="448" y="921" on="1"/>
        <pt x="371" y="917" on="0"/>
        <pt x="218" y="895" on="0"/>
        <pt x="145" y="878" on="1"/>
        <pt x="156" y="1005" on="1"/>
        <pt x="233" y="1026" on="0"/>
        <pt x="388" y="1052" on="0"/>
        <pt x="467" y="1057" on="1"/>
        <pt x="472" y="1106" on="0"/>
        <pt x="492" y="1236" on="0"/>
        <pt x="510" y="1335" on="1"/>
      </contour>
    </TTGlyph>
    <TTGlyph name="dcroat" xMin="5" yMin="-33" xMax="1179" yMax="1514">
      <contour>
        <pt x="732" y="1217" on="1"/>
        <pt x="739" y="1246" on="0"/>
        <pt x="752" y="1301" on="1"/>
        <pt x="806" y="1513" on="0"/>
        <pt x="853" y="1513" on="1"/>
        <pt x="858" y="1513" on="0"/>
        <pt x="868" y="1511" on="1"/>
        <pt x="871" y="1510" on="0"/>
        <pt x="874" y="1509" on="1"/>
        <pt x="963" y="1480" on="1"/>
        <pt x="979" y="1473" on="0"/>
        <pt x="1001" y="1444" on="0"/>
        <pt x="1001" y="1429" on="1"/>
        <pt x="1001" y="1402" on="0"/>
        <pt x="963" y="1312" on="1"/>
        <pt x="937" y="1252" on="0"/>
        <pt x="923" y="1215" on="1"/>
        <pt x="973" y="1212" on="0"/>
        <pt x="1056" y="1209" on="0"/>
        <pt x="1088" y="1209" on="1"/>
        <pt x="1114" y="1209" on="1"/>
        <pt x="1154" y="1209" on="0"/>
        <pt x="1179" y="1191" on="0"/>
        <pt x="1179" y="1171" on="1"/>
        <pt x="1179" y="1135" on="0"/>
        <pt x="1116" y="1100" on="0"/>
        <pt x="1054" y="1100" on="1"/>
        <pt x="993" y="1100" on="0"/>
        <pt x="920" y="1101" on="0"/>
        <pt x="885" y="1102" on="1"/>
        <pt x="820" y="914" on="0"/>
        <pt x="750" y="505" on="0"/>
        <pt x="750" y="307" on="1"/>
        <pt x="750" y="206" on="0"/>
        <pt x="765" y="129" on="0"/>
        <pt x="782" y="129" on="1"/>
        <pt x="809" y="129" on="0"/>
        <pt x="906" y="181" on="1"/>
        <pt x="930" y="195" on="0"/>
        <pt x="943" y="201" on="1"/>
        <pt x="988" y="111" on="1"/>
        <pt x="896" y="52" on="0"/>
        <pt x="724" y="-21" on="0"/>
        <pt x="687" y="-21" on="1"/>
        <pt x="644" y="-21" on="0"/>
        <pt x="602" y="68" on="0"/>
        <pt x="592" y="202" on="1"/>
        <pt x="513" y="81" on="0"/>
        <pt x="364" y="-32" on="0"/>
        <pt x="283" y="-32" on="1"/>
        <pt x="158" y="-32" on="0"/>
        <pt x="5" y="178" on="0"/>
        <pt x="5" y="350" on="1"/>
        <pt x="5" y="465" on="0"/>
        <pt x="71" y="702" on="0"/>
        <pt x="129" y="795" on="1"/>
        <pt x="181" y="879" on="0"/>
        <pt x="348" y="958" on="0"/>
        <pt x="471" y="958" on="1"/>
        <pt x="522" y="958" on="0"/>
        <pt x="621" y="943" on="0"/>
        <pt x="675" y="927" on="1"/>
        <pt x="682" y="978" on="0"/>
        <pt x="698" y="1065" on="0"/>
        <pt x="706" y="1102" on="1"/>
        <pt x="631" y="1100" on="0"/>
        <pt x="481" y="1094" on="0"/>
        <pt x="477" y="1094" on="1"/>
        <pt x="442" y="1094" on="0"/>
        <pt x="416" y="1120" on="0"/>
        <pt x="416" y="1151" on="1"/>
        <pt x="416" y="1188" on="0"/>
        <pt x="453" y="1219" on="0"/>
        <pt x="501" y="1219" on="1"/>
        <pt x="503" y="1219" on="0"/>
        <pt x="516" y="1218" on="1"/>
        <pt x="581" y="1217" on="0"/>
        <pt x="645" y="1217" on="1"/>
      </contour>
      <contour>
        <pt x="641" y="770" on="1"/>
        <pt x="559" y="797" on="0"/>
        <pt x="430" y="825" on="0"/>
        <pt x="380" y="825" on="1"/>
        <pt x="333" y="825" on="0"/>
        <pt x="273" y="788" on="0"/>
        <pt x="248" y="742" on="1"/>
        <pt x="212" y="676" on="0"/>
        <pt x="164" y="478" on="0"/>
        <pt x="164" y="392" on="1"/>
        <pt x="164" y="266" on="0"/>
        <pt x="251" y="117" on="0"/>
        <pt x="325" y="117" on="1"/>
        <pt x="433" y="117" on="0"/>
        <pt x="605" y="470" on="0"/>
      </contour>
    </TTGlyph>
    <TTGlyph name="degree" xMin="341" yMin="963" xMax="867" yMax="1622">
      <contour>
        <pt x="740" y="1401" on="1"/>
        <pt x="740" y="1450" on="0"/>
        <pt x="689" y="1509" on="0"/>
        <pt x="646" y="1509" on="1"/>
        <pt x="576" y="1509" on="0"/>
        <pt x="462" y="1300" on="0"/>
        <pt x="462" y="1176" on="1"/>
        <pt x="462" y="1132" on="0"/>
        <pt x="514" y="1077" on="0"/>
        <pt x="555" y="1077" on="1"/>
        <pt x="628" y="1077" on="0"/>
        <pt x="740" y="1274" on="0"/>
      </contour>
      <contour>
        <pt x="679" y="1621" on="1"/>
        <pt x="759" y="1621" on="0"/>
        <pt x="867" y="1497" on="0"/>
        <pt x="867" y="1401" on="1"/>
        <pt x="867" y="1234" on="0"/>
        <pt x="662" y="964" on="0"/>
        <pt x="537" y="964" on="1"/>
        <pt x="450" y="964" on="0"/>
        <pt x="341" y="1087" on="0"/>
        <pt x="341" y="1186" on="1"/>
        <pt x="341" y="1355" on="0"/>
        <pt x="547" y="1621" on="0"/>
      </contour>
    </TTGlyph>
    <TTGlyph name="dieresis" xMin="170" yMin="1124" xMax="950" yMax="1376">
      <contour>
        <pt x="699" y="1252" on="1"/>
        <pt x="699" y="1302" on="0"/>
        <pt x="773" y="1375" on="0"/>
        <pt x="824" y="1375" on="1"/>
        <pt x="876" y="1375" on="0"/>
        <pt x="949" y="1303" on="0"/>
        <pt x="949" y="1252" on="1"/>
        <pt x="949" y="1196" on="0"/>
        <pt x="879" y="1125" on="0"/>
        <pt x="824" y="1125" on="1"/>
        <pt x="772" y="1125" on="0"/>
        <pt x="699" y="1199" on="0"/>
      </contour>
      <contour>
        <pt x="171" y="1252" on="1"/>
        <pt x="171" y="1302" on="0"/>
        <pt x="245" y="1375" on="0"/>
        <pt x="296" y="1375" on="1"/>
        <pt x="347" y="1375" on="0"/>
        <pt x="419" y="1303" on="0"/>
        <pt x="419" y="1252" on="1"/>
        <pt x="419" y="1196" on="0"/>
        <pt x="350" y="1125" on="0"/>
        <pt x="296" y="1125" on="1"/>
        <pt x="244" y="1125" on="0"/>
        <pt x="171" y="1199" on="0"/>
      </contour>
    </TTGlyph>
    <TTGlyph name="divide" xMin="64" yMin="313" xMax="960" yMax="1181">
      <contour>
        <pt x="404" y="1072" on="1"/>
        <pt x="404" y="1118" on="0"/>
        <pt x="467" y="1181" on="0"/>
        <pt x="512" y="1181" on="1"/>
        <pt x="554" y="1181" on="0"/>
        <pt x="620" y="1115" on="0"/>
        <pt x="620" y="1072" on="1"/>
        <pt x="620" y="1029" on="0"/>
        <pt x="555" y="964" on="0"/>
        <pt x="512" y="964" on="1"/>
        <pt x="467" y="964" on="0"/>
        <pt x="404" y="1027" on="0"/>
      </contour>
      <contour>
        <pt x="406" y="422" on="1"/>
        <pt x="406" y="465" on="0"/>
        <pt x="469" y="530" on="0"/>
        <pt x="512" y="530" on="1"/>
        <pt x="554" y="530" on="0"/>
        <pt x="620" y="464" on="0"/>
        <pt x="620" y="422" on="1"/>
        <pt x="620" y="379" on="0"/>
        <pt x="555" y="313" on="0"/>
        <pt x="512" y="313" on="1"/>
        <pt x="466" y="313" on="0"/>
        <pt x="406" y="375" on="0"/>
      </contour>
      <contour>
        <pt x="65" y="674" on="1"/>
        <pt x="65" y="818" on="1"/>
        <pt x="959" y="818" on="1"/>
        <pt x="959" y="674" on="1"/>
      </contour>
    </TTGlyph>
    <TTGlyph name="dollar" xMin="122" yMin="-239" xMax="871" yMax="1569">
      <contour>
        <pt x="373" y="-239" on="1"/>
        <pt x="379" y="-130" on="0"/>
        <pt x="402" y="102" on="1"/>
        <pt x="405" y="128" on="1"/>
        <pt x="377" y="128" on="1"/>
        <pt x="239" y="128" on="0"/>
        <pt x="122" y="196" on="0"/>
        <pt x="122" y="276" on="1"/>
        <pt x="122" y="365" on="0"/>
        <pt x="190" y="478" on="0"/>
        <pt x="243" y="478" on="1"/>
        <pt x="273" y="478" on="0"/>
        <pt x="311" y="449" on="0"/>
        <pt x="311" y="427" on="1"/>
        <pt x="311" y="409" on="0"/>
        <pt x="292" y="341" on="0"/>
        <pt x="292" y="328" on="1"/>
        <pt x="292" y="294" on="0"/>
        <pt x="357" y="261" on="0"/>
        <pt x="424" y="261" on="1"/>
        <pt x="550" y="261" on="0"/>
        <pt x="688" y="361" on="0"/>
        <pt x="688" y="450" on="1"/>
        <pt x="688" y="504" on="0"/>
        <pt x="591" y="588" on="0"/>
        <pt x="434" y="658" on="1"/>
        <pt x="417" y="665" on="0"/>
        <pt x="384" y="679" on="1"/>
        <pt x="171" y="772" on="0"/>
        <pt x="171" y="874" on="1"/>
        <pt x="171" y="972" on="0"/>
        <pt x="339" y="1145" on="0"/>
        <pt x="487" y="1198" on="1"/>
        <pt x="496" y="1298" on="0"/>
        <pt x="518" y="1471" on="0"/>
        <pt x="529" y="1540" on="1"/>
        <pt x="656" y="1569" on="1"/>
        <pt x="652" y="1487" on="0"/>
        <pt x="638" y="1330" on="1"/>
        <pt x="634" y="1280" on="0"/>
        <pt x="632" y="1254" on="1"/>
        <pt x="670" y="1263" on="0"/>
        <pt x="729" y="1273" on="0"/>
        <pt x="750" y="1273" on="1"/>
        <pt x="814" y="1273" on="0"/>
        <pt x="871" y="1219" on="0"/>
        <pt x="871" y="1158" on="1"/>
        <pt x="871" y="1067" on="0"/>
        <pt x="830" y="989" on="0"/>
        <pt x="780" y="989" on="1"/>
        <pt x="742" y="989" on="0"/>
        <pt x="719" y="1009" on="0"/>
        <pt x="719" y="1038" on="1"/>
        <pt x="719" y="1045" on="0"/>
        <pt x="723" y="1086" on="0"/>
        <pt x="723" y="1099" on="1"/>
        <pt x="723" y="1110" on="0"/>
        <pt x="695" y="1131" on="0"/>
        <pt x="676" y="1131" on="1"/>
        <pt x="577" y="1131" on="0"/>
        <pt x="343" y="991" on="0"/>
        <pt x="343" y="919" on="1"/>
        <pt x="343" y="868" on="0"/>
        <pt x="472" y="812" on="1"/>
        <pt x="572" y="770" on="0"/>
        <pt x="642" y="734" on="1"/>
        <pt x="750" y="681" on="0"/>
        <pt x="850" y="547" on="0"/>
        <pt x="850" y="454" on="1"/>
        <pt x="850" y="345" on="0"/>
        <pt x="680" y="181" on="0"/>
        <pt x="529" y="146" on="1"/>
        <pt x="527" y="74" on="0"/>
        <pt x="519" y="-86" on="0"/>
        <pt x="513" y="-186" on="1"/>
      </contour>
    </TTGlyph>
    <TTGlyph name="dotaccent" xMin="429" yMin="1134" xMax="691" yMax="1398">
      <contour>
        <pt x="561" y="1397" on="1"/>
        <pt x="615" y="1397" on="0"/>
        <pt x="690" y="1321" on="0"/>
        <pt x="690" y="1266" on="1"/>
        <pt x="690" y="1209" on="0"/>
        <pt x="618" y="1135" on="0"/>
        <pt x="561" y="1135" on="1"/>
        <pt x="506" y="1135" on="0"/>
        <pt x="430" y="1211" on="0"/>
        <pt x="430" y="1266" on="1"/>
        <pt x="430" y="1319" on="0"/>
        <pt x="508" y="1397" on="0"/>
      </contour>
    </TTGlyph>
    <TTGlyph name="dotlessi" xMin="-107" yMin="-31" xMax="1000" yMax="964">
      <contour>
        <pt x="328" y="402" on="1"/>
        <pt x="231" y="323" on="0"/>
        <pt x="38" y="178" on="0"/>
        <pt x="-58" y="114" on="1"/>
        <pt x="-107" y="190" on="1"/>
        <pt x="-13" y="254" on="0"/>
        <pt x="202" y="414" on="0"/>
        <pt x="329" y="518" on="1"/>
        <pt x="333" y="535" on="0"/>
        <pt x="340" y="569" on="1"/>
        <pt x="422" y="964" on="0"/>
        <pt x="603" y="964" on="1"/>
        <pt x="621" y="964" on="0"/>
        <pt x="633" y="949" on="0"/>
        <pt x="633" y="921" on="1"/>
        <pt x="633" y="843" on="0"/>
        <pt x="552" y="677" on="0"/>
        <pt x="470" y="588" on="1"/>
        <pt x="465" y="533" on="0"/>
        <pt x="459" y="433" on="0"/>
        <pt x="459" y="385" on="1"/>
        <pt x="459" y="218" on="0"/>
        <pt x="545" y="84" on="0"/>
        <pt x="648" y="84" on="1"/>
        <pt x="714" y="84" on="0"/>
        <pt x="864" y="138" on="0"/>
        <pt x="955" y="194" on="1"/>
        <pt x="1000" y="116" on="1"/>
        <pt x="906" y="46" on="0"/>
        <pt x="697" y="-31" on="0"/>
        <pt x="603" y="-31" on="1"/>
        <pt x="459" y="-31" on="0"/>
        <pt x="328" y="155" on="0"/>
        <pt x="328" y="359" on="1"/>
      </contour>
    </TTGlyph>
    <TTGlyph name="e" xMin="18" yMin="-57" xMax="1002" yMax="1042">
      <contour>
        <pt x="192" y="350" on="1"/>
        <pt x="366" y="444" on="0"/>
        <pt x="555" y="681" on="0"/>
        <pt x="555" y="804" on="1"/>
        <pt x="555" y="866" on="0"/>
        <pt x="506" y="931" on="0"/>
        <pt x="459" y="931" on="1"/>
        <pt x="368" y="931" on="0"/>
        <pt x="179" y="642" on="0"/>
        <pt x="179" y="471" on="1"/>
        <pt x="179" y="444" on="0"/>
        <pt x="186" y="383" on="0"/>
      </contour>
      <contour>
        <pt x="221" y="242" on="1"/>
        <pt x="256" y="160" on="0"/>
        <pt x="399" y="81" on="0"/>
        <pt x="516" y="81" on="1"/>
        <pt x="624" y="81" on="0"/>
        <pt x="845" y="137" on="0"/>
        <pt x="959" y="193" on="1"/>
        <pt x="1002" y="115" on="1"/>
        <pt x="878" y="32" on="0"/>
        <pt x="598" y="-57" on="0"/>
        <pt x="461" y="-57" on="1"/>
        <pt x="249" y="-57" on="0"/>
        <pt x="18" y="172" on="0"/>
        <pt x="18" y="382" on="1"/>
        <pt x="18" y="643" on="0"/>
        <pt x="310" y="1042" on="0"/>
        <pt x="496" y="1042" on="1"/>
        <pt x="598" y="1042" on="0"/>
        <pt x="730" y="920" on="0"/>
        <pt x="730" y="827" on="1"/>
        <pt x="730" y="690" on="0"/>
        <pt x="475" y="395" on="0"/>
      </contour>
    </TTGlyph>
    <TTGlyph name="eacute" xMin="18" yMin="-57" xMax="1002" yMax="1436">
      <component glyphName="e" x="0" y="0" flags="0x1004"/>
      <component glyphName="acute" x="-59" y="0" flags="0x1004"/>
    </TTGlyph>
    <TTGlyph name="ecircumflex" xMin="18" yMin="-57" xMax="1002" yMax="1412">
      <component glyphName="e" x="0" y="0" flags="0x1004"/>
      <component glyphName="circumflex" x="-59" y="0" flags="0x1004"/>
    </TTGlyph>
    <TTGlyph name="edieresis" xMin="18" yMin="-57" xMax="1002" yMax="1376">
      <component glyphName="e" x="0" y="0" flags="0x1004"/>
      <component glyphName="dieresis" x="-59" y="0" flags="0x1004"/>
    </TTGlyph>
    <TTGlyph name="egrave" xMin="18" yMin="-57" xMax="1002" yMax="1436">
      <component glyphName="e" x="0" y="0" flags="0x1004"/>
      <component glyphName="grave" x="-59" y="0" flags="0x1004"/>
    </TTGlyph>
    <TTGlyph name="eight" xMin="132" yMin="-1" xMax="855" yMax="1364">
      <contour>
        <pt x="452" y="617" on="1"/>
        <pt x="364" y="529" on="0"/>
        <pt x="264" y="355" on="0"/>
        <pt x="264" y="291" on="1"/>
        <pt x="264" y="215" on="0"/>
        <pt x="356" y="127" on="0"/>
        <pt x="434" y="127" on="1"/>
        <pt x="519" y="127" on="0"/>
        <pt x="630" y="234" on="0"/>
        <pt x="630" y="318" on="1"/>
        <pt x="630" y="386" on="0"/>
        <pt x="543" y="532" on="0"/>
      </contour>
      <contour>
        <pt x="472" y="809" on="1"/>
        <pt x="517" y="861" on="1"/>
        <pt x="736" y="1111" on="0"/>
        <pt x="806" y="1111" on="1"/>
        <pt x="826" y="1111" on="0"/>
        <pt x="854" y="1082" on="0"/>
        <pt x="854" y="1060" on="1"/>
        <pt x="854" y="1003" on="0"/>
        <pt x="709" y="880" on="1"/>
        <pt x="601" y="787" on="0"/>
        <pt x="539" y="723" on="1"/>
        <pt x="547" y="713" on="0"/>
        <pt x="564" y="695" on="1"/>
        <pt x="765" y="486" on="0"/>
        <pt x="765" y="352" on="1"/>
        <pt x="765" y="201" on="0"/>
        <pt x="552" y="0" on="0"/>
        <pt x="389" y="0" on="1"/>
        <pt x="271" y="0" on="0"/>
        <pt x="133" y="140" on="0"/>
        <pt x="133" y="259" on="1"/>
        <pt x="133" y="365" on="0"/>
        <pt x="247" y="580" on="0"/>
        <pt x="367" y="698" on="1"/>
        <pt x="310" y="761" on="0"/>
        <pt x="250" y="902" on="0"/>
        <pt x="250" y="973" on="1"/>
        <pt x="250" y="1141" on="0"/>
        <pt x="509" y="1363" on="0"/>
        <pt x="712" y="1363" on="1"/>
        <pt x="747" y="1363" on="0"/>
        <pt x="790" y="1340" on="0"/>
        <pt x="790" y="1323" on="1"/>
        <pt x="790" y="1278" on="0"/>
        <pt x="737" y="1204" on="0"/>
        <pt x="701" y="1204" on="1"/>
        <pt x="688" y="1204" on="0"/>
        <pt x="629" y="1211" on="0"/>
        <pt x="612" y="1211" on="1"/>
        <pt x="515" y="1211" on="0"/>
        <pt x="392" y="1084" on="0"/>
        <pt x="392" y="983" on="1"/>
        <pt x="392" y="934" on="0"/>
        <pt x="431" y="850" on="0"/>
      </contour>
    </TTGlyph>
    <TTGlyph name="ellipsis" xMin="15" yMin="-26" xMax="1009" yMax="261">
      <contour>
        <pt x="510" y="-26" on="1"/>
        <pt x="503" y="-26" on="0"/>
        <pt x="473" y="-5" on="0"/>
        <pt x="448" y="16" on="1"/>
        <pt x="413" y="46" on="0"/>
        <pt x="369" y="104" on="0"/>
        <pt x="369" y="117" on="1"/>
        <pt x="369" y="139" on="0"/>
        <pt x="491" y="261" on="0"/>
        <pt x="512" y="261" on="1"/>
        <pt x="521" y="261" on="0"/>
        <pt x="560" y="231" on="0"/>
        <pt x="590" y="200" on="1"/>
        <pt x="622" y="166" on="0"/>
        <pt x="653" y="126" on="0"/>
        <pt x="653" y="117" on="1"/>
        <pt x="653" y="110" on="0"/>
        <pt x="633" y="81" on="0"/>
        <pt x="613" y="60" on="1"/>
        <pt x="577" y="19" on="0"/>
        <pt x="523" y="-26" on="0"/>
      </contour>
      <contour>
        <pt x="866" y="-26" on="1"/>
        <pt x="858" y="-26" on="0"/>
        <pt x="829" y="-5" on="0"/>
        <pt x="804" y="16" on="1"/>
        <pt x="769" y="46" on="0"/>
        <pt x="724" y="104" on="0"/>
        <pt x="724" y="117" on="1"/>
        <pt x="724" y="139" on="0"/>
        <pt x="845" y="261" on="0"/>
        <pt x="866" y="261" on="1"/>
        <pt x="875" y="261" on="0"/>
        <pt x="916" y="230" on="0"/>
        <pt x="945" y="200" on="1"/>
        <pt x="978" y="166" on="0"/>
        <pt x="1009" y="126" on="0"/>
        <pt x="1009" y="117" on="1"/>
        <pt x="1009" y="110" on="0"/>
        <pt x="988" y="81" on="0"/>
        <pt x="969" y="60" on="1"/>
        <pt x="932" y="19" on="0"/>
        <pt x="879" y="-26" on="0"/>
      </contour>
      <contour>
        <pt x="156" y="-26" on="1"/>
        <pt x="150" y="-26" on="0"/>
        <pt x="124" y="-8" on="0"/>
        <pt x="97" y="16" on="1"/>
        <pt x="61" y="47" on="0"/>
        <pt x="15" y="105" on="0"/>
        <pt x="15" y="117" on="1"/>
        <pt x="15" y="139" on="0"/>
        <pt x="138" y="261" on="0"/>
        <pt x="158" y="261" on="1"/>
        <pt x="168" y="261" on="0"/>
        <pt x="206" y="231" on="0"/>
        <pt x="236" y="200" on="1"/>
        <pt x="269" y="166" on="0"/>
        <pt x="300" y="126" on="0"/>
        <pt x="300" y="117" on="1"/>
        <pt x="300" y="111" on="0"/>
        <pt x="283" y="87" on="0"/>
        <pt x="260" y="60" on="1"/>
        <pt x="223" y="19" on="0"/>
        <pt x="169" y="-26" on="0"/>
      </contour>
    </TTGlyph>
    <TTGlyph name="emdash" xMin="15" yMin="536" xMax="1009" yMax="655">
      <contour>
        <pt x="99" y="537" on="1"/>
        <pt x="52" y="537" on="0"/>
        <pt x="15" y="560" on="0"/>
        <pt x="15" y="586" on="1"/>
        <pt x="15" y="624" on="0"/>
        <pt x="56" y="654" on="0"/>
        <pt x="110" y="654" on="1"/>
        <pt x="161" y="654" on="0"/>
        <pt x="307" y="652" on="0"/>
        <pt x="330" y="652" on="1"/>
        <pt x="595" y="652" on="0"/>
        <pt x="840" y="645" on="1"/>
        <pt x="875" y="644" on="0"/>
        <pt x="882" y="644" on="1"/>
        <pt x="901" y="644" on="0"/>
        <pt x="945" y="646" on="0"/>
        <pt x="948" y="646" on="1"/>
        <pt x="977" y="646" on="0"/>
        <pt x="1009" y="625" on="0"/>
        <pt x="1009" y="607" on="1"/>
        <pt x="1009" y="576" on="0"/>
        <pt x="916" y="541" on="0"/>
        <pt x="832" y="541" on="1"/>
        <pt x="819" y="541" on="0"/>
        <pt x="592" y="545" on="0"/>
        <pt x="493" y="545" on="1"/>
        <pt x="301" y="545" on="0"/>
        <pt x="127" y="538" on="1"/>
        <pt x="104" y="537" on="0"/>
      </contour>
    </TTGlyph>
    <TTGlyph name="endash" xMin="261" yMin="536" xMax="763" yMax="655">
      <contour>
        <pt x="302" y="537" on="1"/>
        <pt x="279" y="537" on="0"/>
        <pt x="262" y="560" on="0"/>
        <pt x="262" y="592" on="1"/>
        <pt x="262" y="627" on="0"/>
        <pt x="286" y="654" on="0"/>
        <pt x="315" y="654" on="1"/>
        <pt x="317" y="654" on="0"/>
        <pt x="327" y="654" on="1"/>
        <pt x="370" y="652" on="0"/>
        <pt x="415" y="652" on="1"/>
        <pt x="580" y="652" on="1"/>
        <pt x="700" y="652" on="0"/>
        <pt x="762" y="635" on="0"/>
        <pt x="762" y="609" on="1"/>
        <pt x="762" y="576" on="0"/>
        <pt x="717" y="541" on="0"/>
        <pt x="673" y="541" on="1"/>
        <pt x="658" y="541" on="0"/>
        <pt x="547" y="545" on="0"/>
        <pt x="504" y="545" on="1"/>
        <pt x="404" y="545" on="0"/>
        <pt x="315" y="538" on="1"/>
        <pt x="303" y="537" on="0"/>
      </contour>
    </TTGlyph>
    <TTGlyph name="equal" xMin="109" yMin="407" xMax="774" yMax="873">
      <contour>
        <pt x="135" y="849" on="1"/>
        <pt x="374" y="853" on="0"/>
        <pt x="676" y="865" on="0"/>
        <pt x="773" y="873" on="1"/>
        <pt x="749" y="750" on="1"/>
        <pt x="652" y="741" on="0"/>
        <pt x="348" y="730" on="0"/>
        <pt x="110" y="727" on="1"/>
      </contour>
      <contour>
        <pt x="136" y="529" on="1"/>
        <pt x="374" y="533" on="0"/>
        <pt x="676" y="544" on="0"/>
        <pt x="773" y="553" on="1"/>
        <pt x="749" y="430" on="1"/>
        <pt x="652" y="422" on="0"/>
        <pt x="349" y="410" on="0"/>
        <pt x="110" y="407" on="1"/>
      </contour>
    </TTGlyph>
    <TTGlyph name="eth" xMin="50" yMin="-45" xMax="966" yMax="1508">
      <contour>
        <pt x="682" y="740" on="1"/>
        <pt x="625" y="775" on="0"/>
        <pt x="519" y="813" on="0"/>
        <pt x="476" y="813" on="1"/>
        <pt x="366" y="813" on="0"/>
        <pt x="223" y="556" on="0"/>
        <pt x="223" y="356" on="1"/>
        <pt x="223" y="221" on="0"/>
        <pt x="300" y="100" on="0"/>
        <pt x="385" y="100" on="1"/>
        <pt x="508" y="100" on="0"/>
        <pt x="682" y="439" on="0"/>
        <pt x="682" y="694" on="1"/>
      </contour>
      <contour>
        <pt x="672" y="897" on="1"/>
        <pt x="660" y="958" on="0"/>
        <pt x="632" y="1057" on="0"/>
        <pt x="614" y="1103" on="1"/>
        <pt x="556" y="1083" on="0"/>
        <pt x="419" y="1024" on="0"/>
        <pt x="409" y="1024" on="1"/>
        <pt x="391" y="1024" on="0"/>
        <pt x="364" y="1070" on="0"/>
        <pt x="364" y="1094" on="1"/>
        <pt x="364" y="1114" on="0"/>
        <pt x="459" y="1166" on="0"/>
        <pt x="563" y="1202" on="1"/>
        <pt x="537" y="1262" on="0"/>
        <pt x="461" y="1399" on="0"/>
        <pt x="461" y="1412" on="1"/>
        <pt x="461" y="1443" on="0"/>
        <pt x="565" y="1507" on="0"/>
        <pt x="603" y="1507" on="1"/>
        <pt x="632" y="1507" on="0"/>
        <pt x="685" y="1414" on="0"/>
        <pt x="733" y="1272" on="1"/>
        <pt x="810" y="1300" on="0"/>
        <pt x="897" y="1325" on="0"/>
        <pt x="917" y="1325" on="1"/>
        <pt x="938" y="1325" on="0"/>
        <pt x="965" y="1276" on="0"/>
        <pt x="965" y="1242" on="1"/>
        <pt x="965" y="1217" on="0"/>
        <pt x="899" y="1202" on="1"/>
        <pt x="826" y="1184" on="0"/>
        <pt x="771" y="1165" on="1"/>
        <pt x="798" y="1081" on="0"/>
        <pt x="826" y="878" on="0"/>
        <pt x="826" y="763" on="1"/>
        <pt x="826" y="422" on="0"/>
        <pt x="551" y="-44" on="0"/>
        <pt x="351" y="-44" on="1"/>
        <pt x="212" y="-44" on="0"/>
        <pt x="51" y="149" on="0"/>
        <pt x="51" y="316" on="1"/>
        <pt x="51" y="557" on="0"/>
        <pt x="321" y="955" on="0"/>
        <pt x="482" y="955" on="1"/>
        <pt x="532" y="955" on="0"/>
        <pt x="627" y="926" on="0"/>
      </contour>
    </TTGlyph>
    <TTGlyph name="exclam" xMin="268" yMin="-35" xMax="696" yMax="1418">
      <contour>
        <pt x="416" y="-35" on="1"/>
        <pt x="404" y="-35" on="0"/>
        <pt x="353" y="5" on="0"/>
        <pt x="318" y="40" on="1"/>
        <pt x="298" y="60" on="0"/>
        <pt x="269" y="103" on="0"/>
        <pt x="269" y="112" on="1"/>
        <pt x="269" y="134" on="0"/>
        <pt x="393" y="256" on="0"/>
        <pt x="416" y="256" on="1"/>
        <pt x="437" y="256" on="0"/>
        <pt x="560" y="133" on="0"/>
        <pt x="560" y="112" on="1"/>
        <pt x="560" y="102" on="0"/>
        <pt x="529" y="60" on="0"/>
        <pt x="501" y="32" on="1"/>
        <pt x="470" y="1" on="0"/>
        <pt x="424" y="-35" on="0"/>
      </contour>
      <contour>
        <pt x="695" y="1418" on="1"/>
        <pt x="667" y="1213" on="0"/>
        <pt x="591" y="790" on="0"/>
        <pt x="543" y="574" on="1"/>
        <pt x="540" y="564" on="1"/>
        <pt x="507" y="406" on="0"/>
        <pt x="448" y="406" on="1"/>
        <pt x="409" y="406" on="0"/>
        <pt x="371" y="439" on="0"/>
        <pt x="371" y="473" on="1"/>
        <pt x="371" y="500" on="0"/>
        <pt x="451" y="974" on="0"/>
        <pt x="466" y="1187" on="1"/>
        <pt x="468" y="1204" on="0"/>
        <pt x="470" y="1238" on="1"/>
        <pt x="478" y="1394" on="0"/>
        <pt x="543" y="1401" on="1"/>
      </contour>
    </TTGlyph>
    <TTGlyph name="exclamdown" xMin="268" yMin="-35" xMax="696" yMax="1418">
      <contour>
        <pt x="549" y="1418" on="1"/>
        <pt x="560" y="1418" on="0"/>
        <pt x="611" y="1378" on="0"/>
        <pt x="647" y="1344" on="1"/>
        <pt x="667" y="1322" on="0"/>
        <pt x="695" y="1280" on="0"/>
        <pt x="695" y="1272" on="1"/>
        <pt x="695" y="1249" on="0"/>
        <pt x="571" y="1128" on="0"/>
        <pt x="549" y="1128" on="1"/>
        <pt x="528" y="1128" on="0"/>
        <pt x="405" y="1251" on="0"/>
        <pt x="405" y="1272" on="1"/>
        <pt x="405" y="1281" on="0"/>
        <pt x="436" y="1321" on="0"/>
        <pt x="466" y="1352" on="1"/>
        <pt x="502" y="1388" on="0"/>
        <pt x="540" y="1418" on="0"/>
      </contour>
      <contour>
        <pt x="269" y="-35" on="1"/>
        <pt x="299" y="181" on="0"/>
        <pt x="375" y="605" on="0"/>
        <pt x="422" y="809" on="1"/>
        <pt x="425" y="823" on="1"/>
        <pt x="458" y="977" on="0"/>
        <pt x="519" y="977" on="1"/>
        <pt x="558" y="977" on="0"/>
        <pt x="594" y="945" on="0"/>
        <pt x="594" y="911" on="1"/>
        <pt x="594" y="881" on="0"/>
        <pt x="512" y="406" on="0"/>
        <pt x="499" y="197" on="1"/>
        <pt x="498" y="179" on="0"/>
        <pt x="495" y="146" on="1"/>
        <pt x="487" y="-10" on="0"/>
        <pt x="422" y="-17" on="1"/>
      </contour>
    </TTGlyph>
    <TTGlyph name="f" xMin="56" yMin="-410" xMax="831" yMax="1468">
      <contour>
        <pt x="288" y="546" on="1"/>
        <pt x="246" y="496" on="0"/>
        <pt x="162" y="411" on="0"/>
        <pt x="116" y="372" on="1"/>
        <pt x="57" y="448" on="1"/>
        <pt x="154" y="531" on="0"/>
        <pt x="291" y="691" on="0"/>
        <pt x="336" y="779" on="1"/>
        <pt x="411" y="921" on="0"/>
        <pt x="524" y="1290" on="0"/>
        <pt x="527" y="1298" on="1"/>
        <pt x="545" y="1346" on="0"/>
        <pt x="585" y="1393" on="0"/>
        <pt x="631" y="1415" on="1"/>
        <pt x="701" y="1450" on="0"/>
        <pt x="752" y="1468" on="0"/>
        <pt x="771" y="1468" on="1"/>
        <pt x="797" y="1468" on="0"/>
        <pt x="830" y="1436" on="0"/>
        <pt x="830" y="1411" on="1"/>
        <pt x="830" y="1380" on="0"/>
        <pt x="575" y="1010" on="0"/>
        <pt x="500" y="864" on="1"/>
        <pt x="427" y="723" on="0"/>
        <pt x="311" y="167" on="0"/>
        <pt x="311" y="-78" on="1"/>
        <pt x="311" y="-221" on="0"/>
        <pt x="389" y="-306" on="0"/>
        <pt x="508" y="-306" on="1"/>
        <pt x="578" y="-306" on="0"/>
        <pt x="612" y="-231" on="0"/>
        <pt x="612" y="-15" on="1"/>
        <pt x="612" y="39" on="0"/>
        <pt x="608" y="152" on="0"/>
        <pt x="603" y="208" on="1"/>
        <pt x="597" y="219" on="0"/>
        <pt x="587" y="234" on="1"/>
        <pt x="446" y="443" on="0"/>
        <pt x="446" y="531" on="1"/>
        <pt x="446" y="622" on="0"/>
        <pt x="491" y="726" on="0"/>
        <pt x="529" y="726" on="1"/>
        <pt x="590" y="726" on="0"/>
        <pt x="682" y="517" on="0"/>
        <pt x="705" y="323" on="1"/>
        <pt x="816" y="203" on="1"/>
        <pt x="759" y="135" on="1"/>
        <pt x="724" y="171" on="1"/>
        <pt x="740" y="82" on="0"/>
        <pt x="756" y="-76" on="0"/>
        <pt x="756" y="-145" on="1"/>
        <pt x="756" y="-313" on="0"/>
        <pt x="652" y="-410" on="0"/>
        <pt x="512" y="-410" on="1"/>
        <pt x="334" y="-410" on="0"/>
        <pt x="154" y="-257" on="0"/>
        <pt x="154" y="-106" on="1"/>
        <pt x="154" y="2" on="0"/>
        <pt x="269" y="472" on="1"/>
      </contour>
    </TTGlyph>
    <TTGlyph name="fi" xMin="-11" yMin="-347" xMax="1037" yMax="1415">
      <contour>
        <pt x="798" y="1173" on="1"/>
        <pt x="760" y="1210" on="1"/>
        <pt x="788" y="1262" on="0"/>
        <pt x="867" y="1364" on="0"/>
        <pt x="917" y="1415" on="1"/>
        <pt x="962" y="1401" on="0"/>
        <pt x="1017" y="1356" on="0"/>
        <pt x="1037" y="1316" on="1"/>
        <pt x="996" y="1273" on="0"/>
        <pt x="881" y="1203" on="0"/>
      </contour>
      <contour>
        <pt x="44" y="390" on="1"/>
        <pt x="-11" y="453" on="1"/>
        <pt x="133" y="579" on="0"/>
        <pt x="300" y="849" on="0"/>
        <pt x="357" y="1071" on="1"/>
        <pt x="363" y="1093" on="0"/>
        <pt x="372" y="1132" on="1"/>
        <pt x="413" y="1293" on="0"/>
        <pt x="444" y="1324" on="1"/>
        <pt x="479" y="1357" on="0"/>
        <pt x="572" y="1401" on="0"/>
        <pt x="605" y="1401" on="1"/>
        <pt x="629" y="1401" on="0"/>
        <pt x="655" y="1378" on="0"/>
        <pt x="655" y="1356" on="1"/>
        <pt x="655" y="1326" on="0"/>
        <pt x="404" y="934" on="0"/>
        <pt x="335" y="732" on="1"/>
        <pt x="269" y="536" on="0"/>
        <pt x="186" y="73" on="0"/>
        <pt x="186" y="-95" on="1"/>
        <pt x="186" y="-186" on="0"/>
        <pt x="244" y="-256" on="0"/>
        <pt x="317" y="-256" on="1"/>
        <pt x="396" y="-256" on="0"/>
        <pt x="436" y="-174" on="0"/>
        <pt x="436" y="0" on="1"/>
        <pt x="436" y="53" on="0"/>
        <pt x="433" y="168" on="0"/>
        <pt x="431" y="230" on="1"/>
        <pt x="376" y="304" on="0"/>
        <pt x="330" y="417" on="0"/>
        <pt x="330" y="474" on="1"/>
        <pt x="330" y="545" on="0"/>
        <pt x="370" y="641" on="0"/>
        <pt x="400" y="641" on="1"/>
        <pt x="420" y="641" on="0"/>
        <pt x="461" y="567" on="0"/>
        <pt x="474" y="507" on="1"/>
        <pt x="622" y="613" on="1"/>
        <pt x="671" y="857" on="0"/>
        <pt x="751" y="962" on="0"/>
        <pt x="834" y="962" on="1"/>
        <pt x="848" y="962" on="0"/>
        <pt x="861" y="939" on="0"/>
        <pt x="861" y="918" on="1"/>
        <pt x="861" y="815" on="0"/>
        <pt x="740" y="622" on="0"/>
        <pt x="737" y="614" on="1"/>
        <pt x="722" y="501" on="0"/>
        <pt x="709" y="351" on="0"/>
        <pt x="709" y="289" on="1"/>
        <pt x="709" y="188" on="0"/>
        <pt x="774" y="92" on="0"/>
        <pt x="842" y="92" on="1"/>
        <pt x="867" y="92" on="0"/>
        <pt x="920" y="102" on="0"/>
        <pt x="953" y="114" on="1"/>
        <pt x="977" y="29" on="1"/>
        <pt x="935" y="14" on="0"/>
        <pt x="865" y="0" on="0"/>
        <pt x="832" y="0" on="1"/>
        <pt x="704" y="0" on="0"/>
        <pt x="590" y="148" on="0"/>
        <pt x="590" y="313" on="1"/>
        <pt x="590" y="351" on="0"/>
        <pt x="597" y="442" on="0"/>
        <pt x="605" y="499" on="1"/>
        <pt x="493" y="418" on="1"/>
        <pt x="518" y="280" on="0"/>
        <pt x="544" y="18" on="0"/>
        <pt x="544" y="-110" on="1"/>
        <pt x="544" y="-263" on="0"/>
        <pt x="451" y="-347" on="0"/>
        <pt x="317" y="-347" on="1"/>
        <pt x="188" y="-347" on="0"/>
        <pt x="57" y="-223" on="0"/>
        <pt x="57" y="-100" on="1"/>
        <pt x="57" y="-45" on="0"/>
        <pt x="102" y="194" on="0"/>
        <pt x="176" y="519" on="1"/>
        <pt x="140" y="475" on="0"/>
        <pt x="75" y="411" on="0"/>
      </contour>
    </TTGlyph>
    <TTGlyph name="five" xMin="114" yMin="-2" xMax="859" yMax="1428">
      <contour>
        <pt x="231" y="1230" on="1"/>
        <pt x="258" y="1341" on="1"/>
        <pt x="363" y="1358" on="1"/>
        <pt x="388" y="1427" on="1"/>
        <pt x="551" y="1427" on="1"/>
        <pt x="527" y="1358" on="1"/>
        <pt x="810" y="1358" on="1"/>
        <pt x="832" y="1358" on="0"/>
        <pt x="859" y="1333" on="0"/>
        <pt x="859" y="1313" on="1"/>
        <pt x="859" y="1305" on="0"/>
        <pt x="853" y="1289" on="0"/>
        <pt x="848" y="1277" on="1"/>
        <pt x="822" y="1233" on="1"/>
        <pt x="813" y="1217" on="0"/>
        <pt x="762" y="1200" on="0"/>
        <pt x="723" y="1200" on="1"/>
        <pt x="473" y="1200" on="1"/>
        <pt x="448" y="1128" on="0"/>
        <pt x="378" y="947" on="0"/>
        <pt x="311" y="779" on="1"/>
        <pt x="329" y="751" on="1"/>
        <pt x="420" y="789" on="0"/>
        <pt x="541" y="820" on="0"/>
        <pt x="589" y="820" on="1"/>
        <pt x="701" y="820" on="0"/>
        <pt x="835" y="674" on="0"/>
        <pt x="835" y="553" on="1"/>
        <pt x="835" y="340" on="0"/>
        <pt x="518" y="-1" on="0"/>
        <pt x="307" y="-1" on="1"/>
        <pt x="207" y="-1" on="0"/>
        <pt x="114" y="57" on="0"/>
        <pt x="114" y="120" on="1"/>
        <pt x="114" y="157" on="0"/>
        <pt x="174" y="205" on="0"/>
        <pt x="220" y="205" on="1"/>
        <pt x="254" y="205" on="0"/>
        <pt x="316" y="114" on="0"/>
        <pt x="356" y="114" on="1"/>
        <pt x="446" y="114" on="0"/>
        <pt x="672" y="386" on="0"/>
        <pt x="672" y="518" on="1"/>
        <pt x="672" y="594" on="0"/>
        <pt x="593" y="677" on="0"/>
        <pt x="519" y="677" on="1"/>
        <pt x="463" y="677" on="0"/>
        <pt x="317" y="632" on="0"/>
        <pt x="301" y="632" on="1"/>
        <pt x="256" y="632" on="0"/>
        <pt x="173" y="723" on="0"/>
        <pt x="173" y="767" on="1"/>
        <pt x="173" y="827" on="0"/>
        <pt x="250" y="1039" on="1"/>
        <pt x="292" y="1156" on="0"/>
        <pt x="316" y="1226" on="1"/>
      </contour>
    </TTGlyph>
    <TTGlyph name="fl" xMin="-11" yMin="-347" xMax="1035" yMax="1401">
      <contour>
        <pt x="43" y="390" on="1"/>
        <pt x="-11" y="453" on="1"/>
        <pt x="133" y="578" on="0"/>
        <pt x="300" y="849" on="0"/>
        <pt x="357" y="1071" on="1"/>
        <pt x="363" y="1093" on="0"/>
        <pt x="372" y="1132" on="1"/>
        <pt x="413" y="1292" on="0"/>
        <pt x="444" y="1323" on="1"/>
        <pt x="479" y="1356" on="0"/>
        <pt x="572" y="1401" on="0"/>
        <pt x="605" y="1401" on="1"/>
        <pt x="629" y="1401" on="0"/>
        <pt x="655" y="1378" on="0"/>
        <pt x="655" y="1355" on="1"/>
        <pt x="655" y="1326" on="0"/>
        <pt x="404" y="933" on="0"/>
        <pt x="335" y="732" on="1"/>
        <pt x="269" y="536" on="0"/>
        <pt x="186" y="73" on="0"/>
        <pt x="186" y="-95" on="1"/>
        <pt x="186" y="-186" on="0"/>
        <pt x="244" y="-256" on="0"/>
        <pt x="317" y="-256" on="1"/>
        <pt x="396" y="-256" on="0"/>
        <pt x="436" y="-174" on="0"/>
        <pt x="436" y="0" on="1"/>
        <pt x="436" y="53" on="0"/>
        <pt x="433" y="168" on="0"/>
        <pt x="431" y="230" on="1"/>
        <pt x="376" y="304" on="0"/>
        <pt x="330" y="416" on="0"/>
        <pt x="330" y="474" on="1"/>
        <pt x="330" y="544" on="0"/>
        <pt x="370" y="640" on="0"/>
        <pt x="400" y="640" on="1"/>
        <pt x="418" y="640" on="0"/>
        <pt x="457" y="575" on="0"/>
        <pt x="470" y="521" on="1"/>
        <pt x="561" y="601" on="1"/>
        <pt x="578" y="938" on="0"/>
        <pt x="728" y="1385" on="0"/>
        <pt x="818" y="1385" on="1"/>
        <pt x="844" y="1385" on="0"/>
        <pt x="929" y="1350" on="0"/>
        <pt x="982" y="1318" on="1"/>
        <pt x="1012" y="1300" on="0"/>
        <pt x="1035" y="1260" on="0"/>
        <pt x="1035" y="1228" on="1"/>
        <pt x="1035" y="1161" on="0"/>
        <pt x="839" y="802" on="0"/>
        <pt x="686" y="615" on="1"/>
        <pt x="682" y="567" on="0"/>
        <pt x="679" y="489" on="0"/>
        <pt x="679" y="453" on="1"/>
        <pt x="679" y="260" on="0"/>
        <pt x="755" y="114" on="0"/>
        <pt x="852" y="114" on="1"/>
        <pt x="881" y="114" on="0"/>
        <pt x="948" y="125" on="0"/>
        <pt x="986" y="138" on="1"/>
        <pt x="1007" y="50" on="1"/>
        <pt x="956" y="31" on="0"/>
        <pt x="858" y="13" on="0"/>
        <pt x="812" y="13" on="1"/>
        <pt x="675" y="13" on="0"/>
        <pt x="561" y="194" on="0"/>
        <pt x="561" y="423" on="1"/>
        <pt x="561" y="483" on="1"/>
        <pt x="493" y="417" on="1"/>
        <pt x="518" y="280" on="0"/>
        <pt x="544" y="18" on="0"/>
        <pt x="544" y="-110" on="1"/>
        <pt x="544" y="-264" on="0"/>
        <pt x="451" y="-347" on="0"/>
        <pt x="317" y="-347" on="1"/>
        <pt x="188" y="-347" on="0"/>
        <pt x="57" y="-223" on="0"/>
        <pt x="57" y="-101" on="1"/>
        <pt x="57" y="-45" on="0"/>
        <pt x="102" y="194" on="0"/>
        <pt x="176" y="519" on="1"/>
        <pt x="140" y="475" on="0"/>
        <pt x="75" y="411" on="0"/>
      </contour>
      <contour>
        <pt x="687" y="775" on="1"/>
        <pt x="785" y="915" on="0"/>
        <pt x="910" y="1174" on="0"/>
        <pt x="910" y="1219" on="1"/>
        <pt x="910" y="1235" on="0"/>
        <pt x="865" y="1266" on="0"/>
        <pt x="842" y="1266" on="1"/>
        <pt x="803" y="1266" on="0"/>
        <pt x="708" y="978" on="0"/>
      </contour>
    </TTGlyph>
    <TTGlyph name="florin" xMin="-178" yMin="-270" xMax="1075" yMax="1389">
      <contour>
        <pt x="417" y="835" on="1"/>
        <pt x="454" y="1164" on="0"/>
        <pt x="603" y="1388" on="0"/>
        <pt x="758" y="1388" on="1"/>
        <pt x="865" y="1388" on="0"/>
        <pt x="1074" y="1301" on="0"/>
        <pt x="1074" y="1260" on="1"/>
        <pt x="1074" y="1231" on="0"/>
        <pt x="1006" y="1173" on="0"/>
        <pt x="979" y="1173" on="1"/>
        <pt x="939" y="1173" on="0"/>
        <pt x="813" y="1278" on="0"/>
        <pt x="755" y="1278" on="1"/>
        <pt x="636" y="1278" on="0"/>
        <pt x="578" y="885" on="1"/>
        <pt x="574" y="853" on="0"/>
        <pt x="571" y="835" on="1"/>
        <pt x="832" y="835" on="1"/>
        <pt x="849" y="835" on="0"/>
        <pt x="860" y="823" on="0"/>
        <pt x="860" y="799" on="1"/>
        <pt x="860" y="759" on="1"/>
        <pt x="860" y="726" on="0"/>
        <pt x="846" y="712" on="0"/>
        <pt x="807" y="712" on="1"/>
        <pt x="553" y="712" on="1"/>
        <pt x="544" y="654" on="0"/>
        <pt x="529" y="544" on="1"/>
        <pt x="416" y="-269" on="0"/>
        <pt x="140" y="-269" on="1"/>
        <pt x="32" y="-269" on="0"/>
        <pt x="-177" y="-181" on="0"/>
        <pt x="-177" y="-140" on="1"/>
        <pt x="-177" y="-112" on="0"/>
        <pt x="-109" y="-53" on="0"/>
        <pt x="-81" y="-53" on="1"/>
        <pt x="-43" y="-53" on="0"/>
        <pt x="86" y="-159" on="0"/>
        <pt x="146" y="-159" on="1"/>
        <pt x="274" y="-159" on="0"/>
        <pt x="357" y="417" on="1"/>
        <pt x="383" y="602" on="0"/>
        <pt x="399" y="710" on="1"/>
        <pt x="171" y="710" on="1"/>
        <pt x="146" y="711" on="0"/>
        <pt x="133" y="725" on="0"/>
        <pt x="132" y="759" on="1"/>
        <pt x="132" y="789" on="1"/>
        <pt x="132" y="821" on="0"/>
        <pt x="146" y="835" on="0"/>
        <pt x="166" y="835" on="1"/>
        <pt x="186" y="835" on="1"/>
      </contour>
    </TTGlyph>
    <TTGlyph name="four" xMin="40" yMin="-5" xMax="873" yMax="1393">
      <contour>
        <pt x="522" y="497" on="1"/>
        <pt x="543" y="626" on="0"/>
        <pt x="606" y="912" on="0"/>
        <pt x="652" y="1083" on="1"/>
        <pt x="615" y="1098" on="1"/>
        <pt x="486" y="882" on="0"/>
        <pt x="190" y="484" on="0"/>
        <pt x="190" y="466" on="1"/>
        <pt x="190" y="452" on="0"/>
        <pt x="203" y="432" on="0"/>
        <pt x="213" y="432" on="1"/>
        <pt x="219" y="432" on="0"/>
        <pt x="260" y="440" on="0"/>
        <pt x="289" y="447" on="1"/>
      </contour>
      <contour>
        <pt x="698" y="1393" on="1"/>
        <pt x="815" y="1358" on="1"/>
        <pt x="825" y="1355" on="0"/>
        <pt x="842" y="1336" on="0"/>
        <pt x="842" y="1326" on="1"/>
        <pt x="842" y="1314" on="0"/>
        <pt x="819" y="1228" on="1"/>
        <pt x="726" y="876" on="0"/>
        <pt x="673" y="532" on="1"/>
        <pt x="791" y="559" on="1"/>
        <pt x="794" y="559" on="0"/>
        <pt x="802" y="562" on="1"/>
        <pt x="834" y="568" on="0"/>
        <pt x="842" y="568" on="1"/>
        <pt x="857" y="568" on="0"/>
        <pt x="872" y="555" on="0"/>
        <pt x="872" y="544" on="1"/>
        <pt x="872" y="539" on="0"/>
        <pt x="871" y="533" on="0"/>
        <pt x="870" y="529" on="1"/>
        <pt x="860" y="481" on="1"/>
        <pt x="853" y="454" on="0"/>
        <pt x="822" y="428" on="0"/>
        <pt x="785" y="420" on="1"/>
        <pt x="656" y="388" on="1"/>
        <pt x="645" y="308" on="0"/>
        <pt x="639" y="188" on="1"/>
        <pt x="630" y="-3" on="0"/>
        <pt x="533" y="-5" on="1"/>
        <pt x="499" y="-5" on="0"/>
        <pt x="467" y="35" on="0"/>
        <pt x="467" y="76" on="1"/>
        <pt x="467" y="108" on="0"/>
        <pt x="483" y="255" on="0"/>
        <pt x="497" y="349" on="1"/>
        <pt x="261" y="297" on="1"/>
        <pt x="234" y="290" on="0"/>
        <pt x="202" y="286" on="0"/>
        <pt x="192" y="286" on="1"/>
        <pt x="128" y="286" on="0"/>
        <pt x="41" y="372" on="0"/>
        <pt x="41" y="432" on="1"/>
        <pt x="41" y="449" on="0"/>
        <pt x="495" y="1051" on="0"/>
      </contour>
    </TTGlyph>
    <TTGlyph name="fraction" xMin="135" yMin="-162" xMax="785" yMax="1431">
      <contour>
        <pt x="243" y="-93" on="1"/>
        <pt x="228" y="-132" on="0"/>
        <pt x="208" y="-161" on="0"/>
        <pt x="196" y="-161" on="1"/>
        <pt x="192" y="-161" on="1"/>
        <pt x="151" y="-152" on="1"/>
        <pt x="145" y="-149" on="0"/>
        <pt x="135" y="-130" on="0"/>
        <pt x="135" y="-120" on="1"/>
        <pt x="135" y="-111" on="0"/>
        <pt x="141" y="-87" on="0"/>
        <pt x="147" y="-72" on="1"/>
        <pt x="677" y="1361" on="1"/>
        <pt x="693" y="1402" on="0"/>
        <pt x="712" y="1430" on="0"/>
        <pt x="723" y="1430" on="1"/>
        <pt x="727" y="1430" on="1"/>
        <pt x="768" y="1418" on="1"/>
        <pt x="775" y="1417" on="0"/>
        <pt x="784" y="1397" on="0"/>
        <pt x="785" y="1383" on="1"/>
        <pt x="785" y="1379" on="0"/>
        <pt x="778" y="1359" on="0"/>
        <pt x="772" y="1341" on="1"/>
      </contour>
    </TTGlyph>
    <TTGlyph name="franc" xMin="29" yMin="80" xMax="1009" yMax="1410">
      <contour>
        <pt x="179" y="702" on="1"/>
        <pt x="179" y="81" on="1"/>
        <pt x="29" y="81" on="1"/>
        <pt x="29" y="1409" on="1"/>
        <pt x="743" y="1409" on="1"/>
        <pt x="743" y="1277" on="1"/>
        <pt x="179" y="1277" on="1"/>
        <pt x="179" y="829" on="1"/>
        <pt x="486" y="829" on="1"/>
        <pt x="473" y="885" on="0"/>
        <pt x="440" y="998" on="0"/>
        <pt x="421" y="1056" on="1"/>
        <pt x="550" y="1056" on="1"/>
        <pt x="568" y="999" on="0"/>
        <pt x="598" y="889" on="0"/>
        <pt x="609" y="833" on="1"/>
        <pt x="667" y="951" on="0"/>
        <pt x="784" y="1068" on="0"/>
        <pt x="842" y="1068" on="1"/>
        <pt x="913" y="1068" on="0"/>
        <pt x="1009" y="929" on="0"/>
        <pt x="1009" y="824" on="1"/>
        <pt x="1009" y="793" on="0"/>
        <pt x="1008" y="761" on="0"/>
        <pt x="1007" y="749" on="1"/>
        <pt x="908" y="748" on="1"/>
        <pt x="908" y="758" on="1"/>
        <pt x="908" y="836" on="0"/>
        <pt x="863" y="919" on="0"/>
        <pt x="822" y="919" on="1"/>
        <pt x="745" y="919" on="0"/>
        <pt x="645" y="660" on="0"/>
        <pt x="645" y="446" on="1"/>
        <pt x="645" y="81" on="1"/>
        <pt x="510" y="81" on="1"/>
        <pt x="510" y="597" on="1"/>
        <pt x="510" y="638" on="0"/>
        <pt x="507" y="682" on="0"/>
        <pt x="504" y="702" on="1"/>
      </contour>
    </TTGlyph>
    <TTGlyph name="g" xMin="-16" yMin="-414" xMax="882" yMax="1019">
      <contour>
        <pt x="59" y="-80" on="1"/>
        <pt x="143" y="-94" on="1"/>
        <pt x="141" y="-109" on="0"/>
        <pt x="123" y="-212" on="0"/>
        <pt x="116" y="-243" on="1"/>
        <pt x="195" y="-262" on="0"/>
        <pt x="338" y="-282" on="0"/>
        <pt x="405" y="-282" on="1"/>
        <pt x="542" y="-282" on="0"/>
        <pt x="642" y="-173" on="0"/>
        <pt x="646" y="49" on="1"/>
        <pt x="650" y="260" on="1"/>
        <pt x="555" y="153" on="0"/>
        <pt x="386" y="56" on="0"/>
        <pt x="296" y="56" on="1"/>
        <pt x="186" y="56" on="0"/>
        <pt x="66" y="196" on="0"/>
        <pt x="66" y="327" on="1"/>
        <pt x="66" y="450" on="0"/>
        <pt x="158" y="715" on="0"/>
        <pt x="235" y="816" on="1"/>
        <pt x="311" y="917" on="0"/>
        <pt x="497" y="1018" on="0"/>
        <pt x="604" y="1018" on="1"/>
        <pt x="718" y="1018" on="0"/>
        <pt x="881" y="961" on="0"/>
        <pt x="881" y="927" on="1"/>
        <pt x="881" y="918" on="0"/>
        <pt x="872" y="899" on="0"/>
        <pt x="863" y="891" on="1"/>
        <pt x="806" y="842" on="1"/>
        <pt x="787" y="827" on="0"/>
        <pt x="770" y="817" on="0"/>
        <pt x="763" y="816" on="1"/>
        <pt x="739" y="816" on="0"/>
        <pt x="603" y="887" on="0"/>
        <pt x="547" y="887" on="1"/>
        <pt x="472" y="887" on="0"/>
        <pt x="367" y="817" on="0"/>
        <pt x="320" y="737" on="1"/>
        <pt x="272" y="655" on="0"/>
        <pt x="222" y="479" on="0"/>
        <pt x="222" y="387" on="1"/>
        <pt x="222" y="287" on="0"/>
        <pt x="304" y="183" on="0"/>
        <pt x="381" y="183" on="1"/>
        <pt x="513" y="183" on="0"/>
        <pt x="662" y="464" on="0"/>
        <pt x="682" y="751" on="1"/>
        <pt x="875" y="762" on="1"/>
        <pt x="827" y="664" on="0"/>
        <pt x="786" y="412" on="0"/>
        <pt x="786" y="177" on="1"/>
        <pt x="786" y="148" on="0"/>
        <pt x="788" y="34" on="0"/>
        <pt x="788" y="7" on="1"/>
        <pt x="788" y="-218" on="0"/>
        <pt x="558" y="-413" on="0"/>
        <pt x="294" y="-413" on="1"/>
        <pt x="155" y="-413" on="0"/>
        <pt x="-15" y="-360" on="0"/>
        <pt x="-15" y="-319" on="1"/>
        <pt x="-15" y="-291" on="0"/>
        <pt x="14" y="-195" on="0"/>
      </contour>
    </TTGlyph>
    <TTGlyph name="gbreve" xMin="-16" yMin="-414" xMax="956" yMax="1419">
      <component glyphName="g" x="0" y="0" flags="0x1004"/>
      <component glyphName="breve" x="0" y="0" flags="0x1004"/>
    </TTGlyph>
    <TTGlyph name="germandbls" xMin="64" yMin="-44" xMax="866" yMax="1372">
      <contour>
        <pt x="194" y="57" on="1"/>
        <pt x="100" y="19" on="1"/>
        <pt x="99" y="19" on="0"/>
        <pt x="94" y="18" on="0"/>
        <pt x="91" y="18" on="1"/>
        <pt x="80" y="18" on="0"/>
        <pt x="64" y="43" on="0"/>
        <pt x="64" y="65" on="1"/>
        <pt x="64" y="112" on="0"/>
        <pt x="93" y="387" on="0"/>
        <pt x="117" y="539" on="1"/>
        <pt x="151" y="758" on="0"/>
        <pt x="205" y="1016" on="0"/>
        <pt x="236" y="1109" on="1"/>
        <pt x="291" y="1278" on="0"/>
        <pt x="436" y="1372" on="0"/>
        <pt x="582" y="1372" on="1"/>
        <pt x="712" y="1372" on="0"/>
        <pt x="863" y="1250" on="0"/>
        <pt x="863" y="1145" on="1"/>
        <pt x="863" y="1031" on="0"/>
        <pt x="698" y="830" on="0"/>
        <pt x="548" y="759" on="1"/>
        <pt x="697" y="737" on="0"/>
        <pt x="866" y="538" on="0"/>
        <pt x="866" y="382" on="1"/>
        <pt x="866" y="191" on="0"/>
        <pt x="658" y="-44" on="0"/>
        <pt x="486" y="-44" on="1"/>
        <pt x="385" y="-44" on="0"/>
        <pt x="279" y="32" on="0"/>
        <pt x="279" y="102" on="1"/>
        <pt x="279" y="153" on="0"/>
        <pt x="315" y="215" on="0"/>
        <pt x="344" y="215" on="1"/>
        <pt x="366" y="215" on="0"/>
        <pt x="468" y="69" on="0"/>
        <pt x="546" y="69" on="1"/>
        <pt x="627" y="69" on="0"/>
        <pt x="726" y="210" on="0"/>
        <pt x="726" y="328" on="1"/>
        <pt x="726" y="447" on="0"/>
        <pt x="607" y="614" on="0"/>
        <pt x="499" y="647" on="1"/>
        <pt x="464" y="658" on="0"/>
        <pt x="411" y="663" on="1"/>
        <pt x="359" y="668" on="0"/>
        <pt x="358" y="690" on="1"/>
        <pt x="358" y="763" on="0"/>
        <pt x="406" y="785" on="1"/>
        <pt x="412" y="788" on="0"/>
        <pt x="414" y="789" on="1"/>
        <pt x="564" y="862" on="0"/>
        <pt x="708" y="1011" on="0"/>
        <pt x="708" y="1092" on="1"/>
        <pt x="708" y="1164" on="0"/>
        <pt x="610" y="1256" on="0"/>
        <pt x="532" y="1256" on="1"/>
        <pt x="447" y="1256" on="0"/>
        <pt x="359" y="1066" on="0"/>
        <pt x="301" y="692" on="1"/>
        <pt x="299" y="677" on="0"/>
        <pt x="294" y="643" on="1"/>
        <pt x="250" y="364" on="0"/>
        <pt x="245" y="139" on="1"/>
        <pt x="245" y="107" on="0"/>
        <pt x="220" y="68" on="0"/>
      </contour>
    </TTGlyph>
    <TTGlyph name="grave" xMin="190" yMin="1088" xMax="787" yMax="1436">
      <contour>
        <pt x="759" y="1088" on="1"/>
        <pt x="218" y="1280" on="1"/>
        <pt x="204" y="1284" on="0"/>
        <pt x="191" y="1307" on="0"/>
        <pt x="191" y="1324" on="1"/>
        <pt x="191" y="1330" on="0"/>
        <pt x="193" y="1340" on="0"/>
        <pt x="195" y="1343" on="1"/>
        <pt x="229" y="1404" on="1"/>
        <pt x="238" y="1419" on="0"/>
        <pt x="263" y="1436" on="0"/>
        <pt x="278" y="1436" on="1"/>
        <pt x="282" y="1436" on="0"/>
        <pt x="290" y="1434" on="0"/>
        <pt x="294" y="1432" on="1"/>
        <pt x="786" y="1143" on="1"/>
      </contour>
    </TTGlyph>
    <TTGlyph name="greater" xMin="137" yMin="264" xMax="885" yMax="1029">
      <contour>
        <pt x="192" y="1029" on="1"/>
        <pt x="410" y="917" on="0"/>
        <pt x="742" y="770" on="0"/>
        <pt x="885" y="722" on="1"/>
        <pt x="862" y="578" on="1"/>
        <pt x="736" y="536" on="0"/>
        <pt x="425" y="404" on="0"/>
        <pt x="137" y="264" on="1"/>
        <pt x="160" y="393" on="1"/>
        <pt x="344" y="492" on="0"/>
        <pt x="612" y="614" on="0"/>
        <pt x="724" y="650" on="1"/>
        <pt x="617" y="687" on="0"/>
        <pt x="343" y="814" on="0"/>
        <pt x="173" y="905" on="1"/>
      </contour>
    </TTGlyph>
    <TTGlyph name="greaterequal" xMin="92" yMin="299" xMax="932" yMax="1246">
      <contour>
        <pt x="931" y="300" on="1"/>
        <pt x="93" y="300" on="1"/>
        <pt x="93" y="423" on="1"/>
        <pt x="931" y="423" on="1"/>
      </contour>
      <contour>
        <pt x="931" y="967" on="1"/>
        <pt x="931" y="874" on="1"/>
        <pt x="93" y="595" on="1"/>
        <pt x="93" y="731" on="1"/>
        <pt x="696" y="919" on="1"/>
        <pt x="93" y="1109" on="1"/>
        <pt x="93" y="1245" on="1"/>
      </contour>
    </TTGlyph>
    <TTGlyph name="guillemotleft" xMin="196" yMin="135" xMax="795" yMax="900">
      <contour>
        <pt x="330" y="523" on="1"/>
        <pt x="436" y="223" on="1"/>
        <pt x="441" y="209" on="0"/>
        <pt x="446" y="184" on="0"/>
        <pt x="447" y="178" on="1"/>
        <pt x="447" y="161" on="0"/>
        <pt x="407" y="135" on="0"/>
        <pt x="379" y="135" on="1"/>
        <pt x="365" y="135" on="0"/>
        <pt x="334" y="159" on="0"/>
        <pt x="326" y="178" on="1"/>
        <pt x="207" y="489" on="1"/>
        <pt x="202" y="504" on="0"/>
        <pt x="197" y="524" on="0"/>
        <pt x="197" y="531" on="1"/>
        <pt x="197" y="543" on="0"/>
        <pt x="206" y="568" on="0"/>
        <pt x="216" y="582" on="1"/>
        <pt x="394" y="864" on="1"/>
        <pt x="405" y="880" on="0"/>
        <pt x="441" y="900" on="0"/>
        <pt x="460" y="900" on="1"/>
        <pt x="484" y="900" on="0"/>
        <pt x="517" y="870" on="0"/>
        <pt x="517" y="849" on="1"/>
        <pt x="517" y="843" on="0"/>
        <pt x="504" y="816" on="0"/>
        <pt x="494" y="796" on="1"/>
      </contour>
      <contour>
        <pt x="608" y="523" on="1"/>
        <pt x="711" y="223" on="1"/>
        <pt x="716" y="209" on="0"/>
        <pt x="723" y="184" on="0"/>
        <pt x="723" y="178" on="1"/>
        <pt x="723" y="160" on="0"/>
        <pt x="684" y="135" on="0"/>
        <pt x="656" y="135" on="1"/>
        <pt x="642" y="135" on="0"/>
        <pt x="611" y="159" on="0"/>
        <pt x="604" y="178" on="1"/>
        <pt x="483" y="490" on="1"/>
        <pt x="477" y="504" on="0"/>
        <pt x="472" y="524" on="0"/>
        <pt x="472" y="531" on="1"/>
        <pt x="472" y="543" on="0"/>
        <pt x="482" y="568" on="0"/>
        <pt x="492" y="583" on="1"/>
        <pt x="672" y="865" on="1"/>
        <pt x="682" y="880" on="0"/>
        <pt x="719" y="900" on="0"/>
        <pt x="737" y="900" on="1"/>
        <pt x="761" y="900" on="0"/>
        <pt x="794" y="870" on="0"/>
        <pt x="794" y="849" on="1"/>
        <pt x="794" y="844" on="0"/>
        <pt x="784" y="822" on="0"/>
        <pt x="769" y="796" on="1"/>
      </contour>
    </TTGlyph>
    <TTGlyph name="guillemotright" xMin="114" yMin="133" xMax="713" yMax="898">
      <contour>
        <pt x="301" y="513" on="1"/>
        <pt x="196" y="813" on="1"/>
        <pt x="190" y="827" on="0"/>
        <pt x="185" y="850" on="0"/>
        <pt x="185" y="855" on="1"/>
        <pt x="185" y="873" on="0"/>
        <pt x="225" y="898" on="0"/>
        <pt x="253" y="898" on="1"/>
        <pt x="268" y="898" on="0"/>
        <pt x="299" y="874" on="0"/>
        <pt x="305" y="858" on="1"/>
        <pt x="424" y="546" on="1"/>
        <pt x="431" y="528" on="0"/>
        <pt x="435" y="509" on="0"/>
        <pt x="435" y="502" on="1"/>
        <pt x="435" y="490" on="0"/>
        <pt x="425" y="465" on="0"/>
        <pt x="416" y="451" on="1"/>
        <pt x="237" y="168" on="1"/>
        <pt x="227" y="153" on="0"/>
        <pt x="190" y="133" on="0"/>
        <pt x="172" y="133" on="1"/>
        <pt x="149" y="133" on="0"/>
        <pt x="115" y="165" on="0"/>
        <pt x="115" y="186" on="1"/>
        <pt x="115" y="192" on="0"/>
        <pt x="123" y="211" on="0"/>
        <pt x="138" y="237" on="1"/>
      </contour>
      <contour>
        <pt x="577" y="513" on="1"/>
        <pt x="473" y="813" on="1"/>
        <pt x="468" y="828" on="0"/>
        <pt x="463" y="850" on="0"/>
        <pt x="463" y="855" on="1"/>
        <pt x="463" y="873" on="0"/>
        <pt x="500" y="898" on="0"/>
        <pt x="528" y="898" on="1"/>
        <pt x="543" y="898" on="0"/>
        <pt x="575" y="874" on="0"/>
        <pt x="581" y="858" on="1"/>
        <pt x="702" y="547" on="1"/>
        <pt x="707" y="532" on="0"/>
        <pt x="712" y="508" on="0"/>
        <pt x="712" y="502" on="1"/>
        <pt x="712" y="490" on="0"/>
        <pt x="703" y="465" on="0"/>
        <pt x="693" y="451" on="1"/>
        <pt x="515" y="169" on="1"/>
        <pt x="504" y="153" on="0"/>
        <pt x="467" y="133" on="0"/>
        <pt x="447" y="133" on="1"/>
        <pt x="424" y="133" on="0"/>
        <pt x="390" y="165" on="0"/>
        <pt x="390" y="186" on="1"/>
        <pt x="390" y="194" on="0"/>
        <pt x="408" y="223" on="1"/>
        <pt x="413" y="232" on="0"/>
        <pt x="416" y="238" on="1"/>
      </contour>
    </TTGlyph>
    <TTGlyph name="guilsinglleft" xMin="344" yMin="159" xMax="645" yMax="876">
      <contour>
        <pt x="470" y="523" on="1"/>
        <pt x="569" y="242" on="1"/>
        <pt x="574" y="228" on="0"/>
        <pt x="579" y="205" on="0"/>
        <pt x="579" y="199" on="1"/>
        <pt x="579" y="183" on="0"/>
        <pt x="543" y="159" on="0"/>
        <pt x="515" y="159" on="1"/>
        <pt x="502" y="159" on="0"/>
        <pt x="473" y="181" on="0"/>
        <pt x="466" y="199" on="1"/>
        <pt x="352" y="491" on="1"/>
        <pt x="349" y="501" on="0"/>
        <pt x="345" y="522" on="0"/>
        <pt x="345" y="531" on="1"/>
        <pt x="345" y="541" on="0"/>
        <pt x="353" y="565" on="0"/>
        <pt x="363" y="579" on="1"/>
        <pt x="529" y="842" on="1"/>
        <pt x="540" y="857" on="0"/>
        <pt x="574" y="876" on="0"/>
        <pt x="591" y="876" on="1"/>
        <pt x="613" y="876" on="0"/>
        <pt x="644" y="848" on="0"/>
        <pt x="644" y="828" on="1"/>
        <pt x="644" y="823" on="0"/>
        <pt x="634" y="797" on="0"/>
        <pt x="623" y="779" on="1"/>
      </contour>
    </TTGlyph>
    <TTGlyph name="guilsinglright" xMin="283" yMin="157" xMax="584" yMax="874">
      <contour>
        <pt x="458" y="513" on="1"/>
        <pt x="358" y="795" on="1"/>
        <pt x="354" y="807" on="0"/>
        <pt x="349" y="829" on="0"/>
        <pt x="349" y="834" on="1"/>
        <pt x="349" y="851" on="0"/>
        <pt x="385" y="874" on="0"/>
        <pt x="413" y="874" on="1"/>
        <pt x="426" y="874" on="0"/>
        <pt x="456" y="852" on="0"/>
        <pt x="462" y="836" on="1"/>
        <pt x="573" y="545" on="1"/>
        <pt x="578" y="531" on="0"/>
        <pt x="583" y="508" on="0"/>
        <pt x="583" y="502" on="1"/>
        <pt x="583" y="493" on="0"/>
        <pt x="575" y="469" on="0"/>
        <pt x="565" y="455" on="1"/>
        <pt x="398" y="190" on="1"/>
        <pt x="388" y="176" on="0"/>
        <pt x="354" y="157" on="0"/>
        <pt x="337" y="157" on="1"/>
        <pt x="315" y="157" on="0"/>
        <pt x="284" y="187" on="0"/>
        <pt x="284" y="207" on="1"/>
        <pt x="284" y="212" on="0"/>
        <pt x="290" y="230" on="0"/>
        <pt x="305" y="254" on="1"/>
      </contour>
    </TTGlyph>
    <TTGlyph name="h" xMin="24" yMin="-51" xMax="1000" yMax="1506">
      <contour>
        <pt x="235" y="450" on="1"/>
        <pt x="371" y="725" on="0"/>
        <pt x="585" y="955" on="0"/>
        <pt x="700" y="955" on="1"/>
        <pt x="762" y="955" on="0"/>
        <pt x="830" y="878" on="0"/>
        <pt x="830" y="808" on="1"/>
        <pt x="830" y="753" on="0"/>
        <pt x="722" y="320" on="0"/>
        <pt x="722" y="178" on="1"/>
        <pt x="722" y="130" on="0"/>
        <pt x="737" y="79" on="0"/>
        <pt x="751" y="79" on="1"/>
        <pt x="770" y="79" on="0"/>
        <pt x="875" y="133" on="0"/>
        <pt x="951" y="181" on="1"/>
        <pt x="999" y="102" on="1"/>
        <pt x="907" y="33" on="0"/>
        <pt x="735" y="-50" on="0"/>
        <pt x="684" y="-50" on="1"/>
        <pt x="627" y="-50" on="0"/>
        <pt x="573" y="29" on="0"/>
        <pt x="573" y="115" on="1"/>
        <pt x="573" y="237" on="0"/>
        <pt x="662" y="681" on="0"/>
        <pt x="662" y="763" on="1"/>
        <pt x="662" y="787" on="0"/>
        <pt x="648" y="811" on="0"/>
        <pt x="633" y="811" on="1"/>
        <pt x="561" y="811" on="0"/>
        <pt x="325" y="469" on="0"/>
        <pt x="251" y="247" on="1"/>
        <pt x="239" y="208" on="0"/>
        <pt x="222" y="142" on="1"/>
        <pt x="177" y="-38" on="0"/>
        <pt x="63" y="-38" on="1"/>
        <pt x="41" y="-38" on="0"/>
        <pt x="25" y="-21" on="0"/>
        <pt x="25" y="0" on="1"/>
        <pt x="25" y="29" on="0"/>
        <pt x="50" y="263" on="0"/>
        <pt x="73" y="431" on="1"/>
        <pt x="107" y="686" on="0"/>
        <pt x="161" y="1030" on="0"/>
        <pt x="186" y="1153" on="1"/>
        <pt x="192" y="1188" on="0"/>
        <pt x="204" y="1247" on="1"/>
        <pt x="252" y="1501" on="0"/>
        <pt x="363" y="1503" on="1"/>
        <pt x="415" y="1505" on="1"/>
        <pt x="449" y="1505" on="0"/>
        <pt x="472" y="1485" on="0"/>
        <pt x="472" y="1455" on="1"/>
        <pt x="472" y="1440" on="0"/>
        <pt x="442" y="1359" on="1"/>
        <pt x="280" y="919" on="0"/>
      </contour>
    </TTGlyph>
    <TTGlyph name="hungarumlaut" xMin="275" yMin="1088" xMax="1052" yMax="1418">
      <contour>
        <pt x="646" y="1400" on="1"/>
        <pt x="691" y="1343" on="1"/>
        <pt x="696" y="1337" on="0"/>
        <pt x="701" y="1322" on="0"/>
        <pt x="701" y="1315" on="1"/>
        <pt x="701" y="1304" on="0"/>
        <pt x="689" y="1286" on="0"/>
        <pt x="676" y="1280" on="1"/>
        <pt x="316" y="1088" on="1"/>
        <pt x="276" y="1135" on="1"/>
        <pt x="570" y="1394" on="1"/>
        <pt x="584" y="1406" on="0"/>
        <pt x="603" y="1418" on="0"/>
        <pt x="610" y="1418" on="1"/>
        <pt x="622" y="1418" on="0"/>
        <pt x="640" y="1408" on="0"/>
      </contour>
      <contour>
        <pt x="996" y="1400" on="1"/>
        <pt x="1041" y="1343" on="1"/>
        <pt x="1046" y="1336" on="0"/>
        <pt x="1051" y="1322" on="0"/>
        <pt x="1051" y="1315" on="1"/>
        <pt x="1051" y="1304" on="0"/>
        <pt x="1039" y="1286" on="0"/>
        <pt x="1026" y="1280" on="1"/>
        <pt x="666" y="1088" on="1"/>
        <pt x="624" y="1135" on="1"/>
        <pt x="920" y="1394" on="1"/>
        <pt x="936" y="1408" on="0"/>
        <pt x="952" y="1418" on="0"/>
        <pt x="958" y="1418" on="1"/>
        <pt x="969" y="1418" on="0"/>
        <pt x="990" y="1408" on="0"/>
      </contour>
    </TTGlyph>
    <TTGlyph name="hyphen" xMin="91" yMin="516" xMax="804" yMax="673">
      <contour>
        <pt x="179" y="516" on="1"/>
        <pt x="133" y="516" on="0"/>
        <pt x="92" y="545" on="0"/>
        <pt x="92" y="577" on="1"/>
        <pt x="92" y="633" on="0"/>
        <pt x="141" y="673" on="0"/>
        <pt x="207" y="673" on="1"/>
        <pt x="317" y="673" on="0"/>
        <pt x="637" y="662" on="0"/>
        <pt x="688" y="662" on="1"/>
        <pt x="703" y="662" on="1"/>
        <pt x="767" y="662" on="0"/>
        <pt x="803" y="638" on="0"/>
        <pt x="803" y="607" on="1"/>
        <pt x="803" y="567" on="0"/>
        <pt x="711" y="523" on="0"/>
        <pt x="627" y="523" on="1"/>
        <pt x="558" y="523" on="0"/>
        <pt x="398" y="525" on="0"/>
        <pt x="387" y="525" on="1"/>
        <pt x="318" y="525" on="0"/>
        <pt x="179" y="516" on="0"/>
      </contour>
    </TTGlyph>
</ttFont>
